<svg version="1.2" xmlns="http://www.w3.org/2000/svg" viewBox="0 0 831 297" width="253" height="90">
	<title>alrajhi-bank-svg</title>
	<style>
		.s0 { fill: #221afb } 
	</style>
	<g id="_x39_u7Tlw_00000148636920449813617690000003798258439039256462_">
		<g id="Layer">
			<path id="Layer" fill-rule="evenodd" class="s0" d="m753.9 123.8c9.1 5.2 17.8 10.2 26.6 15.3 6.5 3.7 13 7.4 19.5 11.2 11.7 7 18.6 17.4 20.8 30.8 0.3 1.4 0.3 3 0.3 4.4 0 15 0.1 30 0 45-0.1 10.2-3.9 19-10.5 26.6-3.5 4.1-7.8 7.2-12.5 9.8q-17.1 9.8-34.1 19.7c-7.5 4.4-15.5 6.4-24.1 5.9-6.3-0.3-12.4-1.9-17.9-5.1q-22-12.6-43.8-25.3c-2.2-1.3-3.8-1.5-6.1-0.2-14.2 8.4-28.6 16.6-43 24.9-7.4 4.3-15.4 6.2-23.9 5.7-7.4-0.4-14.1-2.8-20.4-6.5-11.6-6.8-23.3-13.3-34.8-20.2-13.5-8.2-20.8-20.3-21-36.2-0.2-14.4-0.1-28.7-0.1-43 0-10.3 3.6-19.2 10.1-27 3.4-4.1 7.5-7.2 12.1-9.9 14.4-8.2 28.7-16.6 43.1-24.8 1.5-0.9 1.9-1.8 1.9-3.5 0-17-0.2-34 0.1-51 0.2-15.3 6.9-27.5 20-35.6 10.4-6.5 21.2-12.4 31.9-18.5 2.8-1.6 5.6-3.3 8.5-4.7 4.6-2.4 9.5-3.6 14.6-4.1 9.4-0.9 18.1 1.4 26.2 6.1 11.4 6.6 22.7 13.2 34.2 19.7 9.3 5.3 15.9 12.9 19.8 22.9 1.6 4.4 2.5 9 2.5 13.7 0.1 17 0 34 0 51 0 0.9 0 1.8 0 2.9zm-79 109.8c0.3-0.1 0.4-0.1 0.5-0.1 14.4-8.3 28.9-16.5 43.2-25 7.8-4.7 12-12 12-21.4q0-23.8 0-47.7c0-1.6-0.4-2.5-1.9-3.3-13.8-7.9-27.4-16-41.3-23.8-8.3-4.6-16.9-4.5-25.2 0.3-13.6 7.7-27.1 15.6-40.7 23.3-1.5 0.9-2.1 1.9-2.1 3.7 0.1 15.7 0 31.3 0 47 0 10.1 4.6 17.5 13.1 22.6 3.8 2.2 7.6 4.4 11.5 6.6q15.4 8.9 30.9 17.8zm-78.8-83c-1.1 0.6-1.8 0.9-2.4 1.3-10.4 6-20.7 12.1-31.1 18-7 3.9-10.6 9.8-10.6 17.6q-0.2 20.7 0 41.3c0 7.6 3.5 13.4 10 17.2 12.1 7 24.2 14.1 36.4 21 6 3.3 12.3 3.5 18.3 0.1 11.2-6.2 22.2-12.7 33.3-19.2 0.5-0.2 0.9-0.6 1.4-1-0.7-0.4-1.2-0.8-1.7-1.1-9.4-5.4-18.8-10.9-28.3-16.3-7.6-4.3-13.8-10.1-18.3-17.6-4.8-7.9-7-16.5-7-25.7q0-16.2 0-32.5c0-0.9 0-1.8 0-3.1zm102.4 96.3c0.9 0.6 1.5 1.1 2.2 1.5q15.9 9.2 31.8 18.3c6.5 3.7 13 3.7 19.5 0.1 12.2-6.9 24.3-14 36.4-21.1 6.4-3.7 9.6-9.4 9.7-16.7q0.2-20.8 0-41.7c-0.1-7.6-3.5-13.4-10.2-17.2-9.4-5.3-18.7-10.8-28.1-16.2-1.8-1.1-3.7-2.1-5.9-3.3 0 1.3 0 2.2 0 3.1 0 11.1 0.1 22.3 0 33.5 0 2.2-0.1 4.5-0.5 6.7-2.5 15.1-10.2 26.8-23.4 34.8-5.8 3.4-11.6 6.7-17.5 10.1-4.6 2.7-9.2 5.3-14 8.1zm-79.1-136.6c1-0.5 1.7-0.8 2.3-1.2 9.7-5.5 19.3-11.2 29-16.6 16.1-9 32.4-8.9 48.5-0.1 9.9 5.3 19.5 11.2 29.2 16.8 0.6 0.3 1.3 0.6 2.1 1 0-0.7 0.1-1.1 0.1-1.5q0-19.8 0-39.5c0-0.9-0.2-1.8-0.4-2.7-1.3-5.7-4.6-9.9-9.6-12.8-11.9-6.8-23.8-13.7-35.7-20.5-6.6-3.8-13.3-3.7-19.9 0.1-3.5 2-7.1 4-10.6 6.1-8.6 4.9-17.2 9.8-25.7 14.9-6 3.6-9.3 9.1-9.3 16.3q0 18.3 0 36.7c0 0.9 0 1.8 0 3z"/>
			<path id="Layer" class="s0" d="m161.1 137.5c0-3.3 0-6.6-0.2-9.8-0.1-1.5-0.3-3-0.8-4.4-1.9-5.8-8.3-7.8-13.3-4.4-0.6 0.4-1.1 0.8-1.8 1.4-2.3-1.9-4.6-3.8-7-5.8 2.7-3 6-4.6 9.7-5.3 4.4-0.8 8.7-0.5 12.7 1.4 6 2.8 9.3 7.6 10.1 14.1 0.4 2.9 0.4 5.8 0.4 8.7 0.1 3.6 0.6 4.2 4.2 4.3 0.3 0 0.6 0.1 1.2 0.2q0.1 1.9 0.1 3.9 0 2 0 3.9c-1.8 0.6-93 0.8-97.4 0.3 0-9.5 0-18.9 0-28.3-7.5-2.2-13.4 2-13.6 9.5-0.1 5.5 0 10.9 0 16.3 0 0.8 0 1.6-0.1 2.6-0.9 0-1.8 0.1-2.6 0.1q-11.8 0-23.7 0c-10 0-17.6-7.7-17.9-18-0.1-4.6 1-8.8 3.9-12.5q0.3-0.4 0.6-0.8c0.2-0.1 0.3-0.2 0.7-0.4 2.2 1.8 4.5 3.7 6.8 5.6-0.7 1.6-1.5 3.2-1.9 4.9-0.8 4-0.1 7.8 3.1 10.7 1.1 1 2.8 1.9 4.2 1.9 5.6 0.2 11.1 0.1 17 0.1 0-1 0.1-1.9 0.1-2.8 0.1-3.7-0.1-7.5 0.4-11.2 1.2-8.1 7.6-14 15.7-14.6 5.3-0.4 10.6-0.3 15.9-0.4 0.4 0 0.7 0.2 1.2 0.3 0 9.5 0 18.9 0 28.5 11.3 0 22.2 0 33.4 0-0.2-4-0.3-8.1-0.7-12.1-0.4-3.9-3-7.3-7.6-8-2.3-0.4-4.3 0.2-6.2 1.4-0.5 0.4-1 0.9-1.8 1.5-2.3-1.9-4.6-3.8-7-5.8 2.6-2.9 5.7-4.5 9.2-5.2 5.7-1.2 11.2-0.5 16.1 3 4.8 3.5 7.1 8.3 7.4 14.1 0.1 2.6 0 5.2 0 7.8 0.1 2.2 1.2 3.5 3.3 3.5q12.7 0 25.5 0c0.3 0 0.6-0.2 0.7-0.2z"/>
			<path id="Layer" fill-rule="evenodd" class="s0" d="m424.5 137.1c1.9 0.7 10.2 0.9 13.3 0.3-0.3-0.7-0.6-1.4-0.8-2-2.6-6.8-2.1-13.2 2-19.3 1.9-2.7 4.5-4.7 7.6-5.9 4.8-1.9 9.7-2 14.6-0.3 6.1 2.2 10 6.5 11.4 12.9 1.3 6.1 0.5 11.9-3.6 16.9-3.3 4.1-7.7 6.4-12.9 6.5-9.6 0.1-19.2 0-28.8 0-2.4 0-4.3-1-5.9-2.7-0.3-0.4-0.7-0.7-1.2-1.3-3.9 4.1-9 4.1-14.1 4-12.8-0.1-25.5 0-38.3 0-1.8 0-3.6 0.1-5.1-1.3-1.9 11.5-7.4 16.5-18.9 17.4 0-2.6 0-5.2 0-8 0.4-0.2 0.9-0.4 1.4-0.6 4.6-1 7.3-4.3 7.4-9 0.1-3 0-5.9 0-8.8q0-10.4 0-20.7c0-0.9 0-1.8 0-2.8 3.4 0 6.5 0 10 0q0 1.4 0 2.7 0 9.5 0 19c0 0.6 0 1.2 0 1.7 0.2 1.1 0.7 1.9 2 1.9 3.4 0 6.8 0 10.4 0 0-8.2 0-16.1 0-24.4 3.1-0.2 5.9-0.1 9.1 0 0 2.8 0 5.4 0 8.4 1.5-0.7 2.2-1.7 3-2.6q4.1-4.3 9.6-6.6c6.4-2.6 12.9-3.2 19.3-0.3 5.9 2.7 9.1 7.5 10.1 13.8 0.6 3.4 0.1 6.5-1.2 9.5-0.1 0.5-0.3 1-0.4 1.6zm-38.5 0.3c0.3 0.1 0.4 0.3 0.5 0.3 7.5 0 15 0.1 22.5 0 3.7-0.1 6.3-2.5 7.2-6.2 0.7-3.2 0.1-6.3-1.7-9-1.8-2.8-4.6-3.9-7.8-3.7-3.5 0.2-6.7 1.5-9.6 3.6-5 3.6-8.3 8.6-10.9 14.1-0.1 0.2-0.1 0.6-0.2 0.9zm59.4-10c0 2.7 0.5 4.5 1.4 6.3 2.9 5.3 11.4 5.3 14.4 0.7 2.6-4 2.9-8.2 0.8-12.5-2.7-5.3-9.8-6.2-13.9-2-2.1 2.1-2.8 4.7-2.7 7.5z"/>
			<path id="Layer" fill-rule="evenodd" class="s0" d="m280.8 114.3c2.6 2.1 4.8 4 7.1 5.8-0.5 1.2-1.1 2.2-1.5 3.3-1.5 4.5-1 8.7 2.5 12.1 1 1.1 2.7 2 4.1 2.1 4.6 0.2 9.1 0.1 13.9 0.1-0.3-0.9-0.6-1.5-0.8-2.1-2.8-7.6-2.2-14.7 3.2-21 2.4-2.7 5.4-4.4 8.9-5.2 6.6-1.4 12.8-0.5 18 4 2.8 2.4 4.6 5.5 5.4 9.1 1.4 6.2 0.7 12-3.4 17.1-3.3 4.2-7.7 6.5-13 6.6q-16.2 0.2-32.4 0c-8.8-0.2-16.3-7.7-16.9-16.4-0.2-4.6 0.2-9 2.9-12.9 0.6-0.8 1.3-1.6 2-2.6zm33.6 13.3c-0.1 2 0.5 4.2 1.6 6.2 2.7 4.5 9.3 5.4 13.2 1.8 3.7-3.5 4.3-10.2 1.4-14.5-2.1-3.1-5.7-4.4-9.3-3.5-4.3 1-6.8 4.7-6.9 10z"/>
			<path id="Layer" fill-rule="evenodd" class="s0" d="m296.2 232.2c-0.2 0.6-0.4 1.1-0.5 1.7q-4.8 0-9.6 0c0-18.9 0-37.7 0-56.7 3.2 0 6.4 0 9.8 0 0 6.9 0 13.7 0 20.8 0.7-0.4 1.1-0.5 1.4-0.7 6-4.1 14.7-3 20.1 1.1 5.6 4.3 8.6 9.9 8.5 17-0.1 10.5-7.8 18-15.9 19.5-4.2 0.8-8.4 0.6-12.2-1.9-0.5-0.3-1-0.5-1.6-0.8zm19.8-18.3c-0.3-1-0.6-3.1-1.5-4.9-3.2-6.4-11.9-6.9-15.8-2.2-3.3 4-3.8 8.5-2 13.2 2.7 7.5 11.8 7.7 15.8 3.7 2.5-2.3 3.4-5.4 3.5-9.8z"/>
			<path id="Layer" class="s0" d="m221.8 137.7q4.8 0 9.6 0c1.9 0 3.2-0.9 3.7-2.7 0.3-1.3 0.5-2.7 0.5-4q0-16.5 0-33c0-0.9 0-1.8 0-2.8 3.2 0 6.2 0 9.3 0 0.1 0.6 0.2 1.3 0.2 1.9q0 17.7 0 35.5c0 2.4-0.3 4.8-1.3 7.1-1.9 4.1-5.3 6.3-9.8 6.5-3.3 0.1-6.5 0.1-9.8 0-1.1-0.1-2.2-0.6-3.5-0.9-0.7 5.1-2.5 9.7-6.7 13.1-3.5 2.8-7.6 3.9-12.2 4 0-2.7 0-5.3 0-8.1 0.6-0.2 1.2-0.4 1.9-0.6 3.3-0.7 5.4-2.7 6.3-5.8 0.5-1.8 0.9-3.7 0.9-5.6 0.1-9 0-18 0-27 0-0.9 0-1.8 0-2.9 3.2 0 6.3 0 9.6 0 0 0.9 0.1 1.8 0.1 2.6q0 9.4 0 18.8c0 1.3 0 2.7 1.2 3.9z"/>
			<path id="Layer" fill-rule="evenodd" class="s0" d="m360.7 198c0.1-0.7 0.3-1.2 0.4-1.8q4.7 0 9.4 0c0.5 1.9 0.7 32 0.3 37.7-1.6 0.1-3.2 0.1-4.8 0.1q-2.4 0.1-4.8 0c-0.2-0.6-0.3-1.2-0.5-1.8-0.2 0.1-0.5 0.1-0.7 0.2-11.5 8.1-29.1-1.4-29.1-17 0-8.1 3.2-14.2 10.2-18.1 6.1-3.4 12.5-3.8 18.6 0.2 0.3 0.2 0.6 0.3 1 0.5zm-20 17q0.1 0 0.2 0 0 0.9 0 1.8c0.4 4.5 3.4 8.1 7.6 9.2 4.3 1.1 8.7-0.6 10.9-4.5 2-3.4 2.2-7.1 1-10.8-1.2-4.1-4.9-6.9-9.1-7-4.5-0.1-8.1 2.3-9.6 6.5-0.5 1.5-0.7 3.2-1 4.8z"/>
			<path id="Layer" fill-rule="evenodd" class="s0" d="m61.9 198.1c0.1-0.7 0.2-1.3 0.4-1.9 3.1 0 6.2 0 9.5 0 0 12.6 0 25 0 37.7-3.1 0-6.2 0-9.4 0-0.2-0.5-0.4-1.1-0.6-2-5.3 4-11 4.3-16.9 2.2-5.9-2.2-9.9-6.5-11.8-12.4-2.6-8.1-1.1-15.5 5.1-21.6 3.2-3 7.1-4.7 11.6-5.2 4.5-0.6 8.3 0.7 12.1 3.2zm0.5 17c-0.4-1.8-0.7-3.8-1.3-5.5-1.4-3.6-4.3-5.5-8.1-5.8-3.6-0.4-6.7 0.8-8.9 3.9-2.6 3.7-2.8 7.9-1.3 12.1 1.3 3.7 4 5.9 7.9 6.4 4.2 0.5 7.7-1 9.9-4.8 1.1-1.9 1.6-4 1.8-6.3z"/>
			<path id="Layer" fill-rule="evenodd" class="s0" d="m155.9 197.7c0.1-0.4 0.2-0.9 0.4-1.5q4.6 0 9.3 0c0.6 1.6 0.8 33.9 0.3 37.7-3.1 0-6.3 0-9.5 0q-0.3-0.8-0.5-1.6c-0.2 0-0.5 0-0.7 0.1-9.8 7.1-26 0.9-28.7-13.4-1.4-7.3 0.4-13.8 5.9-18.9 4.9-4.5 10.7-6.3 17.3-4.9 2 0.4 4 1.6 6.2 2.5zm-9.6 28.5c4.4 0 7.7-2.4 9.2-6.6 1.2-3.1 1.2-6.1 0.1-9.2-1.4-3.8-4.1-6.1-8-6.6-4-0.5-7.4 0.8-9.7 4.4-1.5 2.5-2.1 5.3-1.8 8.1 0.8 7.1 5.4 10.1 10.2 9.9z"/>
			<path id="Layer" class="s0" d="m196.6 177.1c3.1 0 6.1 0 9.4 0q0.1 5.1 0.1 10.2c0 3.3 0 6.6 0 10.3 0.7-0.4 1.2-0.5 1.6-0.8 7.1-4.8 19.8-1 22.2 9 0.5 2.3 0.9 4.6 1 6.9 0.1 6.5 0 13 0 19.5 0 0.5 0 1-0.1 1.7-3.2 0-6.3 0-9.7 0-0.1-0.9-0.2-1.7-0.2-2.6 0-6.1 0.1-12.2 0-18.2 0-1.5-0.2-3-0.5-4.5q-0.9-4-5.1-4.8c-4.2-0.8-7.9 1.6-8.7 5.8-0.3 1.7-0.5 3.5-0.5 5.2q0 8.3 0 16.5c0 0.8 0 1.6 0 2.6-3.3 0-6.3 0-9.5 0 0-18.9 0-37.7 0-56.8z"/>
			<path id="Layer" class="s0" d="m425.1 177.1c3.1 0 6.1 0 9.4 0q0.1 5.3 0.1 10.5 0 5.3 0 10.7c0 3.5 0 7 0 10.9 0.8-0.5 1.3-0.8 1.7-1.3 3.3-3.2 6.7-6.5 9.9-9.9 1.4-1.4 2.8-2.1 4.8-2 3.2 0.2 6.5 0 9.9 0.5-5.2 5.1-10.5 10.2-15.9 15.5 5.7 7.2 11.3 14.4 17.4 22-2.5 0-4.5 0.1-6.4 0-2 0-4.1 0.5-5.7-0.3-1.5-0.7-2.4-2.7-3.5-4.1-2.8-3.6-5.6-7.2-8.6-11-1.1 1.1-2.2 2-3.1 3.1-0.4 0.5-0.5 1.4-0.5 2.1q0 3.7 0 7.5c0 0.8 0 1.6 0 2.6-3.3 0-6.3 0-9.5 0 0-18.9 0-37.7 0-56.8z"/>
			<path id="Layer" class="s0" d="m380.8 196.1c2.9 0 5.7-0.1 8.5 0 0.6 0 1.1 0.7 1.5 1 1.9-0.6 3.8-1.6 5.9-2 6.6-1.6 16.4 2.6 17.9 12.5 0.1 1.1 0.4 2.3 0.4 3.5q0 11.1 0 22.2c0 0.1-0.1 0.3-0.2 0.6-3.1 0-6.2 0-9.6 0 0-0.9-0.1-1.8-0.1-2.7 0-6.1 0-12.3 0-18.5 0-1.5-0.3-3.1-0.6-4.6-0.6-2.2-2-3.6-4.3-4.1-4.6-1.2-8.3 1-9.3 5.7-0.3 1.5-0.4 3.1-0.5 4.7 0 5.6 0 11.2 0 16.7 0 0.9 0 1.7 0 2.7-3.2 0-6.3 0-9.6 0 0-12.4 0-24.9 0-37.7z"/>
			<path id="Layer" class="s0" d="m167.5 254c0-2.9 0-5.6 0-7.8 2-1 4-1.6 5.5-2.8 2.8-2.2 3.6-5.4 3.6-8.9q0-17.7 0-35.4c0-0.9 0-1.8 0-2.9 3.3 0 6.4 0 9.7 0 0 0.8 0.1 1.6 0.1 2.3 0 12.5 0.1 25.1 0 37.7-0.1 8.9-7.1 16.8-16.9 17.8-0.5 0.1-1.1 0-2 0z"/>
			<path id="Layer" class="s0" d="m81.8 177c2.4 0 4.6 0 6.8 0 0.9 0 1.8 0 2.8 0 0 19.1 0 37.8 0 56.8q-4.6 0-9.6 0c0-18.8 0-37.6 0-56.8z"/>
			<path id="Layer" class="s0" d="m253.8 95.1c3.2 0 6.3 0 9.4 0 0.5 1.8 0.7 47.5 0.1 51.1q-2.3 0-4.6 0c-1.6 0-3.2 0-4.9 0 0-17 0-33.9 0-51.1z"/>
			<path id="Layer" class="s0" d="m197.9 146.1q-4.6 0-9 0c-0.6-1.7-0.7-47.1-0.2-50.9 3 0 6 0 9.2 0 0 16.9 0 33.8 0 50.9z"/>
			<path id="Layer" class="s0" d="m110.6 234.1c-3.4 0-6.5 0-9.8 0-0.1-0.8-0.2-1.6-0.2-2.3 0-6.6-0.1-13.3 0-20 0.1-2.2 0.4-4.6 1-6.8 1.4-4.8 4.7-7.8 9.5-8.9 3.8-1 7.7-1.3 11.7-0.4 0 2.7 0 5.3 0 8.3-1.2 0-2.3 0-3.5 0-1 0.1-2.1 0.1-3.2 0.2-3.8 0.5-5.5 2.4-5.5 6.4q0 9.6 0 19.2c0 1.4 0 2.8 0 4.3z"/>
			<path id="Layer" class="s0" d="m240.9 196.2c3.2 0 6.2 0 9.4 0 0 12.6 0 25 0 37.7-3.2 0-6.2 0-9.3 0-0.5-1.7-0.7-33.9-0.1-37.7z"/>
			<path id="Layer" class="s0" d="m245.5 189.2c-3.7 0-6.1-2.4-6.1-6 0.1-3.4 2.7-5.9 6.1-6 3.1-0.1 6.2 2.6 6.2 6 0 3.1-2.8 6.5-6.2 6z"/>
			<path id="Layer" class="s0" d="m181.6 189.2c-3.5 0.5-6.4-3.1-6.2-6 0.2-3.3 2.6-5.9 6-6 3.6 0 6.2 2.4 6.2 6 0 3.7-2.2 6-6 6z"/>
			<path id="Layer" class="s0" d="m39.7 165.7c-3.3 0-5.6-2.3-5.6-5.6 0-3.3 2.4-5.6 5.7-5.6 3.1 0.1 5.6 2.5 5.6 5.5 0.1 3.1-2.5 5.7-5.7 5.7z"/>
			<path id="Layer" class="s0" d="m61.4 160c0.1 3.3-2.3 5.7-5.6 5.7-3.2 0-5.7-2.5-5.7-5.6 0-3 2.5-5.5 5.5-5.6 3.3 0 5.8 2.3 5.8 5.5z"/>
			<path id="Layer" class="s0" d="m307.6 102c-0.1 3.3-2.4 5.3-5.9 5.2-3.1-0.1-5.4-2.5-5.3-5.7 0.1-3.1 2.6-5.4 5.7-5.5 3.1 0 5.9 2.6 5.5 6z"/>
			<path id="Layer" class="s0" d="m159.6 160.1c0.4 3-2.7 5.9-5.5 5.7-3.2-0.3-5.7-2.6-5.7-5.8 0.1-3 2.5-5.3 5.6-5.5 3.1-0.2 6 2.9 5.6 5.6z"/>
		</g>
	</g>
</svg>