<svg version="1.2" xmlns="http://www.w3.org/2000/svg" viewBox="0 0 1920 573" width="253" height="76">
	<title>MOF – SVG-svg</title>
	<style>
		.s0 { fill: #005c50 } 
		.s1 { fill: #026455 } 
		.s2 { fill: #006c5a } 
		.s3 { fill: #04745f } 
		.s4 { fill: #077d63 } 
		.s5 { fill: #058869 } 
		.s6 { fill: #088f6f } 
		.s7 { fill: #1f9a74 } 
		.s8 { fill: #2ba379 } 
		.s9 { fill: #38ab7e } 
		.s10 { fill: #43ba82 } 
	</style>
	<g id="Layer">
		<path id="Layer" class="s0" d="m319.8 414.1h15.2l21.7 32.8 0.6 1.6 0.4-1.6 21.8-32.8h8.2v62.5h-8.8v-49l-0.7 2.4-18.4 26.8h-5.2l-18.2-26.8-0.7-2v48.6h-8.9v-56.2l-7-1.9"/>
		<path id="Layer" class="s0" d="m413.3 419.5l-7.2 4.4-4.3-7.4 7.4-4.3zm-1.4 13.7v43.4h-8.3v-38.1l-5.3-1.5v-3.8z"/>
		<path id="Layer" class="s0" d="m466.8 447.1v29.4h-8.4v-27.2c0-6.3-2.7-9.6-8.4-9.9-4.2-0.2-9.2 2.2-15 7.3v29.8h-8.3v-38l-5.3-1.5v-3.8h12.7l0.7 7.4q9.2-8.6 18.2-8.6c8.1 0 13.8 5.3 13.8 15.1z"/>
		<path id="Layer" class="s0" d="m490.7 419.5l-7.2 4.4-4.3-7.4 7.4-4.3zm-1.4 13.7v43.4h-8.4v-38.1l-5.2-1.5v-3.8z"/>
		<g id="Layer">
			<path id="Layer" class="s0" d="m519.7 477.3c-6.7 1-14.4-0.1-21-2.8l1.6-6.3c10.4 3.8 23 4.9 23.3-3.2 0-1.8-0.7-3.1-3.2-4.5-1.3-0.7-2.4-1.2-3.2-1.6-1-0.4-2.6-1-4.8-1.9-8.8-3.2-13.4-6.3-13.1-13 0.3-13.4 19.4-14.1 30.4-9.2l-1.5 6.3c-8.6-3.8-21.1-3.6-20.9 2.8 0 2.3 1.3 3.5 3.6 4.7 1.8 1 2.5 1.1 5 2 1.2 0.5 2.1 0.8 2.7 1 8.6 3.2 13.2 6.5 13 13.4-0.3 7-5.2 11.4-11.9 12.3z"/>
			<path id="Layer" class="s0" d="m564.3 476c-7.1 2.5-12.5 2.4-16.1-0.2-3.5-2.5-5.3-6.4-5.3-11.7v-24.5h-7.3v-3.9l7.3-3v-9.8h8.4v10.3h9.1v6.4h-9.1v23.5c0 6.5 2.9 9.3 11.4 6.6z"/>
			<path id="Layer" class="s0" d="m581.5 440.4c6.2-6.5 10.6-9.6 17.2-8l-0.8 7.3c-5.9-1.1-9.9 1.8-16.1 8.3v28.5h-8.4v-37.9l-5.3-1.6v-3.8h12.8z"/>
		</g>
		<path id="Layer" class="s0" d="m638.4 433.2h8.5l-24.5 62.4h-8.7l9.2-22.3h-3.4l-16.9-40.1h8.5l14.2 33.8"/>
		<g id="Layer">
			<path id="Layer" fill-rule="evenodd" class="s0" d="m695.3 477.6c-6.5 0-11.7-2.2-15.8-6.4-4.1-4.3-6.1-9.8-6.1-16.5 0-6.7 2-12.1 6.1-16.4 4.1-4.2 9.3-6.3 15.8-6.3q9.7-0.1 15.9 6.3c4.1 4.2 6.1 9.7 6.1 16.4 0 6.7-2.1 12.2-6.1 16.5-4.1 4.2-9.4 6.4-15.9 6.4zm0-6.8c4 0 7.2-1.5 9.7-4.3 2.5-2.9 3.7-6.9 3.7-11.8q0-7.4-3.6-11.7c-2.5-2.9-5.7-4.3-9.8-4.3-4.1 0-7.3 1.4-9.7 4.3-2.5 2.8-3.7 6.7-3.7 11.7 0 4.9 1.2 8.9 3.7 11.8 2.5 2.8 5.7 4.3 9.7 4.3z"/>
			<path id="Layer" class="s0" d="m751.4 415.6c-10.5-2.7-13.9 0.2-13.9 6.7v10.9h11v6.4h-11v37h-8.3v-37h-6.7v-6.4h6.7v-10.7c0-5.6 1.8-9.9 5.6-12.6 3.7-2.7 9.8-3 18.3-0.7z"/>
		</g>
		<path id="Layer" class="s0" d="m823 421.3h-28.9v22.8h23.5v7.3h-23.5v25.1h-8.8v-55.9l-7.2-2.1v-4.4h44.9"/>
		<path id="Layer" class="s0" d="m844.7 419.5l-7.2 4.4-4.3-7.4 7.3-4.3zm-1.4 13.7v43.4h-8.3v-38.1l-5.3-1.5v-3.8z"/>
		<g id="Layer">
			<path id="Layer" class="s0" d="m898.1 447.1v29.4h-8.3v-27.2c0-6.3-2.8-9.6-8.4-9.9-4.3-0.2-9.2 2.2-15 7.3v29.8h-8.3v-38l-5.3-1.5v-3.8h12.7l0.7 7.4c6.1-5.8 12.2-8.6 18.1-8.6 8.1 0 13.8 5.3 13.8 15.1z"/>
			<path id="Layer" fill-rule="evenodd" class="s0" d="m909.9 473c-2.2-3-3.1-6.2-2.9-9.5 0.3-3.4 1.2-6.1 3-8.1 2.2-2.6 5.2-4.2 9-4.8q5.7-0.8 16.6-0.2v-5c0-6.9-7.1-8.3-21.2-4.2l-1.7-6.3c7.1-2.3 13.8-3.2 20.3-2.5 6.5 0.7 10.8 4.8 10.8 11.8l-0.1 27.2 5.4 1.3v3.8h-12.8l-0.5-6.6c-5.6 5.2-10.1 8.2-16.2 7.9-4.3-0.3-7.6-1.9-9.7-4.8zm25.5-8.2l0.1-8.8c-11.4-0.6-16.2-0.3-18.7 3.1-2.7 3.1-2.2 11.3 4.8 12.1 3.9 0.4 8.5-1.8 13.8-6.4z"/>
			<path id="Layer" class="s0" d="m999.5 447.1v29.4h-8.4v-27.2c0-6.3-2.7-9.6-8.4-9.9-4.2-0.2-9.2 2.2-15 7.3v29.8h-8.3v-38l-5.3-1.5v-3.8h12.8l0.7 7.4c6-5.8 12.1-8.6 18.1-8.6 8 0 13.8 5.3 13.8 15.1z"/>
			<path id="Layer" class="s0" d="m1015 471.5c-3.8-4.2-5.8-9.8-5.8-16.7 0-6.9 2-12.4 5.7-16.6q5.6-6.2 14.8-6.2c5.2 0 10.2 1.4 14.9 4.4l-1.4 6c-4.8-2.7-9-3.9-12.5-3.8-8 0.1-12.9 6.5-12.9 16.2 0 9.6 4.9 15.9 13.2 16.2 4.1 0.2 8.5-1 13.3-3.6l1.5 6c-5 2.8-10.2 4.3-15.6 4.4-6.4 0.1-11.4-2-15.2-6.3z"/>
			<path id="Layer" fill-rule="evenodd" class="s0" d="m1057.8 471.2c-3.8-4.3-5.6-9.7-5.6-16.4 0-6.9 1.9-12.4 5.8-16.6 3.9-4.2 8.9-6.3 15.2-6.2 15.9 0 19.6 12.7 17.2 24.4h-29.9c0.1 9.3 5.3 14.3 14.6 14.4 4.5 0 9-1.2 13.4-3.5l1.4 5.7c-4.3 3.2-9.7 4.8-16 4.8-7-0.1-12.4-2.3-16.1-6.6zm25.5-20.5c0.5-6.8-2.1-11.9-10.2-12-6.9 0-11.5 4.7-12.2 12z"/>
		</g>
		<path id="Layer" class="s0" d="m977.2 245.8v5.6l-7.7 2.1v90.3h-12v-98"/>
		<path id="Layer" class="s0" d="m1015.1 260.8l-11 6.7-6.6-11.2 11.3-6.7"/>
		<g id="Layer">
			<path id="Layer" class="s0" d="m999 281v69.9c0 8.3-0.5 14.4-13.7 11.8l-2.4 9.3c24.3 5.5 28.2-7.8 28.3-21.4v-61.9l7.6-2.1v-5.6z"/>
			<path id="Layer" class="s0" d="m917.8 281v69.9c0 8.3-0.5 14.4-13.7 11.8l-2.4 9.3c24.3 5.5 28.2-7.8 28.3-21.4v-61.9l7.5-2.1v-5.6z"/>
		</g>
		<path id="Layer" class="s0" d="m886.7 260.8l-11.1 6.7-6.6-11.2 11.4-6.7"/>
		<path id="Layer" class="s0" d="m866.6 260.8l-11.1 6.7-6.6-11.2 11.4-6.7"/>
		<g id="Layer">
			<path id="Layer" fill-rule="evenodd" class="s0" d="m897.4 281v5.6l-7.8 2.2v55.1h-29.6c-7.4 0-28.2-2.3-28.2-30.4 0-30.4 27.7-32.5 39-32.5 0 0 26.6 0 26.6 0zm-20 52.8v-43h-6.6c-7.3 0-26.7 0.7-26.7 22.7 0 16.7 9.5 20.3 15.9 20.3 0 0 17.4 0 17.4 0z"/>
			<path id="Layer" fill-rule="evenodd" class="s0" d="m1091.1 343.9c0 12.8-4.4 20.4-13.2 25.3-8.8 4.9-21.1 4.9-36.9 0.2l2.3-9.5c22.3 6.6 35.9 4.7 35.9-16h-14.1c-12.5 0-31.8-7.9-31.8-30 0-9.6 3-17.5 8.9-23.7 5.9-6.2 13.4-9.2 22.9-9.2h26zm-12.2-53h-13.8c-5.9 0-10.6 2-14.1 6.2-3.7 4.1-5.4 9.8-5.4 16.9 0 10.6 8 19.9 19.5 19.9h13.8z"/>
		</g>
		<path id="Layer" class="s0" d="m503.5 362.3l6.6 11.3 11.1-6.8-6.4-11.2"/>
		<path id="Layer" class="s0" d="m483.4 362.3l6.6 11.3 11.1-6.8-6.4-11.2"/>
		<path id="Layer" class="s0" d="m383.3 258.8l-6.4-11.2-11.3 6.7 6.6 11.3"/>
		<path id="Layer" class="s0" d="m363.2 258.8l-6.3-11.2-11.4 6.7 6.6 11.3"/>
		<path id="Layer" class="s0" d="m780.1 245.8v98.1h12.1v-90.4l7.6-2.1v-5.5"/>
		<path id="Layer" fill-rule="evenodd" class="s0" d="m745.7 245.9h19.7v5.5l-7.7 2.1v90.4h-71.4c-4.6 0-14.2-0.9-21-8.1-6.6 8.7-18.1 8.1-23.2 8.1h-59.4v-98.1h12.1v88h47.3c6.4 0 15.9 0.1 15.9-16.6v-3.7c0-30.4 17.7-32.5 29-32.5 11.3 0 29 2.1 29 32.5v20.3h29.7zm-42 67.7c0-22.1-9.4-22.7-16.7-22.7-7.3 0-16.7 0.6-16.7 22.7 0 16.6 9.5 20.2 16 20.2h17.4c0 0 0-20.2 0-20.2z"/>
		<path id="Layer" fill-rule="evenodd" class="s0" d="m548.3 245.9h19.7v5.5l-7.6 2.1v90.4h-34c-4.9 0-15.5 0.5-22.3-7-6.7 7.5-17.3 7-22.2 7h-106.9c-2.8 0-5-2.3-5-5.1v-1.6h-7.9c-7.4 0-35.3-0.7-35.3-28.7 0-30.4 25.2-32.5 36.5-32.5h26.7v5.5l-7.8 2.3v48.8c0 0.7 0.5 1.2 1.2 1.2h98.5c6.5 0 16.2 0.1 16.2-16.6v-36.2h12.2v38c0.6 14.8 9.8 14.8 16.1 14.8h21.9zm-178.3 39.9h-6.6c-7.3 0-24.2 0.7-24.2 22.8 0 17.7 16.5 18.6 22.9 18.6h7.9z"/>
		<path id="Layer" fill-rule="evenodd" class="s0" d="m1377.6 515.9c-6.5 0-12.6-2.5-17.2-7.1l-26.4-26.4c-8.5-8.5-25.1-13.9-36.9-12l-36.9 5.9c-13.2 2.1-25.7-7-27.8-20.3l-5.8-36.8c-1.9-11.9-12.2-26-22.9-31.4l-33.2-17c-5.8-2.9-10.1-7.9-12.1-14.1-2-6.2-1.5-12.8 1.5-18.6l16.9-33.2c5.5-10.7 5.5-28.1 0-38.9l-16.9-33.2c-3-5.8-3.5-12.3-1.5-18.5 2-6.2 6.3-11.3 12.1-14.2l33.2-16.9c10.7-5.5 21-19.6 22.9-31.5l5.8-36.8c2.1-13.3 14.6-22.3 27.8-20.2l36.9 5.8c11.8 1.9 28.4-3.5 36.9-12l26.4-26.4c4.5-4.6 10.7-7.1 17.2-7.1 6.5 0 12.6 2.5 17.2 7.1l26.3 26.4c8.5 8.5 25.1 13.9 37 12l36.8-5.8c6.4-1.1 12.8 0.5 18.1 4.3 5.3 3.9 8.7 9.5 9.7 15.9l5.9 36.8c1.9 11.9 12.1 26 22.8 31.5l33.2 16.9c5.8 2.9 10.1 8 12.1 14.2 2 6.2 1.5 12.7-1.4 18.5l-17 33.2c-5.4 10.8-5.4 28.2 0 38.9l17 33.2c6.1 12 1.3 26.7-10.7 32.7l-33.2 17c-10.7 5.4-20.9 19.5-22.8 31.4l-5.9 36.8c-2.1 13.3-14.5 22.4-27.8 20.3l-36.8-5.9c-11.9-1.9-28.5 3.5-37 12l-26.3 26.4c-4.6 4.6-10.7 7.1-17.2 7.1zm-75.7-49.2c12.1 0 26.5 5.4 34.5 13.4l26.3 26.3c4 4 9.3 6.2 14.9 6.2 5.6 0 10.9-2.2 14.8-6.2l26.4-26.3c9.1-9.2 27-15 39.8-13l36.9 5.9c11.4 1.8 22.2-6.1 24-17.5l5.8-36.8c2-12.8 13.1-28 24.6-33.9l33.2-16.9c10.3-5.3 14.5-17.9 9.2-28.3l-16.9-33.2c-5.9-11.5-5.9-30.3 0-41.9l16.9-33.2c2.5-5 3-10.7 1.3-16-1.8-5.3-5.5-9.7-10.5-12.2l-33.2-16.9c-11.5-5.9-22.6-21.1-24.6-33.9l-5.8-36.9c-0.9-5.5-3.9-10.3-8.4-13.6-4.6-3.4-10.1-4.7-15.6-3.8l-36.9 5.8c-12.8 2.1-30.6-3.8-39.8-12.9l-26.4-26.4c-3.9-3.9-9.2-6.1-14.8-6.1-5.6 0-10.9 2.2-14.8 6.1l-26.4 26.4c-9.2 9.1-27.1 15-39.9 12.9l-36.8-5.8c-11.4-1.8-22.2 6-24 17.4l-5.8 36.9c-2.1 12.8-13.1 28-24.7 33.9l-33.2 16.9c-5 2.5-8.7 6.8-10.4 12.2-1.7 5.3-1.3 11 1.2 16l17 33.2c5.9 11.6 5.9 30.4 0 41.9l-17 33.2c-2.5 5-2.9 10.7-1.2 16 1.7 5.4 5.4 9.7 10.4 12.2l33.2 17c11.6 5.9 22.6 21.1 24.6 33.9l5.9 36.8c1.8 11.4 12.6 19.3 24 17.4l36.8-5.8q2.6-0.4 5.4-0.4z"/>
		<path id="Layer" fill-rule="evenodd" class="s1" d="m1385.7 497.4c-7 0-13.9-2.5-19.5-7.5l-16.6-15.3c-10.7-9.7-31-15.3-45.2-12.4l-22.1 4.5c-7.5 1.5-15.2 0-21.7-4.3-6.4-4.2-10.8-10.7-12.3-18.2l-4.6-22.1c-2.9-14.3-16-30.7-29.2-36.7l-20.5-9.4c-7-3.1-12.3-8.9-15.1-16.1-2.7-7.2-2.4-15.1 0.8-22.1l9.3-20.5c6-13.2 5.1-34.2-2.1-46.9l-11.1-19.6c-3.8-6.6-4.7-14.4-2.7-21.9 2.1-7.4 6.9-13.6 13.6-17.4l19.6-11.1c12.6-7.2 24.2-24.7 25.8-39.2l2.6-22.4c0.8-7.6 4.6-14.4 10.7-19.3 6-4.8 13.5-6.9 21.2-6.1l22.4 2.5c14.4 1.7 34.1-5.7 43.9-16.4l15.2-16.6c10.8-11.8 29-12.6 40.8-1.9l16.6 15.3c10.7 9.8 31 15.4 45.2 12.5l22.1-4.5c15.6-3.2 30.9 6.9 34.1 22.4l4.5 22.1c2.9 14.3 16 30.7 29.2 36.7l20.5 9.4c14.5 6.5 20.9 23.7 14.3 38.2l-9.3 20.5c-6 13.2-5.1 34.2 2.1 46.9l11.1 19.6c3.8 6.6 4.7 14.4 2.7 21.9-2.1 7.4-6.9 13.6-13.6 17.4l-19.6 11.1c-12.6 7.2-24.2 24.7-25.8 39.2l-2.6 22.3c-0.8 7.7-4.6 14.5-10.7 19.3-6 4.9-13.6 7-21.2 6.2l-22.4-2.6c-14.4-1.6-34.1 5.8-43.9 16.5l-15.2 16.6c-5.7 6.3-13.5 9.4-21.3 9.4zm-73.3-39.4c13.9 0 30.1 5.6 39.5 14.2l16.6 15.2c10.4 9.5 26.5 8.8 36-1.6l15.2-16.7c10.5-11.3 31.5-19.2 46.8-17.5l22.4 2.5c6.7 0.8 13.4-1.1 18.8-5.4 5.3-4.2 8.7-10.3 9.4-17l2.6-22.4c1.7-15.4 14-34.1 27.5-41.7l19.6-11.1c5.9-3.4 10.2-8.8 12-15.4 1.8-6.6 1-13.5-2.4-19.4l-11.1-19.6c-7.6-13.4-8.6-35.8-2.2-49.9l9.3-20.5c5.8-12.8 0.2-28-12.6-33.8l-20.6-9.3c-14-6.4-28-24-31.1-39.1l-4.5-22.1c-2.8-13.8-16.3-22.7-30.1-19.9l-22.1 4.5c-15.1 3.1-36.7-2.8-48.1-13.3l-16.6-15.2c-10.4-9.5-26.6-8.7-36.1 1.6l-15.2 16.7c-10.4 11.4-31.4 19.2-46.8 17.5l-22.4-2.5c-6.7-0.8-13.4 1.1-18.7 5.4-5.3 4.2-8.7 10.3-9.5 17l-2.5 22.4c-1.7 15.4-14.1 34.1-27.5 41.7l-19.6 11.1c-6 3.4-10.2 8.8-12 15.4-1.8 6.6-1 13.5 2.3 19.4l11.1 19.6c7.7 13.4 8.7 35.8 2.3 49.9l-9.4 20.5c-5.8 12.8-0.1 28 12.7 33.8l20.5 9.3c14.1 6.4 28 24 31.1 39.1l4.5 22.1c1.4 6.6 5.3 12.4 11 16.1 5.7 3.8 12.5 5.1 19.1 3.8l22.1-4.5c2.7-0.6 5.6-0.9 8.7-0.9z"/>
		<path id="Layer" fill-rule="evenodd" class="s2" d="m1311.1 451.2l-7.7 2c-16 4.1-32.4-5.5-36.6-21.6l-2-7.7c-4.5-17.4-21.7-36.9-38.4-43.4l-7.4-3c-7.5-2.9-13.3-8.6-16.5-15.9-3.2-7.4-3.4-15.6-0.5-23l2.9-7.4c6.6-16.7 4.1-42.6-5.5-57.8l-4.3-6.7c-4.3-6.7-5.7-14.8-3.9-22.6 1.7-7.9 6.4-14.6 13.1-18.9l6.7-4.2c15.2-9.7 28.4-32.1 29.5-50l0.5-8c0.5-7.9 4.1-15.3 10.1-20.6 6-5.3 13.7-8 21.7-7.5l7.9 0.5c18 1.1 41.8-9.3 53.3-23.2l5-6.1c5.1-6.1 12.3-10 20.3-10.7 8-0.8 15.8 1.6 22 6.7l6.1 5c13.9 11.4 39.3 17.1 56.7 12.6l7.7-2c16-4.2 32.4 5.5 36.6 21.6l2 7.7c4.5 17.3 21.7 36.8 38.4 43.4l7.4 2.9c15.4 6.1 23 23.6 16.9 39l-2.9 7.4c-6.6 16.7-4.1 42.6 5.6 57.7l4.3 6.8c8.9 13.9 4.7 32.5-9.2 41.4l-6.8 4.3c-15.1 9.7-28.3 32.1-29.4 50l-0.5 7.9c-0.5 8-4.1 15.3-10.1 20.7-6 5.3-13.8 8-21.7 7.5l-8-0.5c-17.9-1.1-41.8 9.3-53.2 23.1l-5 6.2c-10.6 12.7-29.5 14.6-42.3 4l-6.2-5c-10.6-8.8-28-14.1-43.4-14.1-4.7 0-9.2 0.5-13.2 1.5zm107.7 15.7l5-6.1c10.8-13.2 33.5-23 50.4-22l8 0.5c8.8 0.6 17.4-2.4 24.1-8.3 6.7-5.9 10.7-14.1 11.2-22.9l0.5-8c1.1-17 13.6-38.2 28-47.4l6.7-4.2c15.5-9.9 20.1-30.6 10.2-46.1l-4.3-6.7c-9.1-14.4-11.5-38.9-5.3-54.8l3-7.4c6.7-17.1-1.7-36.5-18.9-43.3l-7.4-2.9c-15.8-6.2-32.1-24.7-36.4-41.2l-2-7.7c-4.6-17.8-22.8-28.6-40.7-23.9l-7.7 1.9c-16.4 4.3-40.5-1-53.6-11.9l-6.2-5c-6.8-5.7-15.5-8.3-24.4-7.5-8.9 0.9-16.9 5.1-22.6 12l-5 6.1c-10.9 13.2-33.5 23-50.5 21.9l-7.9-0.4c-8.9-0.6-17.5 2.4-24.1 8.3-6.7 5.9-10.7 14.1-11.3 22.9l-0.5 8c-1 17-13.5 38.2-27.9 47.3l-6.7 4.3c-7.5 4.8-12.7 12.2-14.6 21-1.9 8.7-0.4 17.6 4.4 25.1l4.3 6.7c9.1 14.4 11.5 38.9 5.2 54.8l-2.9 7.4c-3.2 8.2-3.1 17.3 0.5 25.5 3.5 8.2 10.1 14.5 18.3 17.8l7.4 2.9c15.9 6.2 32.2 24.7 36.5 41.2l1.9 7.7c4.7 17.8 22.9 28.6 40.7 23.9l7.7-1.9c16.5-4.3 40.6 1 53.7 11.9l6.1 5c6.3 5.1 13.8 7.6 21.3 7.6 9.6 0 19.1-4.1 25.8-12.1z"/>
		<path id="Layer" fill-rule="evenodd" class="s3" d="m1399.8 462.2c-7.3 0-14.4-2.3-20.4-6.7-14.3-10.4-39.7-14.5-56.6-9-18.2 5.9-37.8-4.1-43.7-22.4-5.5-16.8-23.6-35.1-40.5-40.6-8.8-2.8-15.9-9-20.1-17.2-4.2-8.3-5-17.7-2.1-26.5 5.5-16.9 1.5-42.3-8.9-56.7-5.4-7.5-7.6-16.6-6.2-25.8 1.5-9.2 6.4-17.2 13.9-22.6 14.4-10.4 26.1-33.4 26.1-51.1 0-19.1 15.6-34.6 34.7-34.6h0.1c17.8 0 40.6-11.7 51.1-26 5.4-7.5 13.5-12.4 22.7-13.8 9.2-1.5 18.3 0.7 25.8 6.2 14.3 10.4 39.7 14.5 56.6 9 18.2-5.9 37.8 4.2 43.7 22.4 5.5 16.8 23.6 35.1 40.5 40.6 18.2 5.9 28.2 25.5 22.2 43.7-5.5 16.9-1.5 42.3 8.9 56.7 11.3 15.5 7.8 37.2-7.7 48.4-14.4 10.4-26.1 33.4-26.1 51.1-0.1 19.1-15.6 34.7-34.7 34.7h-0.1c-17.8 0-40.7 11.6-51.1 25.9-5.5 7.5-13.5 12.4-22.7 13.8q-2.7 0.5-5.4 0.5zm-60-21.4c14.9 0 31.1 4.4 41.6 12.1 6.8 4.9 15 6.9 23.3 5.5 8.3-1.3 15.6-5.7 20.5-12.4 11-15.1 35.1-27.4 53.8-27.4h0.1c17.3 0 31.3-14 31.4-31.3 0-18.7 12.3-42.8 27.4-53.8 14-10.1 17.2-29.8 7-43.8-10.9-15.1-15.1-41.8-9.3-59.6 5.3-16.4-3.7-34.2-20.1-39.6-17.8-5.8-36.9-24.9-42.6-42.7-5.4-16.5-23.1-25.5-39.5-20.2-17.8 5.7-44.6 1.5-59.7-9.5-6.7-4.9-15-6.9-23.3-5.6-8.3 1.3-15.6 5.7-20.5 12.5-11 15-35.1 27.3-53.8 27.3h-0.1c-17.2 0-31.3 14-31.3 31.3 0 18.7-12.4 42.8-27.5 53.8-6.8 4.9-11.2 12.2-12.5 20.4-1.4 8.3 0.6 16.6 5.5 23.4 11 15.1 15.2 41.9 9.4 59.6-2.6 8-2 16.5 1.8 24 3.8 7.4 10.3 13 18.2 15.6 17.8 5.8 36.9 25 42.7 42.7 5.3 16.5 23 25.5 39.5 20.2 5.4-1.7 11.5-2.5 18-2.5z"/>
		<path id="Layer" fill-rule="evenodd" class="s4" d="m1407.2 447.1c-6 0-11.8-1.7-17-4.9-13.8-8.7-37.5-10.8-52.6-4.7-8 3.2-16.7 3.1-24.7-0.2-7.9-3.4-14-9.7-17.2-17.6-6.1-15.2-24-30.7-39.9-34.7-8.3-2.1-15.3-7.3-19.7-14.7-4.5-7.4-5.8-16.1-3.7-24.4 4-15.8-1.3-39-11.8-51.5-11.4-13.6-9.6-34 4-45.3 12.5-10.5 21.8-32.4 20.7-48.7-1.2-17.7 12.2-33.1 29.9-34.3 16.3-1.1 36.7-13.3 45.4-27.2 9.4-15 29.3-19.6 44.3-10.2 13.9 8.7 37.5 10.8 52.7 4.7 7.9-3.2 16.7-3.1 24.6 0.3 7.9 3.3 14.1 9.6 17.3 17.5 6.1 15.2 23.9 30.8 39.8 34.8 17.2 4.3 27.7 21.8 23.4 39-4 15.9 1.3 39 11.9 51.5 11.4 13.6 9.5 34-4.1 45.4-12.5 10.5-21.8 32.3-20.7 48.6 0.6 8.6-2.2 16.8-7.8 23.3-5.7 6.5-13.5 10.5-22.1 11-16.3 1.2-36.6 13.4-45.3 27.2-4.6 7.3-11.7 12.3-20.1 14.3q-3.6 0.8-7.3 0.8zm-49.4-16.4c12.4 0 25.2 3 34.2 8.7 6.5 4 14.2 5.3 21.8 3.6 7.5-1.7 13.9-6.3 18-12.8 9.1-14.6 30.7-27.5 47.9-28.7 7.7-0.5 14.7-4 19.8-9.9 5-5.8 7.5-13.2 7-20.9-1.2-17.2 8.7-40.3 21.9-51.4 12.2-10.2 13.8-28.4 3.6-40.6-11.1-13.3-16.7-37.7-12.5-54.5 3.9-15.4-5.5-31.1-21-35-16.7-4.2-35.7-20.7-42.1-36.7-2.9-7.1-8.4-12.7-15.5-15.8-7.1-3-14.9-3.1-22.1-0.2-16 6.4-41 4.2-55.6-4.9-13.5-8.5-31.4-4.4-39.8 9.1-9.2 14.7-30.7 27.5-47.9 28.7-15.9 1.1-27.9 14.9-26.8 30.8 1.1 17.3-8.7 40.3-21.9 51.4-12.2 10.2-13.9 28.5-3.7 40.7 11.2 13.2 16.8 37.7 12.6 54.4-1.9 7.5-0.7 15.2 3.2 21.9 4 6.6 10.3 11.3 17.7 13.1 16.8 4.3 35.7 20.7 42.2 36.8 2.9 7.1 8.3 12.7 15.5 15.7 7.1 3 14.9 3.1 22 0.2 6.2-2.5 13.8-3.7 21.5-3.7z"/>
		<path id="Layer" fill-rule="evenodd" class="s5" d="m1414.7 432.2c-4.6 0-9.3-1.1-13.7-3.3-13.4-7-35.2-7.1-48.7-0.3-7.1 3.5-15.2 4.1-22.7 1.6-7.6-2.5-13.8-7.8-17.3-14.9-6.8-13.5-24.4-26.5-39.3-28.9-7.8-1.3-14.7-5.6-19.3-12.1-4.7-6.5-6.6-14.4-5.3-22.2 2.5-14.9-4.1-35.7-14.7-46.4-11.6-11.7-11.5-30.7 0.2-42.3 10.8-10.5 17.6-31.3 15.4-46.2-2.5-16.3 8.7-31.5 25-34 14.9-2.2 32.7-15 39.6-28.4 3.6-7 9.8-12.2 17.5-14.7 7.6-2.4 15.7-1.7 22.7 1.9 13.4 7 35.2 7.1 48.7 0.4 7.1-3.6 15.2-4.2 22.8-1.7 7.6 2.6 13.7 7.8 17.3 14.9 6.7 13.5 24.3 26.5 39.2 28.9 7.8 1.3 14.7 5.6 19.4 12.1 4.6 6.5 6.5 14.4 5.2 22.2-2.5 14.9 4.2 35.7 14.8 46.4 11.5 11.7 11.4 30.7-0.3 42.3-10.7 10.5-17.6 31.3-15.3 46.2 2.4 16.3-8.8 31.5-25.1 34-14.9 2.2-32.6 15-39.5 28.3-5.3 10.3-15.8 16.2-26.6 16.2zm-38.4-11.9c9.5 0 19 1.9 26.3 5.6 12.9 6.7 29 1.6 35.7-11.4 7.3-14.2 26.2-27.7 42-30.1 14.5-2.2 24.4-15.8 22.2-30.2-2.4-15.8 4.9-37.9 16.3-49.1 10.4-10.3 10.6-27.1 0.3-37.5-11.3-11.4-18.3-33.5-15.7-49.3 1.1-7-0.5-14-4.6-19.7-4.2-5.8-10.3-9.6-17.3-10.8-15.7-2.6-34.4-16.3-41.6-30.7-3.2-6.3-8.6-11-15.4-13.2-6.7-2.2-13.9-1.7-20.2 1.4-14.3 7.2-37.5 7.1-51.7-0.3-6.3-3.2-13.5-3.8-20.2-1.7-6.8 2.2-12.3 6.8-15.5 13.1-7.4 14.2-26.3 27.7-42.1 30.1-14.4 2.2-24.4 15.8-22.2 30.2 2.4 15.8-4.9 37.9-16.3 49.1-10.4 10.3-10.5 27.1-0.2 37.5 11.2 11.4 18.2 33.5 15.6 49.3-1.1 7 0.5 14 4.7 19.8 4.1 5.7 10.2 9.5 17.2 10.7 15.8 2.6 34.5 16.3 41.6 30.7 3.2 6.3 8.7 11 15.4 13.2 6.7 2.2 13.9 1.7 20.2-1.4 7.1-3.6 16.3-5.3 25.5-5.3z"/>
		<path id="Layer" fill-rule="evenodd" class="s6" d="m1352.5 423.8q-3.2 0-6.3-0.7c-7.3-1.7-13.4-6-17.3-12.3-7.4-11.7-24.7-22.1-38.6-23-15.3-1-26.9-14.3-25.8-29.5 0.9-13.9-7-32.4-17.7-41.4-5.7-4.7-9.1-11.4-9.8-18.8-0.7-7.4 1.6-14.6 6.3-20.2 8.9-10.7 13.4-30.4 10-43.8-3.8-14.9 5.2-30 20.1-33.7 13.5-3.4 28.6-16.7 33.8-29.6 5.7-14.2 21.9-21.1 36.1-15.4 12.9 5.2 33 3.4 44.7-4.1 6.3-3.9 13.7-5.1 21-3.5 7.2 1.7 13.4 6 17.3 12.3 7.4 11.7 24.7 22.1 38.5 23 15.3 1 26.9 14.3 25.9 29.5-1 13.9 6.9 32.4 17.6 41.4 5.7 4.7 9.2 11.4 9.8 18.8 0.7 7.4-1.5 14.6-6.3 20.2-8.9 10.7-13.4 30.4-10 43.8 3.8 14.9-5.2 30-20.1 33.7-13.4 3.4-28.6 16.7-33.8 29.6-2.7 6.8-8 12.2-14.8 15.1-6.9 3-14.4 3-21.3 0.3-12.9-5.2-32.9-3.4-44.7 4-4.4 2.9-9.5 4.3-14.6 4.3zm-19.5-267.1c-9.7 0.1-18.9 5.9-22.7 15.4-5.5 13.7-21.7 27.9-36.1 31.5-13 3.3-21 16.6-17.7 29.7 3.7 14.3-1.1 35.3-10.6 46.7-4.2 5-6.2 11.3-5.6 17.8 0.6 6.6 3.7 12.4 8.7 16.6 11.3 9.5 19.8 29.3 18.8 44.1-0.9 13.4 9.3 25.1 22.7 26 14.8 1 33.3 12 41.2 24.6 3.4 5.4 8.9 9.3 15.2 10.7 6.4 1.5 12.9 0.4 18.4-3.1 12.6-7.9 34-9.8 47.8-4.3 6 2.4 12.6 2.3 18.7-0.2 6-2.6 10.6-7.3 13-13.4 5.5-13.7 21.7-27.9 36.1-31.5 13.1-3.3 21-16.6 17.7-29.7-3.6-14.3 1.2-35.3 10.7-46.7 4.1-5 6.1-11.3 5.5-17.8-0.6-6.6-3.6-12.4-8.6-16.6-11.4-9.5-19.9-29.3-18.9-44.1 0.9-13.4-9.3-25.1-22.7-26-14.8-1-33.3-12-41.2-24.6-7.1-11.3-22.2-14.8-33.6-7.6-12.6 7.9-34 9.8-47.8 4.3-2.9-1.2-6-1.7-9-1.7z"/>
		<path id="Layer" fill-rule="evenodd" class="s7" d="m1365.8 416.1q-1.5 0-3-0.1c-6.9-0.8-13-4.2-17.3-9.6-8-10.1-25.1-17.8-37.9-17.2-14.4 0.6-26.4-10.5-27.1-24.7-0.5-12.9-9.8-29.2-20.5-36.3-5.8-3.8-9.7-9.6-11.1-16.4-1.4-6.8-0.1-13.7 3.7-19.5 7.1-10.7 9.2-29.3 4.7-41.4-2.4-6.4-2.2-13.5 0.7-19.8 2.9-6.3 8-11.1 14.5-13.5 12-4.6 24.6-18.4 28.1-30.8 1.8-6.6 6.1-12.2 12.2-15.6 6-3.4 13-4.3 19.6-2.5 12.5 3.5 30.8-0.3 40.9-8.3 5.4-4.3 12.1-6.3 19-5.5 6.9 0.8 13.1 4.2 17.4 9.6 8 10.1 25.1 17.8 37.9 17.2 14.4-0.6 26.4 10.5 27 24.7 0.6 12.9 9.8 29.2 20.6 36.3 11.9 7.9 15.2 24 7.3 35.9-7.1 10.7-9.2 29.3-4.6 41.4 5 13.4-1.8 28.3-15.2 33.3-12.1 4.6-24.7 18.4-28.1 30.8-1.8 6.6-6.2 12.2-12.2 15.6-6 3.4-13 4.3-19.7 2.5-12.4-3.5-30.7 0.3-40.8 8.3-4.6 3.7-10.2 5.6-16.1 5.6zm-56.9-30.3c13.6 0 30.9 8.1 39.2 18.5 3.8 4.7 9.1 7.7 15.1 8.4 6 0.6 11.9-1.1 16.6-4.8 10.8-8.6 30.5-12.6 43.8-9 5.8 1.6 11.9 0.9 17.1-2.1 5.3-3 9.1-7.8 10.7-13.6 3.6-13.3 17.2-28.1 30.1-33 11.7-4.4 17.6-17.4 13.2-29-4.8-13-2.6-32.9 5-44.5 6.9-10.3 4-24.3-6.4-31.2-11.5-7.6-21.4-25.1-22-38.9-0.6-12.4-11.2-22.1-23.6-21.5-13.8 0.6-32-7.7-40.7-18.5-3.7-4.7-9.1-7.6-15.1-8.3-6-0.7-11.9 1-16.6 4.7-10.8 8.6-30.4 12.7-43.8 9-5.8-1.6-11.8-0.8-17.1 2.1-5.3 3-9 7.8-10.6 13.6-3.7 13.4-17.2 28.2-30.2 33-5.6 2.1-10.1 6.3-12.6 11.8-2.5 5.5-2.7 11.7-0.6 17.3 4.9 12.9 2.6 32.9-5 44.4-3.3 5-4.5 11-3.2 16.9 1.2 6 4.6 11 9.6 14.4 11.5 7.6 21.4 25 22.1 38.8 0.5 12.4 11.1 22.1 23.5 21.6q0.7-0.1 1.5-0.1z"/>
		<path id="Layer" fill-rule="evenodd" class="s8" d="m1379.1 408.3c-6.1 0-12.1-2.3-16.9-6.9-8.6-8.3-25.2-13.4-37.1-11.4-6.3 1.1-12.8-0.3-18.1-4.1-5.3-3.7-8.9-9.3-10-15.6-2.1-11.9-12.5-25.8-23.3-31.1-12.1-5.9-17.1-20.5-11.2-32.5 5.3-10.8 5-28.2-0.6-38.8-3-5.7-3.6-12.3-1.7-18.5 1.9-6.2 6.1-11.3 11.8-14.4 10.6-5.6 20.6-19.8 22.3-31.7 0.9-6.4 4.3-12.1 9.5-16 5.2-3.9 11.6-5.6 18-4.7 11.9 1.7 28.3-3.9 36.7-12.6 9.3-9.6 24.8-9.8 34.4-0.5 8.6 8.3 25.3 13.5 37.1 11.4 6.4-1.1 12.8 0.3 18.1 4 5.4 3.8 8.9 9.4 10 15.7 2.1 11.9 12.5 25.8 23.3 31.1 12.1 5.9 17.1 20.4 11.2 32.5-5.3 10.8-5 28.2 0.6 38.8 3 5.7 3.6 12.3 1.7 18.5-1.9 6.2-6.1 11.3-11.8 14.4-10.6 5.6-20.6 19.8-22.3 31.7-0.9 6.4-4.3 12.1-9.5 16-5.2 3.9-11.6 5.6-18 4.7-11.9-1.7-28.3 3.9-36.7 12.6-4.8 4.9-11.1 7.4-17.5 7.4zm-48.5-22.1c11.9 0 26.1 5.2 34 12.8 8.3 8.1 21.6 7.9 29.6-0.5 9-9.3 26.8-15.3 39.6-13.5 5.5 0.8 11-0.7 15.5-4 4.5-3.4 7.4-8.3 8.2-13.8 1.8-12.9 12.6-28.2 24.1-34.3 4.9-2.6 8.5-7 10.2-12.4 1.6-5.3 1.1-11-1.5-15.9-6.1-11.5-6.4-30.2-0.7-41.9 5.1-10.4 0.8-22.9-9.6-28-11.7-5.7-22.9-20.7-25.2-33.5-0.9-5.5-4-10.3-8.6-13.5-4.6-3.2-10.2-4.5-15.6-3.5-12.8 2.2-30.7-3.3-40-12.3-8.3-8.1-21.6-7.9-29.7 0.4-9 9.3-26.8 15.4-39.6 13.6-5.5-0.8-11 0.7-15.5 4-4.5 3.4-7.4 8.3-8.2 13.8-1.8 12.9-12.6 28.2-24 34.3-5 2.6-8.6 7-10.2 12.3-1.7 5.4-1.1 11.1 1.5 16 6 11.5 6.3 30.2 0.6 41.9-5 10.3-0.7 22.9 9.6 28 11.7 5.7 23 20.7 25.2 33.5 1 5.5 4 10.3 8.6 13.5 4.6 3.2 10.2 4.5 15.7 3.5 1.9-0.3 3.9-0.5 6-0.5z"/>
		<path id="Layer" fill-rule="evenodd" class="s9" d="m1392.1 398.5c-4.6 0-9.3-1.4-13.3-4.3-8.9-6.4-25.1-8.9-35.5-5.5-11.9 3.9-24.8-2.6-28.7-14.5-3.4-10.4-15.1-22-25.5-25.4-5.7-1.8-10.4-5.8-13.2-11.2-2.8-5.4-3.3-11.6-1.4-17.3 3.3-10.4 0.7-26.7-5.7-35.5-3.6-4.9-5-10.9-4.1-16.9 0.9-6 4.1-11.3 9-14.9 8.8-6.4 16.3-21.1 16.3-32.1-0.1-12.5 10.1-22.7 22.6-22.7 11 0 25.6-7.6 32-16.4 3.6-4.9 8.8-8.2 14.8-9.1 6-1 12 0.4 16.9 4 8.9 6.4 25.2 8.9 35.6 5.5 5.7-1.9 11.9-1.4 17.3 1.4 5.4 2.7 9.4 7.4 11.3 13.1 3.4 10.4 15.1 22 25.5 25.4 5.8 1.8 10.5 5.8 13.2 11.3 2.8 5.4 3.3 11.5 1.5 17.3-3.4 10.4-0.8 26.6 5.7 35.5 3.5 4.8 5 10.8 4 16.9-0.9 6-4.1 11.2-9 14.8-8.8 6.4-16.3 21.1-16.2 32.1 0 6-2.4 11.7-6.7 16-4.2 4.3-9.9 6.7-16 6.7-10.9 0.1-25.6 7.6-32 16.4-4.4 6.2-11.4 9.4-18.4 9.4zm-38.1-14.7c9.6 0 20 2.8 26.8 7.7 8.6 6.3 20.8 4.3 27-4.3 7.1-9.8 22.6-17.8 34.7-17.8 5.2 0 10-2 13.7-5.7 3.6-3.7 5.6-8.6 5.6-13.7 0-12.1 7.9-27.7 17.7-34.8 8.6-6.3 10.5-18.4 4.2-27.1-7.2-9.7-9.9-27-6.2-38.5 1.5-4.9 1.1-10.1-1.3-14.7-2.3-4.6-6.3-8.1-11.2-9.6-11.5-3.7-23.9-16.1-27.7-27.5-1.6-4.9-5-8.9-9.6-11.3-4.7-2.3-9.9-2.7-14.8-1.1-11.5 3.7-28.7 1-38.5-6-4.2-3-9.3-4.3-14.4-3.4-5.2 0.8-9.6 3.5-12.7 7.7-7 9.8-22.6 17.8-34.7 17.8-10.7 0-19.3 8.7-19.3 19.4 0 12.1-7.9 27.7-17.6 34.8-4.2 3-6.9 7.5-7.7 12.7-0.8 5.1 0.4 10.2 3.5 14.4 7.1 9.7 9.9 27 6.2 38.5-1.6 4.9-1.2 10.1 1.2 14.7 2.4 4.7 6.4 8.1 11.3 9.6 11.5 3.7 23.9 16.1 27.6 27.6 3.3 10.1 14.3 15.7 24.4 12.3 3.5-1.1 7.6-1.7 11.8-1.7z"/>
		<path id="Layer" fill-rule="evenodd" class="s10" d="m1403.7 387.2c-3.3 0-6.5-0.7-9.5-2.3-9-4.5-24.2-4.5-33.2 0-5 2.6-10.8 3-16.2 1.3-5.3-1.8-9.7-5.5-12.3-10.5-4.6-9-16.9-17.9-26.8-19.5-5.6-0.9-10.5-3.9-13.8-8.5-3.3-4.6-4.7-10.2-3.8-15.7 1.6-10-3.1-24.4-10.3-31.6-3.9-4-6.1-9.3-6.1-14.9 0-5.7 2.2-11 6.1-15 7.2-7.1 11.9-21.6 10.3-31.6-0.9-5.5 0.5-11.1 3.8-15.7 3.3-4.6 8.2-7.6 13.8-8.5 10-1.6 22.3-10.5 26.8-19.5 2.6-5 7-8.7 12.3-10.5 5.4-1.7 11.2-1.3 16.2 1.3 9 4.5 24.2 4.5 33.2 0 5-2.6 10.7-3 16.1-1.3 5.4 1.8 9.8 5.5 12.3 10.5 4.6 9 16.9 17.9 26.9 19.5 11.5 1.8 19.4 12.7 17.6 24.2-1.6 10 3.1 24.4 10.2 31.6 4 4 6.2 9.3 6.2 15 0 5.6-2.2 10.9-6.2 14.9-7.1 7.2-11.8 21.6-10.2 31.6 1.8 11.5-6.1 22.4-17.6 24.2-10 1.6-22.3 10.5-26.9 19.5-2.5 5-6.9 8.7-12.3 10.5q-3.3 1-6.6 1zm-26.1-9.1c6.5 0 13.1 1.3 18.1 3.9 4.2 2.1 9 2.5 13.6 1 4.5-1.5 8.2-4.6 10.3-8.8 5.1-10 18.3-19.6 29.3-21.3 9.7-1.6 16.4-10.7 14.8-20.4-1.7-11.1 3.3-26.5 11.2-34.5 3.4-3.3 5.2-7.8 5.2-12.5 0-4.8-1.8-9.3-5.2-12.6-7.9-8-12.9-23.4-11.2-34.5 1.6-9.7-5.1-18.8-14.8-20.4-11-1.7-24.2-11.3-29.3-21.3-2.1-4.2-5.8-7.3-10.3-8.8-4.6-1.5-9.4-1.1-13.6 1.1-10 5.1-26.3 5.1-36.2 0-4.3-2.2-9.1-2.6-13.6-1.1-4.6 1.5-8.2 4.6-10.4 8.8-5.1 10-18.2 19.6-29.3 21.3-4.7 0.8-8.8 3.3-11.6 7.2-2.8 3.8-3.9 8.5-3.2 13.2 1.8 11.1-3.3 26.5-11.2 34.5-3.3 3.3-5.2 7.8-5.2 12.6 0 4.7 1.9 9.2 5.2 12.5 7.9 8 13 23.4 11.2 34.5-0.7 4.7 0.4 9.4 3.2 13.2 2.8 3.9 6.9 6.4 11.6 7.2 11.1 1.7 24.2 11.3 29.3 21.3 2.2 4.2 5.8 7.3 10.4 8.8 4.5 1.5 9.3 1.1 13.6-1 5-2.6 11.5-3.9 18.1-3.9z"/>
		<path id="Layer" class="s0" d="m1444.8 304.5l-2.9-1c-4.4-1.4-9.6-2-15.4-2-14.3 0.1-30.7 4.7-43.9 12.4-3.8-22.7-2-48.9-1.5-55.7 5.5 3.1 12.1 8.9 16.4 24.9l0.6 2.1 0.4-2.1c3.2-17.8-9-29.4-9.4-29.9 0.5 0 3.7 0.1 8.3 2.2 4.3 2 10.7 6.3 17 15.4l1.3 2-0.5-2.3c-4.6-22.9-23.3-27.5-24.4-27.8 0.3-0.2 6.3-4.5 24 1.4l1.7 0.5-1.2-1.3c-10.9-12.7-27.3-9.3-29.1-8.9v-0.1c0.7-1.4 3.3-4.9 8.8-8.7l1.7-1.2-2 0.3c-9 1.3-13.9 5.5-15 7-0.1-2-0.5-5.6-1.7-8.3l-0.4-1-0.5 1c-1.2 2.7-1.6 6.3-1.7 8.3-1.1-1.5-6-5.7-14.9-7l-2-0.3 1.6 1.2c5.4 3.7 8.1 7.2 8.8 8.8-1.7-0.4-18.3-3.8-29.1 8.9l-1.1 1.3 1.6-0.5c17.8-5.9 23.7-1.6 24-1.4-1.1 0.3-19.7 4.9-24.4 27.7l-0.5 2.4 1.3-2c6.3-9.1 12.7-13.4 17-15.4 4.4-2 7.6-2.2 8.3-2.2-0.5 0.5-12.6 12.1-9.4 29.9l0.4 2.1 0.6-2.1c4.3-16 10.9-21.8 16.4-24.9 0.6 6.8 2.3 33-1.5 55.7-13.2-7.7-29.5-12.3-43.9-12.4q-0.3 0-0.6 0c-5.6 0-10.5 0.7-14.8 2l-2.9 1h3.1c25 0 40.2 6.2 57.6 16.8q-0.6 0.5-1.3 1c-7.2 5.1-23.9 17.2-32.2 17.2-1.5 0-2.8-0.2-4-0.5l-1.6-0.5 1.3 1.4c1 1.2 3.3 3.9 7.6 3.9 10.2 0 24.3-9.7 32.7-15.6 1.6-1.1 3-2 4.1-2.7 1.1 0.7 2.5 1.6 4 2.7 8.4 5.9 22.5 15.7 32.8 15.7 4.2 0 6.6-2.8 7.6-4l1.2-1.4-1.6 0.5q-1.8 0.5-4 0.5c-8.2 0-25-12-32.2-17.2q-0.7-0.5-1.3-0.9c17.5-10.7 32.6-16.9 57.7-16.9 0 0 3 0 3 0z"/>
	</g>
</svg>