<?xml version="1.0" encoding="UTF-8"?>
<svg id="Layer_2" data-name="Layer 2" xmlns="http://www.w3.org/2000/svg" viewBox="0 0 150.3 150.14">
  <defs>
    <style>
      .cls-1 {
        fill: #3fb55c;
      }

      .cls-1, .cls-2 {
        stroke-width: 0px;
      }

      .cls-2 {
        fill: #013c29;
      }
    </style>
  </defs>
  <g id="Layer_1-2" data-name="Layer 1">
    <g>
      <path class="cls-2" d="m135.57,150.14c-.08-.24-.26-.36-.5-.38-.97-.1-1.87-.45-2.75-.85-1.38-.61-2.58-1.46-3.65-2.52-2.62-2.6-5.24-5.21-7.85-7.82-3.48-3.48-6.96-6.96-10.44-10.43-.34-.34-.67-.7-.92-1.12-.6-1.01-.61-2.02-.05-3.05.2-.37.46-.7.75-1,1.12-1.16,2.25-2.32,3.44-3.42.1-.09.19-.18.27-.28.3-.36.29-.61,0-.98-.09-.11-.2-.21-.3-.31-1.29-1.2-2.55-2.43-3.73-3.74-.03-.04-.07-.08-.11-.11-.59-.6-.98-.63-1.62-.08-.96.82-1.93,1.64-2.93,2.42-5.56,4.32-11.72,7.54-18.39,9.77-3.31,1.11-6.69,1.91-10.14,2.42-1.52.23-3.05.39-4.59.49-.19.01-.39.04-.58.08-.74.13-1.12.53-1.21,1.28-.02.17-.02.34-.02.51,0,1.12-.51,1.93-1.49,2.43-1.04.53-2.11.55-3.17.03-1.03-.5-1.55-1.35-1.58-2.5,0-.2,0-.39-.02-.59-.07-.57-.36-.96-.94-1.11-.47-.12-.95-.15-1.43-.19-2.1-.2-4.19-.5-6.27-.89-3.8-.72-7.51-1.74-11.12-3.13-7.66-2.94-14.4-7.3-20.26-13.03-4.57-4.48-8.44-9.49-11.6-15.05-2.88-5.06-4.87-10.46-6.11-16.14-.57-2.6-.96-5.23-1.22-7.88-.06-.62-.11-1.25-.17-1.87,0-.1-.03-.21-.06-.31-.09-.34-.31-.53-.66-.58-.17-.02-.34-.01-.51,0-.78.09-1.47-.11-2.09-.58-.48-.37-.85-.84-1.22-1.32-.06-.08-.07-.25-.25-.19v-.16c.07-.04.08-.1.08-.16,0-.52,0-1.04,0-1.55,0-.07-.01-.13-.08-.16v-.16c.14.09.15-.05.19-.11.2-.31.41-.6.66-.88.8-.87,1.8-1.26,2.98-1.19.84.05.92-.03.98-.89.1-1.47.26-2.94.46-4.4.33-2.36.77-4.71,1.35-7.02,1.22-4.86,3.1-9.45,5.54-13.82,2.85-5.1,6.21-9.83,10.27-14.06,4.61-4.8,9.87-8.7,15.8-11.72,4.72-2.4,9.67-4.14,14.82-5.36,1.8-.43,3.61-.8,5.45-1.07,1.25-.18,2.51-.3,3.78-.35.21,0,.42-.02.62-.06.65-.1.9-.37.95-1.04.04-.44.03-.89.15-1.32.29-1.12.92-1.94,2.03-2.35,1.53-.57,4.13.38,4.24,2.86.01.26,0,.52,0,.78,0,.68.27.98.94,1.05.8.08,1.61.14,2.42.22,2.07.2,4.11.52,6.15.93,5.36,1.09,10.47,2.87,15.36,5.32,14.57,7.32,25.76,20.15,31.02,35.58,1.07,3.14,1.89,6.34,2.43,9.62.26,1.57.45,3.15.58,4.74.04.45.08.91.14,1.36.09.77.38,1.02,1.15,1.03.38,0,.75,0,1.13.07,2.01.35,3.21,3.08,1.94,4.87-.73,1.04-1.7,1.54-2.97,1.48-.14,0-.29-.02-.43-.01-.48.03-.68.2-.77.68-.07.37-.09.75-.12,1.13-.64,7.83-2.59,15.3-6.06,22.36-2.4,4.89-5.42,9.36-8.98,13.48-.12.14-.24.28-.34.43-.27.4-.26.67.04,1.03.09.11.2.21.3.31,1.31,1.22,2.58,2.48,3.8,3.78.12.12.23.25.36.36.32.27.59.27.92.01.1-.08.2-.17.29-.27,1.07-1.16,2.2-2.26,3.34-3.36.37-.36.76-.68,1.21-.92.98-.52,1.95-.5,2.91.06.38.22.71.49,1.01.79,2.2,2.18,4.4,4.35,6.59,6.53,2.8,2.79,5.6,5.59,8.39,8.39,1.23,1.23,2.44,2.47,3.65,3.72,1.59,1.65,2.74,3.54,3.26,5.79.11.46.21.92.2,1.39-.02.31-.03.62.08.92v.55c-.11.3-.09.61-.08.92,0,.18,0,.37-.03.55-.2,1.36-.6,2.67-1.16,3.92-1.29,2.85-3.31,4.96-6.22,6.18-1.12.47-2.3.76-3.5.94-.19.03-.36.07-.44.26h-3.29Zm-22.24-79.9c0-2.16,0-4.32,0-6.48,2.55,0,5.09,0,7.64,0,.4,0,.81.06,1.21.01.57-.08.77-.3.76-.88,0-.07,0-.13-.01-.2-.09-.75-.17-1.5-.26-2.25-.39-3.11-1.02-6.17-1.9-9.18-2.05-7.07-5.37-13.47-10.04-19.16-3.43-4.17-7.4-7.75-11.8-10.87-6.44-4.57-13.58-7.48-21.33-8.93-1.59-.3-3.19-.52-4.8-.69-.58-.06-1.17-.15-1.76-.11-.42.02-.59.18-.63.6-.03.27-.04.55-.04.82,0,2.49-.01,4.99-.02,7.48,0,.22,0,.44,0,.67-.4.04-.8-.06-1.2-.07-1.74-.01-3.48-.05-5.22.07,0-2.81-.05-5.61,0-8.42,0-.17,0-.34-.03-.51-.06-.39-.28-.6-.68-.63-.18-.02-.37-.02-.55,0-1.85.15-3.68.39-5.51.7-3.5.59-6.89,1.54-10.16,2.91-5.18,2.18-10.07,4.86-14.55,8.27-6.6,5.03-11.75,11.26-15.37,18.74-3.05,6.3-4.78,12.96-5.64,19.88-.05.39-.13.77-.1,1.17.03.35.18.52.52.58.25.05.49.04.74.03,2.77-.06,5.53-.02,8.3-.02,0,1.21.01,2.41.01,3.62,0,.95,0,1.9-.01,2.84-2.82,0-5.64.05-8.46-.03-.2,0-.39.01-.58.05-.33.07-.49.25-.53.59-.02.13-.02.26,0,.39.05.45.12.9.18,1.36.14,1.13.27,2.25.42,3.38.23,1.71.62,3.38,1.06,5.05,2.69,10.05,7.63,18.81,15.11,26.07,7.91,7.69,17.35,12.49,28.14,14.7,1.8.37,3.62.63,5.45.84.43.05.86.09,1.29.1.68.01.92-.23.95-.9,0-.14,0-.29,0-.43-.04-2.71-.01-5.43-.01-8.14h6.46c0,2.61.05,5.22-.02,7.83,0,.3-.01.6,0,.9.04.57.25.75.83.76.51.01,1.02-.06,1.52-.11,2.41-.25,4.81-.62,7.18-1.16,4.15-.94,8.15-2.31,11.94-4.24,5.94-3.03,11.24-6.94,15.9-11.72,6.26-6.42,10.56-13.98,13.05-22.59,1.02-3.55,1.7-7.18,2.1-10.85.04-.36.11-.72.08-1.09-.03-.48-.22-.67-.69-.74-.35-.05-.7,0-1.05,0-2.62.04-5.24,0-7.87,0Zm24.08,73.4c1.1-.01,2.11-.31,3.09-.79,2.73-1.35,3.62-4.31,3.18-6.56-.26-1.31-.86-2.41-1.8-3.35-3.98-3.97-7.96-7.95-11.94-11.92-1.18-1.18-2.36-2.37-3.53-3.55-.12-.12-.24-.24-.37-.34-.33-.25-.55-.25-.88.01-.18.15-.34.32-.51.49-1.37,1.38-2.74,2.76-4.11,4.14-1.03,1.03-2.09,2.05-3.12,3.08-.48.47-.47.75,0,1.23.02.02.04.04.06.05,1.17,1.16,2.34,2.31,3.5,3.48,3.59,3.58,7.17,7.16,10.76,10.73.67.67,1.32,1.37,2.06,1.97,1.06.85,2.26,1.33,3.63,1.34Z"/>
      <path class="cls-1" d="m.08,66.1c.07.04.08.1.08.16,0,.52,0,1.04,0,1.55,0,.07-.01.13-.08.16v-1.88Z"/>
      <path class="cls-1" d="m150.3,136.83c-.1-.3-.09-.61-.08-.92.03,0,.05-.02.08-.02v.94Z"/>
      <path class="cls-1" d="m150.3,138.31s-.05-.02-.08-.02c-.02-.31-.03-.62.08-.92v.94Z"/>
      <path class="cls-1" d="m63.92,21.06c1.74-.12,3.48-.08,5.22-.07.4,0,.8.11,1.2.07.94.11,1.89.2,2.83.34,2.79.41,5.53,1.02,8.23,1.86,5.31,1.67,10.16,4.18,14.51,7.66,3.53,2.83,6.55,6.13,9.12,9.84,2.13,3.07,3.99,6.3,5.32,9.81,1.62,4.26,2.49,8.68,2.97,13.19,0,2.16,0,4.32,0,6.48-.06.61-.12,1.22-.19,1.83-.16,1.45-.45,2.88-.76,4.31-.85,3.85-2.07,7.57-3.76,11.12-2.53,5.3-5.96,9.91-10.36,13.8-4.61,4.07-9.86,7.07-15.58,9.28-3.23,1.25-6.61,1.88-10.03,2.35-.76.11-1.52.21-2.28.31-2.15,0-4.31,0-6.46,0-.43-.11-.87-.18-1.31-.24-2.03-.24-4.05-.55-6.05-1.01-5.36-1.22-10.34-3.31-14.92-6.35-3.7-2.46-6.94-5.42-9.83-8.79-4.09-4.77-7.06-10.15-8.88-16.17-.93-3.07-1.54-6.19-1.88-9.38-.04-.36-.01-.73-.14-1.08,0-.95.01-1.9.01-2.84,0-1.21,0-2.41-.01-3.62.18-.56.23-1.15.3-1.73.19-1.66.45-3.31.8-4.94.98-4.56,2.61-8.87,4.95-12.91,2.63-4.55,5.98-8.51,9.93-11.97,4.55-3.99,9.7-6.94,15.45-8.84,3.77-1.25,7.64-1.97,11.59-2.32Zm42.97,46.19c-.04-1.43-.08-2.74-.21-4.04-.2-2.03-.53-4.03-1.05-6-2.61-9.8-8.12-17.56-16.54-23.21-6.12-4.11-12.92-6.24-20.28-6.58-2.11-.1-4.23-.02-6.33.23-2.52.3-4.99.82-7.4,1.59-7.5,2.42-13.78,6.66-18.75,12.77-5.55,6.82-8.48,14.66-8.9,23.43-.1,2.2,0,4.41.27,6.6.29,2.33.77,4.63,1.48,6.87,2.4,7.6,6.67,13.94,12.85,18.96,6.7,5.44,14.41,8.34,23.02,8.83,1.93.11,3.86.06,5.79-.12,2.17-.2,4.32-.56,6.43-1.12,8.14-2.16,14.96-6.44,20.36-12.9,6.15-7.36,9.15-15.9,9.26-25.34Z"/>
      <path class="cls-2" d="m67.57,91.57c-4.63-.02-8.54-1.03-12.26-2.86-3.38-1.67-6.39-3.88-9.21-6.37-3.86-3.42-7.14-7.35-10.01-11.63-.38-.56-.75-1.13-1.11-1.7-.28-.44-.49-.92-.59-1.44-.16-.82.02-1.58.47-2.28.99-1.55,2.02-3.07,3.11-4.56,2.6-3.54,5.48-6.81,8.83-9.66,3.04-2.58,6.34-4.76,9.99-6.38,2.18-.97,4.45-1.64,6.81-1.99,3.74-.55,7.41-.19,11.01.96,2.9.93,5.58,2.32,8.11,4,4.25,2.81,7.91,6.26,11.15,10.18,1.91,2.32,3.65,4.76,5.26,7.3.46.71.72,1.47.59,2.33-.06.42-.21.81-.44,1.16-2.63,4.16-5.56,8.08-9.04,11.58-3.49,3.51-7.4,6.43-11.83,8.64-2.43,1.21-4.99,2.05-7.68,2.45-1.2.18-2.41.28-3.16.27Zm-.26-6.45c.31-.02.88-.03,1.43-.09,2.08-.21,4.07-.75,5.98-1.6,2.94-1.31,5.59-3.08,8.05-5.15,3.69-3.11,6.73-6.8,9.51-10.71.3-.42.28-.67-.02-1.11-.95-1.34-1.92-2.67-2.96-3.95-2.74-3.39-5.82-6.41-9.37-8.95-2.16-1.54-4.45-2.82-6.97-3.64-2.76-.9-5.57-1.2-8.46-.81-2.2.3-4.29.98-6.27,1.99-2.87,1.46-5.46,3.31-7.85,5.45-3.27,2.92-6.03,6.28-8.56,9.84-.33.46-.33.74,0,1.22.42.6.84,1.19,1.28,1.78,2.55,3.41,5.38,6.56,8.67,9.27,2.12,1.74,4.37,3.3,6.87,4.47,2.67,1.25,5.46,1.97,8.67,1.99Z"/>
      <path class="cls-2" d="m67.02,78.85c-6.59-.03-11.85-5.42-11.79-11.91.07-6.58,5.4-11.74,11.8-11.73,6.61,0,11.85,5.46,11.79,11.94-.06,6.42-5.35,11.7-11.8,11.7Zm0-6.47c2.92,0,5.33-2.4,5.34-5.33.01-2.95-2.39-5.37-5.33-5.38-2.95-.01-5.34,2.38-5.35,5.35,0,2.96,2.38,5.36,5.34,5.36Z"/>
    </g>
  </g>
</svg>