<?xml version="1.0" encoding="UTF-8"?>
<svg id="Layer_2" data-name="Layer 2" xmlns="http://www.w3.org/2000/svg" viewBox="0 0 140.27 135.1">
  <defs>
    <style>
      .cls-1 {
        fill: #023c29;
      }

      .cls-1, .cls-2 {
        stroke-width: 0px;
      }

      .cls-2 {
        fill: #3eb55b;
      }
    </style>
  </defs>
  <g id="Layer_1-2" data-name="Layer 1">
    <g>
      <path class="cls-1" d="m140.27,113.87v1.64c-.12.38-.17.78-.32,1.15-.94,2.45-2.18,4.73-3.77,6.83-.31.41-.65.78-1.05,1.1-.91.74-1.95,1.09-3.12,1.01-.68-.05-1.33-.23-1.96-.5-.35-.15-.7-.28-1.06-.39-1.06-.32-2.13-.42-3.21-.16-1.65.4-2.72,1.47-3.35,3.01-.35.85-.48,1.76-.55,2.67-.07.87-.33,1.69-.82,2.42-.8,1.19-1.97,1.8-3.35,2.03-2.71.44-5.43.5-8.15.09-1.12-.17-2.09-.64-2.86-1.48-.79-.88-1.17-1.93-1.28-3.09-.08-.84-.27-1.65-.63-2.41-.94-1.98-3.14-3.18-5.31-2.89-.68.09-1.31.32-1.93.61-.53.25-1.07.47-1.64.62-1.54.4-2.92.09-4.12-.95-.44-.38-.82-.8-1.18-1.25-.94-1.22-1.79-2.5-2.52-3.86-.51-.94-1-1.89-1.34-2.91-.27-.79-.38-1.6-.25-2.43.15-.92.61-1.68,1.25-2.35.36-.38.76-.71,1.18-1.02.8-.59,1.44-1.32,1.88-2.22,1.09-2.2.55-4.73-1.32-6.31-.57-.48-1.18-.6-1.89-.37-3.2,1.06-6.48,1.79-9.83,2.18-2.32.27-4.65.39-6.99.35-.85-.02-1.06.17-1.14,1.02-.2,2.23-.61,4.42-1.26,6.56-2.03,6.68-5.81,12.14-11.44,16.3-3.53,2.6-7.47,4.35-11.73,5.37-1.82.43-3.66.71-5.53.78-1.02,0-2.04,0-3.06,0-1.89-.09-3.76-.36-5.6-.82-5.97-1.48-11.13-4.41-15.41-8.83-5.63-5.83-8.52-12.83-8.78-20.92-.07-2.39.13-4.77.6-7.12,1.02-5.1,3.17-9.66,6.46-13.69,2.59-3.16,5.69-5.69,9.25-7.67.19-.11.39-.22.56-.35.29-.22.4-.51.28-.86-.06-.17-.12-.34-.2-.51-1.4-2.87-2.43-5.87-3.13-8.99-.05-.24-.12-.48-.19-.72-.16-.49-.51-.74-1.01-.79-.18-.02-.36-.02-.55-.02-5.53,0-11.07,0-16.6.01-.33,0-.65,0-.97-.08-.81-.19-1.47-1.2-.93-2.14.09-.15.18-.29.28-.43,1.82-2.5,3.61-5.02,5.47-7.49.13-.17.24-.34.34-.53.16-.32.16-.66,0-.98-.08-.16-.18-.32-.29-.46-1.88-2.47-3.67-5.01-5.49-7.53-.15-.2-.28-.41-.38-.64-.33-.81.11-1.69.95-1.91.23-.06.46-.08.7-.08,5.42,0,10.83,0,16.25.01.38,0,.76,0,1.14-.01.52-.02.89-.28,1.08-.77.07-.18.13-.37.18-.56,1.34-4.88,3.16-9.58,5.64-14,3.93-7,9.22-12.74,15.95-17.13,4.33-2.82,9.01-4.91,13.93-6.47,4.58-1.45,9.25-2.32,14.05-2.45.1.04.2.03.31.03.72-.03,1.43-.04,2.15,0,.19,0,.39.05.58-.01,1.45.03,2.89.15,4.33.32,2.04.23,4.05.6,6.04,1.08,6.76,1.64,12.97,4.49,18.6,8.57,8.15,5.91,14.2,13.49,17.98,22.85,2.34,5.78,3.49,11.81,3.72,18.03.12,3.28-.08,6.54-.6,9.79-.59,3.72-1.58,7.33-2.95,10.84-.72,1.85-1.54,3.65-2.45,5.41-.17.33-.36.66-.46,1.02.07.03.11.06.16.07,1.87.7,2.97,2.05,3.36,3.99.11.57.17,1.16.29,1.73.51,2.42,2.52,4.03,4.99,4.04.94,0,1.83-.22,2.68-.62.52-.24,1.05-.46,1.61-.61,1.59-.44,2.99-.11,4.22.98.42.37.79.79,1.14,1.24,1.1,1.43,2.07,2.95,2.88,4.56.42.84.85,1.68,1.08,2.59.43,1.69.05,3.17-1.16,4.44-.29.3-.61.57-.94.82-.86.66-1.6,1.42-2.11,2.38-.76,1.46-.78,2.92-.02,4.39.55,1.06,1.37,1.86,2.33,2.55.33.24.65.48.94.76.57.55,1,1.19,1.26,1.95.06.18,0,.39.14.56ZM71.48,3.22c-1.66-.04-3.31.05-4.96.21-1.05.1-2.1.23-3.14.39-2.52.38-4.98.99-7.4,1.79-3.17,1.04-6.2,2.41-9.09,4.07-3.36,1.93-6.45,4.24-9.28,6.89-1.52,1.42-2.93,2.93-4.26,4.53-2.14,2.58-4.01,5.34-5.59,8.3-1.51,2.83-2.74,5.77-3.65,8.85-.29.97-.59,1.95-.73,2.96-.11.84-.03,1.66.35,2.44.23.48.56.88.93,1.25.68.68,1.24,1.45,1.65,2.32.11.24.24.46.37.69,1.4,2.43,3.54,3.52,6.3,3.46.98-.02,1.95-.17,2.91-.33.77-.12,1.03-.43,1.15-1.22.13-.82.25-1.65.37-2.47.28-1.93.71-3.82,1.32-5.67,1.06-3.25,2.61-6.26,4.59-9.04,1.68-2.35,3.62-4.45,5.83-6.31,2.78-2.34,5.85-4.23,9.21-5.63,4.22-1.76,8.61-2.63,13.17-2.67.31,0,.62.05.94.05,1.15,0,2.29.11,3.43.27,2.08.28,4.12.77,6.12,1.42,2.29.74,4.49,1.7,6.58,2.89,2.3,1.3,4.43,2.85,6.38,4.64,1.69,1.56,3.21,3.28,4.56,5.15,2.38,3.32,4.1,6.96,5.17,10.9.5,1.84.85,3.71,1.03,5.6.12,1.22.2,2.44.2,3.67,0,1.26-.08,2.52-.21,3.78-.14,1.44-.37,2.87-.69,4.28-.66,2.89-1.71,5.63-3.12,8.24-1.46,2.69-3.25,5.13-5.35,7.35-1.07,1.13-2.22,2.17-3.43,3.15-3.61,2.91-7.63,5.04-12.08,6.36-2.45.72-4.95,1.15-7.49,1.29-1.81.1-3.62.01-5.43-.16-.34-.03-.67-.05-1.01-.09-.63-.07-1.27-.13-1.9-.19-.2-.02-.25.05-.23.26.03.21.16.38.26.57.3.53.62,1.06.9,1.6.96,1.84,1.73,3.77,2.31,5.77.6,2.07.96,4.19,1.13,6.33.05.65.28.87.94.89.05,0,.1,0,.16,0,1.16,0,2.32,0,3.48-.06,1.11-.06,2.21-.15,3.31-.28,1.41-.16,2.81-.39,4.2-.69,1.26-.27,2.52-.55,3.75-.95.76-.25.96-.62.77-1.4-.04-.16-.08-.33-.12-.49-.04-.17-.04-.34-.01-.51.06-.4.15-.79.29-1.17.89-2.44,2.11-4.71,3.61-6.83.41-.58.86-1.12,1.42-1.55.8-.61,1.7-.92,2.69-.93.82-.01,1.6.2,2.35.52,1.07.47,2.18.71,3.35.64,1.14-.07,2.13-.47,2.96-1.25.8-.76,1.27-1.71,1.55-2.76.18-.68.2-1.39.3-2.09.27-2.06,1.62-3.49,3.61-4.01.9-.23,1.82-.34,2.74-.39.66-.03,1.33-.03,2-.02.71,0,1.26-.27,1.63-.88.09-.15.17-.29.25-.44.71-1.31,1.36-2.64,1.97-4,1.06-2.38,1.94-4.81,2.62-7.32.56-2.08.99-4.18,1.27-6.32.17-1.28.3-2.56.35-3.85.08-2.29.06-4.59-.2-6.88-.15-1.39-.33-2.77-.59-4.14-.55-2.97-1.36-5.87-2.42-8.69-1.24-3.32-2.81-6.49-4.72-9.48-1.22-1.92-2.57-3.74-4.05-5.47-1.63-1.91-3.39-3.69-5.29-5.32-1.92-1.66-3.96-3.15-6.12-4.48-1.92-1.19-3.92-2.24-5.99-3.16-2.32-1.03-4.7-1.86-7.15-2.52-1.66-.44-3.34-.8-5.05-1.07-1.04-.16-2.09-.29-3.14-.4-.87-.09-1.74-.14-2.61-.19-.75-.05-1.51,0-2.27,0ZM9.72,103.63c-.01,15.48,12.75,28.28,28.05,28.45,15.86.17,28.99-12.5,29-28.39,0-15.94-12.79-28.52-28.17-28.69-15.71-.17-28.83,12.51-28.87,28.63Zm37.75-49.52c-2-.02-4.12.05-6.23-.03-.17,0-.34,0-.51.03-.44.06-.67.3-.7.75-.02.25-.01.5.01.74.17,1.56.43,3.1.81,4.62,1.14,4.58,3.25,8.67,6.19,12.35.55.69,1.21,1.16,2.03,1.45,2.53.9,4.9,2.13,7.1,3.66,1.7,1.18,3.26,2.53,4.68,4.02.53.56,1.14.99,1.89,1.21,2.19.63,4.42,1.03,6.69,1.18,2.46.16,4.9.03,7.33-.36,3.18-.52,6.21-1.5,9.06-2.98,6.27-3.26,10.96-8.08,14.1-14.41,2.04-4.11,3.1-8.48,3.2-13.08.05-2.3-.19-4.58-.66-6.84-1.36-6.44-4.31-12.03-9.08-16.6-5.76-5.52-12.68-8.38-20.63-8.75-2.09-.1-4.17.05-6.24.36-2.5.38-4.93,1.02-7.25,2.02-6.66,2.9-11.76,7.55-15.39,13.82-2.17,3.75-3.47,7.8-3.82,12.13-.03.31-.03.63-.02.94.03.5.25.73.75.79.29.04.57.03.86.02,1.85-.05,3.71-.03,5.56-.04,1.94,0,3.89,0,5.83,0,.36,0,.73,0,1.09-.06.43-.07.7-.32.85-.72.11-.32.19-.65.25-.98.3-1.54.78-3.03,1.51-4.42,2.23-4.21,5.69-6.93,10.22-8.31,2.47-.75,5-.97,7.54-.45,4.64.94,8.29,3.39,10.91,7.32,2.26,3.39,3.06,7.15,2.57,11.19-.26,2.11-.9,4.09-1.92,5.95-1.61,2.92-3.98,5.07-6.87,6.67-2.31,1.28-4.8,1.92-7.46,1.9-2.44-.02-4.76-.57-6.99-1.51-3.71-1.57-6.46-4.16-8.15-7.84-.69-1.5-1.16-3.07-1.45-4.69-.17-.93-.39-1.12-1.33-1.11-2.08.04-4.15,0-6.34.02Zm84.56,68.56c.61,0,.99-.16,1.32-.44.25-.21.45-.47.64-.73,1.19-1.67,2.18-3.46,2.98-5.35.1-.24.2-.48.28-.73.25-.79.05-1.47-.55-2.03-.18-.17-.38-.32-.58-.46-.85-.62-1.62-1.32-2.26-2.15-1.95-2.56-2.37-5.31-.96-8.25.68-1.42,1.73-2.54,2.95-3.5.19-.15.4-.3.57-.48.6-.63.8-1.33.43-2.18-.58-1.34-1.24-2.64-2.04-3.87-.53-.82-1.11-1.62-1.74-2.36-.62-.73-1.37-.9-2.25-.52-.14.06-.28.14-.42.21-1.62.89-3.35,1.23-5.18.96-2.81-.43-4.89-1.9-6.21-4.43-.57-1.08-.84-2.24-.92-3.45-.08-1.17-.7-1.9-1.76-2-1.87-.18-3.75-.24-5.63-.06-.61.06-1.22.12-1.81.28-.74.2-1.18.68-1.35,1.42-.04.19-.07.39-.08.58-.08,1.01-.29,1.99-.64,2.93-.64,1.7-1.64,3.11-3.19,4.09-1.89,1.2-3.94,1.42-6.1.98-.76-.15-1.48-.4-2.19-.7-.4-.17-.81-.29-1.25-.25-.66.06-1.14.43-1.51.94-1.23,1.71-2.28,3.53-3.12,5.46-.54,1.25-.42,1.81.54,2.77.56.57,1.2,1.05,1.76,1.61,2.23,2.22,3.03,4.88,2.28,7.95-.48,1.96-1.62,3.51-3.22,4.72-.32.25-.65.49-.94.77-.47.46-.59.99-.41,1.61.09.33.22.64.36.95.87,1.97,2.01,3.77,3.33,5.47.21.27.45.51.75.68.43.25.88.31,1.36.19.27-.07.51-.19.75-.33.98-.54,2.03-.92,3.14-1.01,3.48-.27,6.17,1.09,8.03,4.04.78,1.24,1.1,2.63,1.19,4.09.06.92.54,1.49,1.44,1.71.16.04.33.07.5.09,1.53.23,3.07.24,4.61.13.82-.06,1.64-.13,2.45-.29.84-.16,1.36-.66,1.53-1.52.09-.44.07-.88.12-1.32.24-2.06,1.05-3.85,2.58-5.25,1.99-1.82,4.34-2.52,7.01-2.11.87.13,1.69.43,2.47.83.35.18.72.31.94.32ZM65.4,51.16c1.84,0,3.68,0,5.52,0,.29,0,.57.02.86.07.61.09,1,.45,1.1,1.05.14.85-.18,1.57-1.17,1.76-.28.05-.56.09-.85.08-3.3,0-6.6,0-9.91,0-.46,0-.91.02-1.37-.05-.24-.03-.5-.02-.74.01-.85.09-.92.42-.78,1.11.58,2.84,1.92,5.28,4,7.3,1.34,1.3,2.88,2.28,4.62,2.94,2.19.83,4.44,1.1,6.76.74,1.7-.27,3.31-.82,4.81-1.67,1.87-1.06,3.41-2.49,4.6-4.28,1.35-2.02,2.07-4.26,2.25-6.67.1-1.4-.01-2.79-.34-4.15-.73-3.01-2.28-5.5-4.7-7.43-3.18-2.53-6.81-3.51-10.82-2.84-3.05.51-5.64,1.95-7.77,4.22-1.27,1.35-2.22,2.89-2.86,4.63-.28.77-.53,1.56-.59,2.38-.05.62.08.77.69.85.18.03.37.03.55,0,.16-.03.31-.03.47-.03,1.89,0,3.78,0,5.68,0Zm-60.76-6.67c.09.14.16.26.25.37,1.44,1.98,2.88,3.97,4.32,5.95.24.33.47.66.67,1.01.3.52.32,1.03.01,1.56-.19.33-.4.64-.63.95-1.43,1.94-2.8,3.93-4.28,5.84-.13.17-.19.35-.1.55.09.18.28.11.42.11,4.8,0,9.6,0,14.4.02.7,0,1.2-.26,1.61-.84,1.55-2.21,3.14-4.39,4.75-6.56.1-.14.2-.28.28-.42.16-.27.16-.55,0-.82-.07-.13-.15-.24-.24-.36-1.64-2.2-3.25-4.41-4.83-6.65-.37-.53-.84-.78-1.48-.77-1.04.02-2.09.02-3.13.02-3.85,0-7.7,0-11.55,0-.15,0-.31-.02-.49.04Zm18.53,18.51c-.01.23.03.43.08.64.67,2.8,1.55,5.52,2.64,8.18.23.57.46,1.14.74,1.68.14.27.35.46.66.49.18.02.36-.05.53-.11,1.82-.65,3.69-1.1,5.61-1.4.99-.15,1.98-.3,2.99-.35.57-.03,1.15-.02,1.72-.02,1.07,0,2.14.05,3.2.15.48.05.96.07,1.44.09.21,0,.24-.04.16-.23-.07-.17-.15-.34-.25-.49-.51-.8-1-1.62-1.46-2.45-1.35-2.44-2.39-5.02-3.1-7.72-.56-2.13-.9-4.31-1.02-6.51,0-.12-.02-.23-.06-.35-.09-.31-.3-.48-.62-.51-.16-.01-.31,0-.47,0-1.59,0-3.18,0-4.78,0-.25,0-.5,0-.74-.02-.75-.08-1.36.14-1.81.77-1.67,2.35-3.37,4.68-5.08,7-.25.34-.45.71-.39,1.14Z"/>
      <path class="cls-2" d="m39.67,135.02s0,.07.04.08h-3.13s.06-.04.04-.08c1.02,0,2.04,0,3.06,0Z"/>
      <path class="cls-2" d="m73.23.08s0,.04-.01.06c-.19.06-.39.02-.58.01-.72-.03-1.43-.02-2.15,0-.1,0-.21.02-.31-.03,0,0-.02-.02-.02-.02v-.03h3.07Z"/>
      <path class="cls-2" d="m71.48,3.22c.76,0,1.52-.04,2.27,0,.87.06,1.74.1,2.61.19,1.05.11,2.09.24,3.14.4,1.7.27,3.38.62,5.05,1.07,2.45.65,4.83,1.49,7.15,2.52,2.07.91,4.06,1.96,5.99,3.16,2.16,1.34,4.2,2.83,6.12,4.48,1.9,1.64,3.67,3.41,5.29,5.32,1.47,1.73,2.82,3.56,4.05,5.47,1.91,2.99,3.48,6.15,4.72,9.48,1.05,2.83,1.86,5.73,2.42,8.69.26,1.37.44,2.75.59,4.14.25,2.29.27,4.58.2,6.88-.04,1.29-.18,2.57-.35,3.85-.28,2.14-.71,4.24-1.27,6.32-.68,2.51-1.56,4.95-2.62,7.32-.61,1.36-1.26,2.7-1.97,4-.08.15-.17.3-.25.44-.37.62-.92.89-1.63.88-.67,0-1.33-.02-2,.02-.92.05-1.85.15-2.74.39-1.99.52-3.34,1.95-3.61,4.01-.09.7-.11,1.4-.3,2.09-.28,1.05-.75,2-1.55,2.76-.83.78-1.82,1.19-2.96,1.25-1.17.07-2.28-.17-3.35-.64-.75-.33-1.53-.53-2.35-.52-.99.02-1.89.32-2.69.93-.57.44-1.01.97-1.42,1.55-1.51,2.12-2.73,4.38-3.61,6.83-.14.38-.23.77-.29,1.17-.02.17-.03.34.01.51.04.16.08.33.12.49.19.78,0,1.16-.77,1.4-1.23.4-2.49.68-3.75.95-1.39.29-2.79.53-4.2.69-1.1.13-2.2.21-3.31.28-1.16.06-2.32.06-3.48.06-.05,0-.1,0-.16,0-.66-.01-.88-.24-.94-.89-.17-2.15-.54-4.26-1.13-6.33-.58-2-1.35-3.92-2.31-5.77-.28-.54-.6-1.07-.9-1.6-.1-.18-.23-.35-.26-.57-.03-.21.03-.28.23-.26.63.06,1.27.12,1.9.19.34.04.67.06,1.01.09,1.81.17,3.62.26,5.43.16,2.54-.14,5.05-.56,7.49-1.29,4.45-1.32,8.47-3.44,12.08-6.36,1.21-.98,2.36-2.02,3.43-3.15,2.1-2.22,3.89-4.66,5.35-7.35,1.41-2.61,2.46-5.35,3.12-8.24.32-1.41.55-2.84.69-4.28.12-1.26.21-2.52.21-3.78,0-1.22-.08-2.45-.2-3.67-.19-1.9-.53-3.77-1.03-5.6-1.07-3.94-2.79-7.58-5.17-10.9-1.34-1.87-2.86-3.59-4.56-5.15-1.94-1.8-4.07-3.34-6.38-4.64-2.1-1.19-4.29-2.15-6.58-2.89-2-.65-4.04-1.14-6.12-1.42-1.14-.15-2.28-.27-3.43-.27-.31,0-.62-.05-.94-.05-4.56.04-8.96.91-13.17,2.67-3.36,1.41-6.43,3.29-9.21,5.63-2.21,1.86-4.15,3.97-5.83,6.31-1.99,2.78-3.53,5.79-4.59,9.04-.6,1.85-1.04,3.74-1.32,5.67-.12.82-.24,1.65-.37,2.47-.13.79-.39,1.09-1.15,1.22-.96.16-1.93.31-2.91.33-2.76.06-4.9-1.03-6.3-3.46-.13-.23-.26-.45-.37-.69-.41-.87-.96-1.64-1.65-2.32-.37-.37-.7-.77-.93-1.25-.38-.78-.46-1.6-.35-2.44.13-1.01.44-1.98.73-2.96.91-3.07,2.14-6.02,3.65-8.85,1.58-2.95,3.45-5.72,5.59-8.3,1.33-1.6,2.74-3.11,4.26-4.53,2.83-2.65,5.92-4.95,9.28-6.89,2.89-1.66,5.92-3.03,9.09-4.07,2.42-.79,4.88-1.4,7.4-1.79,1.04-.16,2.09-.29,3.14-.39,1.65-.16,3.3-.25,4.96-.21Z"/>
      <path class="cls-2" d="m65.4,51.16c-1.89,0-3.78,0-5.68,0-.16,0-.31,0-.47.03-.18.04-.36.03-.55,0-.6-.09-.74-.23-.69-.85.06-.83.31-1.61.59-2.38.64-1.74,1.59-3.28,2.86-4.63,2.13-2.26,4.72-3.71,7.77-4.22,4.01-.67,7.64.31,10.82,2.84,2.42,1.93,3.98,4.42,4.7,7.43.33,1.37.45,2.76.34,4.15-.17,2.41-.9,4.65-2.25,6.67-1.19,1.79-2.73,3.21-4.6,4.28-1.5.85-3.11,1.41-4.81,1.67-2.32.36-4.57.09-6.76-.74-1.74-.66-3.29-1.65-4.62-2.94-2.08-2.02-3.42-4.46-4-7.3-.14-.69-.07-1.02.78-1.11.25-.03.5-.04.74-.01.46.06.91.04,1.37.05,3.3,0,6.6,0,9.91,0,.29,0,.57-.03.85-.08.99-.19,1.31-.91,1.17-1.76-.1-.6-.49-.96-1.1-1.05-.28-.04-.57-.07-.86-.07-1.84,0-3.68,0-5.52,0Z"/>
      <path class="cls-2" d="m23.17,63c-.05-.43.14-.8.39-1.14,1.71-2.32,3.41-4.65,5.08-7,.44-.62,1.06-.84,1.81-.77.25.03.5.02.74.02,1.59,0,3.18,0,4.78,0,.16,0,.31,0,.47,0,.32.03.53.19.62.51.03.11.05.23.06.35.12,2.2.46,4.38,1.02,6.51.71,2.7,1.75,5.27,3.1,7.72.46.83.95,1.65,1.46,2.45.1.15.18.32.25.49.08.19.04.23-.16.23-.48-.02-.96-.04-1.44-.09-1.06-.11-2.13-.16-3.2-.15-.57,0-1.15,0-1.72.02-1,.05-1.99.2-2.99.35-1.91.29-3.78.74-5.61,1.4-.17.06-.35.13-.53.11-.31-.03-.52-.22-.66-.49-.28-.55-.51-1.12-.74-1.68-1.09-2.66-1.97-5.39-2.64-8.18-.05-.2-.09-.41-.08-.64Z"/>
      <path class="cls-1" d="m39.76,96.29c0,1.76,0,3.52,0,5.28,0,.61-.02,1.23-.04,1.84,0,.05,0,.1-.01.16-.08.91-.52,1.36-1.44,1.45-.26.02-.52.02-.78.02-4.1,0-8.19,0-12.29-.01-.33,0-.65,0-.97-.08-.72-.17-1.1-.66-1.1-1.41,0-.73.37-1.21,1.08-1.38.27-.06.54-.09.81-.09,2.6,0,5.19,0,7.79.01.86,0,1.72.04,2.58.05.17,0,.34,0,.51-.01.58-.07.87-.35.9-.94.03-.49.01-.99.01-1.49,0-3.52,0-7.05-.01-10.57,0-.34.04-.68.15-1,.18-.49.54-.75,1.06-.8.13-.01.26-.01.39,0,.61.03,1.03.34,1.22.93.12.36.14.74.14,1.12,0,2.31,0,4.62,0,6.93Z"/>
      <path class="cls-1" d="m39.77,80.39c.02.53,0,1.07-.05,1.6-.09,1.18-1.33,1.77-2.31,1.1-.39-.26-.57-.65-.58-1.1-.02-1.08-.03-2.16,0-3.24.03-.83.62-1.33,1.48-1.33.8,0,1.34.51,1.4,1.33.02.31.05.62.06.94,0,.23,0,.47,0,.7Z"/>
      <path class="cls-1" d="m39.78,126.9c.02.38-.04.92-.08,1.47-.06.83-.6,1.33-1.4,1.32-.85,0-1.44-.52-1.47-1.35-.03-1.07-.02-2.14,0-3.21,0-.51.21-.95.71-1.17.54-.24,1.09-.26,1.61.06.29.18.46.46.51.8.09.63.12,1.27.13,2.08Z"/>
      <path class="cls-1" d="m15.11,105.09c-.53-.03-1.07-.03-1.6-.08-1.14-.1-1.7-1.13-1.21-2.17.22-.46.62-.65,1.09-.71.21-.03.42-.03.62-.03.83,0,1.67,0,2.5,0,.22,0,.44.03.65.11.49.19.78.54.85,1.07.13,1.01-.41,1.67-1.43,1.73-.49.03-.99,0-1.48,0,0,.02,0,.05,0,.07Z"/>
      <path class="cls-1" d="m61.44,102.11c.46,0,.91,0,1.37,0,.08,0,.16,0,.23,0,1.12.09,1.72,1.19,1.18,2.18-.26.47-.69.67-1.19.71-1.05.08-2.11.09-3.17,0-.73-.06-1.15-.4-1.31-.98-.1-.39-.08-.78.09-1.15.23-.52.67-.72,1.19-.74.53-.03,1.07,0,1.6,0,0,0,0,0,0-.01Z"/>
      <path class="cls-2" d="m113.25,117.14c-6.14-.12-10.86-4.95-10.73-11.02.12-5.79,4.91-10.57,11.03-10.4,6.03.17,10.59,5.18,10.37,11.09-.2,5.44-4.68,10.32-10.67,10.33Zm.03-18.48c-4.32-.02-7.79,3.4-7.82,7.7-.02,4.24,3.47,7.79,7.69,7.82,4.29.03,7.83-3.45,7.83-7.76,0-4.53-3.62-7.78-7.7-7.77Z"/>
    </g>
  </g>
</svg>