<svg width="681" height="693" viewBox="0 0 681 693" fill="none" xmlns="http://www.w3.org/2000/svg">
<g clip-path="url(#clip0_78_50)">
<path d="M681 0H0V693H681V0Z" fill="white"/>
<path d="M475.857 297.217C478.503 305.48 479.189 314.053 479.663 322.609C480.365 335.379 479.565 348.116 476.38 360.511C473.685 370.978 470.337 381.217 465.323 390.949C459.722 401.809 453.042 411.802 444.941 420.898C438.262 428.393 430.635 434.762 422.6 440.804C413.258 447.826 402.952 452.741 392.206 457.003C361.96 469.005 331.289 469.234 300.569 459.436C280.824 453.149 263.398 442.437 248.454 428.067C238.851 418.84 230.686 408.291 224.234 396.599C219.286 387.618 215.383 378.179 212.41 368.316C205.371 344.932 204.93 321.352 210.516 297.805C214.403 281.361 221.115 265.945 231.061 252.049C237.79 242.643 245.172 233.89 254.154 226.574C254.301 227.358 254.709 227.816 255.559 227.881C258.368 228.109 261.16 228.387 263.953 228.616C270.731 229.138 277.525 229.53 284.286 230.151C293.252 230.967 302.218 231.882 311.185 232.91C315.79 233.433 320.347 234.298 324.936 235.001C324.413 235.213 323.891 235.539 323.352 235.637C303.427 239.361 286.752 249.224 273.034 263.725C263.529 273.767 256.588 285.606 252.08 298.964C247.001 314.069 245.76 329.337 248.226 344.916C250.937 362.127 258.074 377.379 269.049 390.998C275.728 399.294 283.731 406.005 292.566 411.59C309.502 422.302 328.235 426.515 348.225 425.536C366.533 424.637 383.273 419.412 398.347 408.683C410.269 400.192 419.839 389.855 427.091 377.151C438.36 357.424 441.708 336.424 438.556 314.118C437.886 309.333 436.106 304.859 435.371 300.107C435.845 300.107 436.335 300.042 436.775 300.14C444.141 301.854 451.654 301.789 459.101 301.43C464.899 301.152 470.582 299.813 475.874 297.217H475.857Z" fill="#003B28"/>
<path d="M404.569 207.453C416.067 188.445 432.954 179.251 455.132 179.823C466.712 180.117 476.984 184.346 485.95 191.433C505.646 206.995 512.342 233.694 502.315 256.719C498.101 266.386 491.601 274.241 482.586 280.152C479.303 282.308 475.58 283.778 472.673 286.505C471.595 285.884 470.256 285.541 469.292 286.064C461.894 290.065 453.891 288.53 446.085 288.758C444.696 288.807 443.243 288.758 441.92 288.383C437.543 287.191 433.215 285.835 428.855 284.545C414.956 277.18 404.798 266.566 399.882 251.363C400.225 247.967 399.164 244.439 398.102 241.68C395.375 234.609 398.51 228.191 398.984 221.578C399.327 216.63 401.809 211.813 404.586 207.436L404.569 207.453ZM435.208 257.83C435.42 260.246 436.482 261.03 438.719 259.887C442.394 258.009 446.101 256.229 449.743 254.27C451.686 253.225 453.418 253.159 455.394 254.27C458.889 256.213 462.482 258.009 466.058 259.773C468.998 261.226 470.337 260.361 469.962 257.062C469.57 253.437 469.08 249.795 468.247 246.252C467.544 243.28 468.034 241.108 470.386 239.051C473.13 236.666 475.563 233.939 478.095 231.31C478.879 230.51 480.12 229.824 479.597 228.387C479.107 227.048 477.784 226.95 476.658 226.787C472.705 226.183 468.753 225.513 464.768 225.138C462.596 224.925 461.567 223.815 460.473 222.068C458.268 218.557 457.011 214.605 455.051 210.996C454.479 209.935 453.973 208.759 452.552 208.841C451.245 208.906 450.559 209.853 450.021 211.012C448.306 214.752 446.444 218.442 444.762 222.198C443.945 223.995 442.753 224.844 440.76 225.072C436.433 225.562 432.137 226.313 427.826 226.983C425.474 227.342 424.396 228.665 426.291 230.51C429.149 233.286 431.353 236.748 434.701 239.002C437.363 240.781 437.837 243.084 437.216 246.04C436.4 249.959 435.845 253.927 435.175 257.846L435.208 257.83Z" fill="#3EB55B"/>
<path d="M302.872 489.515C299.262 488.372 295.669 487.148 292.011 486.103C276.79 481.742 263.088 474.296 250.039 465.543C234.54 455.158 221.507 442.11 210.369 427.283C204.881 419.984 200.309 411.966 196.128 403.768C187.57 386.981 182.507 369.215 180.008 350.615C179.682 348.166 179.29 345.716 179.126 343.25C178.93 340.082 178.587 337.306 174.21 338.155C172.692 338.449 172.185 337.437 172.202 336C172.234 331.754 172.234 327.508 172.169 323.263C172.153 321.515 173.035 321.058 174.602 321.075C178.734 321.124 182.866 321.107 186.982 321.075C188.533 321.075 189.432 321.483 189.415 323.263C189.366 327.508 189.334 331.754 189.448 336C189.497 338.106 188.256 338.384 186.721 338.172C183.601 337.731 182.964 339.152 183.209 341.993C184.712 359.139 188.746 375.583 195.36 391.537C200.766 404.601 208.18 416.375 216.363 427.724C219.645 432.263 224.006 436.019 227.566 440.379C233.446 447.548 240.958 452.855 247.964 458.718C253.485 463.339 259.887 466.687 266.125 470.263C286.883 482.134 309.323 488.144 333.069 489.76C334.964 489.891 336.727 490.332 336.531 487.474C336.417 485.76 337.593 485.662 338.883 485.678C341.366 485.694 343.832 485.743 346.314 485.662C348.437 485.596 350.332 485.482 350.152 488.585C350.07 490.054 351.442 489.956 352.536 489.891C372.853 488.568 392.484 484.225 410.857 475.358C419.84 471.03 428.92 466.491 436.678 460.155C444.108 454.096 451.621 448.152 458.366 441.147C470.762 428.279 480.822 413.974 488.433 397.955C496.795 380.351 501.825 361.785 503.36 342.287C503.589 339.413 503.197 337.666 499.767 338.221C497.742 338.547 497.105 337.486 497.154 335.543C497.252 331.656 497.301 327.753 497.154 323.867C497.072 321.646 497.954 321.009 500.061 321.075C503.948 321.205 507.851 321.173 511.738 321.075C513.698 321.026 514.498 321.711 514.433 323.736C514.335 327.623 514.318 331.526 514.449 335.412C514.531 337.584 513.763 338.547 511.591 338.204C508.57 337.715 507.965 339.201 507.688 341.944C505.663 361.997 501.204 381.462 492.532 399.767C487.992 409.353 482.798 418.677 476.413 427.103C468.181 437.963 459.036 448.022 448.371 456.693C429.443 472.059 408.456 483.18 384.726 488.993C383.959 489.173 383.077 489.205 382.652 490.152C383.273 490.92 384.138 490.561 384.857 490.561C421.195 490.593 457.517 490.561 493.855 490.642C496.631 490.642 498.673 490.087 500.535 487.817C503.409 484.323 508.194 484.257 511.15 487.262C513.682 489.842 513.551 495.1 510.905 497.566C507.867 500.391 503.442 500.228 500.6 496.848C499.146 495.133 497.644 494.561 495.472 494.561C448.404 494.61 401.336 494.61 354.268 494.61C352.063 494.61 349.597 494.071 349.891 497.778C350.005 499.183 348.552 499.068 347.457 499.052C345.334 499.019 343.211 499.117 341.088 499.052C338.883 498.987 336.156 499.803 336.368 495.835C336.45 494.153 334.637 494.627 333.559 494.61C328.48 494.561 323.417 494.594 318.338 494.594C276.349 494.594 234.344 494.61 192.355 494.561C189.644 494.561 187.488 494.872 185.577 497.272C183.16 500.309 178.424 500.228 175.778 497.648C173.133 495.051 172.904 489.875 175.321 487.327C177.999 484.519 183.03 484.11 185.43 487.213C187.913 490.414 190.836 490.626 194.347 490.626C229.265 490.544 264.182 490.561 299.099 490.561C300.259 490.561 301.435 490.561 302.594 490.561C302.676 490.218 302.741 489.858 302.823 489.515H302.872ZM176.236 328.831C176.236 334.204 176.268 333.877 181.184 334.302C185.349 334.661 185.381 332.522 185.283 329.533C185.104 324.063 185.692 325.255 180.155 324.847C176.334 324.553 175.795 326.365 176.252 328.815L176.236 328.831ZM505.205 334.236C508.689 334.204 510.421 332.396 510.399 328.815C510.366 324.863 510.366 325.092 504.781 324.863C499.489 324.651 501.825 328.423 501.384 330.709C500.6 334.726 503.393 334.367 505.189 334.236H505.205Z" fill="#003B28"/>
<path d="M271.58 213.69C277.166 209.722 283.437 207.044 289.627 204.219C309.012 195.401 329.443 192.478 350.544 193.311C361.192 193.736 371.579 195.744 381.852 198.422C383.109 198.749 384.318 199.271 385.625 198.651C385.102 203.027 385.527 203.713 389.724 203.811C392.288 203.876 391.978 204.791 391.194 206.571C389.218 211.061 387.568 215.666 386.49 220.467C384.808 227.832 385.02 235.327 385.069 242.806C382.473 241.631 379.876 240.439 377.295 239.263C377.295 237.973 377.295 236.666 377.295 235.376C377.295 234.233 376.724 233.727 375.581 233.613C373.833 233.449 372.118 233.074 370.371 232.911C359.053 231.931 347.719 231.065 336.417 230.004C322.551 228.697 308.718 227.162 294.853 225.856C282.833 224.729 270.813 223.799 258.792 222.786C259.805 221.888 260.818 220.99 261.814 220.092C268.052 221.643 274.569 221.545 280.824 221.888C289.316 222.362 297.711 224.419 306.252 223.717C306.481 223.701 306.759 223.684 306.955 223.782C313.03 226.82 319.775 225.187 326.144 226.101C335.698 227.456 345.432 227.636 355.101 229.106C362.874 230.281 370.959 228.991 378.814 230.706C381.215 231.229 383.044 230.086 382.93 227.26C382.832 224.599 381.15 223.831 378.684 223.684C373.376 223.358 368.133 223.978 362.711 222.59C357.452 221.235 351.704 222.313 346.134 221.072C340.418 219.814 334.408 220.516 328.464 219.814C319.138 218.736 309.698 217.054 300.161 218.002C299.23 218.1 298.217 218.1 297.368 217.806C292.877 216.303 288.336 215.209 283.584 215.193C279.534 215.176 275.402 215.699 271.596 213.707L271.58 213.69Z" fill="#003B28"/>
<path d="M415.61 146.363C414.875 145.971 414.287 145.792 413.878 145.416C411.151 142.983 408.228 143.293 404.978 144.289C402.642 145.008 400.927 146.02 400.176 148.388C399.506 150.527 398.167 151.376 395.897 150.854C394.77 150.592 393.545 150.576 392.37 150.576C388.891 150.609 387.192 148.878 386.49 145.514C385.821 142.33 380.121 139.554 376.854 140.305C375.156 140.697 373.49 142.428 371.596 140.697C369.211 138.525 367.725 135.7 366.124 132.989C365.928 132.662 366.304 131.781 366.663 131.405C370.077 127.911 368.101 124.155 367.219 120.48C366.696 118.292 364.573 117.917 362.874 117.247C361.143 116.561 360.457 115.663 360.915 113.785C361.209 112.544 361.29 111.205 361.274 109.915C361.241 106.486 362.678 104.657 366.239 103.971C370.501 103.171 373.49 96.6881 371.432 92.7853C370.338 90.7278 370.779 89.552 372.298 88.311C373.294 87.4945 374.454 86.8086 375.303 85.8452C377.687 83.1018 379.974 83.1671 382.913 85.241C386.033 87.4455 392.81 85.143 394.15 81.4852C395.13 78.7744 396.746 78.1212 399.278 78.6111C400.209 78.7908 401.156 79.003 402.087 78.9541C405.517 78.7908 407.329 79.9992 407.852 83.7713C408.375 87.6088 415.577 90.7931 419.072 88.9642C421.407 87.7558 422.894 87.8864 424.053 90.3848C424.494 91.3156 425.213 92.2138 426.013 92.867C428.953 95.2348 429.279 97.4229 426.568 100.444C424.527 102.714 426.633 110.013 429.72 111.222C433.558 112.708 434.309 115.059 433.248 118.619C433.019 119.386 433.003 120.252 433.019 121.085C433.085 123.599 432.105 124.841 429.426 125.281C424.51 126.098 421.375 131.601 423.106 136.369C424.086 139.08 423.596 140.778 421.228 142.281C419.268 143.522 417.455 145.024 415.593 146.396L415.61 146.363ZM412.131 114.994C412.196 107.008 405.5 100.101 397.53 99.8887C389.511 99.6764 382.505 106.698 382.522 114.928C382.522 122.783 389.234 129.511 397.106 129.576C405.321 129.641 412.082 123.093 412.147 114.994H412.131Z" fill="#003B28"/>
<path d="M271.58 213.69C275.385 215.683 279.517 215.16 283.568 215.176C288.337 215.193 292.877 216.287 297.352 217.789C298.217 218.083 299.23 218.067 300.144 217.985C309.666 217.038 319.105 218.72 328.447 219.798C334.392 220.484 340.402 219.798 346.118 221.055C351.704 222.28 357.436 221.218 362.695 222.574C368.117 223.962 373.359 223.341 378.667 223.668C381.117 223.815 382.816 224.582 382.914 227.244C383.012 230.069 381.199 231.229 378.798 230.69C370.942 228.975 362.858 230.265 355.084 229.089C345.432 227.62 335.682 227.44 326.128 226.085C319.759 225.187 313.014 226.819 306.938 223.766C306.742 223.668 306.465 223.684 306.236 223.701C297.678 224.403 289.284 222.361 280.808 221.872C274.536 221.512 268.02 221.627 261.797 220.075C255.003 219.373 248.161 218.932 241.416 217.92C229.657 216.156 217.832 215.209 206.008 214.197C203.869 214.017 203.575 213.201 203.771 211.29C203.967 209.347 204.587 208.645 206.613 208.84C223.859 210.473 241.105 212.139 258.368 213.527C262.745 213.886 267.187 215.389 271.613 213.707L271.58 213.69Z" fill="#3EB55B"/>
<path opacity="0.14" d="M204.702 198.765C202.611 199.059 202.562 197.802 202.105 196.871C201.37 195.368 202.219 194.715 203.395 194.16C207.233 192.364 210.957 190.274 214.925 188.837C221.654 186.42 227.762 182.729 234.344 179.986C248.405 174.107 262.206 167.624 276.137 161.452C291.374 154.707 306.628 148.012 321.833 141.17C330.701 137.186 339.585 133.234 348.519 129.396C350.087 128.727 351.704 128.09 352.749 130.18C353.843 132.352 352.7 133.528 350.805 134.246C343.031 137.169 335.649 141.039 327.908 144.093C320.102 147.179 312.671 151.213 305.028 154.707C300.781 156.651 296.372 158.251 292.093 160.145C279.55 165.665 267.024 171.217 254.497 176.785C243.392 181.717 232.302 186.665 221.197 191.613C216.934 193.507 212.672 195.434 208.409 197.312C207.021 197.932 205.567 198.422 204.669 198.765H204.702Z" fill="#003B28"/>
<path d="M192.355 209.085C192.192 218.083 185.022 225.056 175.991 224.958C167.057 224.86 160.018 217.593 160.116 208.579C160.231 199.647 167.629 192.462 176.497 192.674C185.463 192.886 192.502 200.169 192.355 209.085Z" fill="#003B28"/>
<path d="M385.069 242.79C385.02 235.311 384.808 227.816 386.49 220.451C387.584 215.666 389.218 211.045 391.194 206.554C391.978 204.774 392.288 203.86 389.724 203.795C385.527 203.697 385.102 203.011 385.625 198.634C386.392 196.397 388.205 196.479 389.969 196.871C391.7 197.263 392.435 198.585 392.337 200.3C392.255 201.753 392.647 202.651 394.182 203.207C397.694 204.497 401.107 206.015 404.553 207.436C401.777 211.796 399.294 216.613 398.935 221.578C398.478 228.191 395.326 234.609 398.053 241.679C399.115 244.439 400.176 247.983 399.833 251.363C398.723 251.183 398.086 250.302 397.236 249.714C393.643 247.199 390.05 244.668 385.739 243.492C385.51 243.247 385.282 243.002 385.037 242.774L385.069 242.79Z" fill="#003B28"/>
<path opacity="0.67" d="M258.76 222.77C270.78 223.782 282.816 224.713 294.82 225.84C308.686 227.146 322.519 228.681 336.384 229.988C347.686 231.049 359.02 231.914 370.338 232.894C372.086 233.041 373.8 233.433 375.548 233.596C376.707 233.711 377.263 234.217 377.263 235.36C377.263 236.65 377.263 237.956 377.263 239.246C375.368 238.838 373.457 238.43 371.563 238.022C370.942 236.977 369.75 236.977 368.803 236.715C361.813 234.772 354.594 233.956 347.425 233.188C342.313 232.633 336.989 232.29 332.024 234.592C329.623 234.299 327.255 234.756 324.887 235.017C320.314 234.315 315.741 233.449 311.136 232.927C302.186 231.898 293.22 230.984 284.237 230.167C277.476 229.547 270.682 229.155 263.904 228.632C261.095 228.42 258.302 228.126 255.51 227.897C254.661 227.832 254.252 227.358 254.105 226.591C255.428 225.072 256.898 223.701 258.727 222.786L258.76 222.77Z" fill="#003B28"/>
<path opacity="0.67" d="M428.838 284.545C433.182 285.835 437.527 287.19 441.904 288.382C443.227 288.742 444.68 288.791 446.068 288.758C453.875 288.529 461.877 290.064 469.276 286.064C470.239 285.541 471.595 285.884 472.656 286.504C473.718 290.081 474.779 293.641 475.857 297.217C470.566 299.813 464.882 301.152 459.085 301.43C451.621 301.789 444.125 301.854 436.759 300.14C436.318 300.042 435.828 300.107 435.355 300.107C435.077 299.895 434.816 299.666 434.538 299.454C433.623 294.114 430.733 289.525 428.838 284.545Z" fill="#003B28"/>
<path d="M241.171 129.625C234.295 129.462 229.395 124.269 229.461 117.231C229.526 110.471 234.981 105.327 241.889 105.506C248.585 105.686 254.089 111.336 253.893 117.786C253.681 124.645 248.144 129.772 241.187 129.609L241.171 129.625Z" fill="#3EB55B"/>
<path opacity="0.14" d="M525.947 160.684C525.947 167.184 520.933 172.082 514.417 172.001C508.602 171.919 503.948 166.808 503.981 160.521C504.013 154.348 508.798 149.27 514.661 149.368C520.247 149.466 527.09 152.928 525.947 160.668V160.684Z" fill="#003B28"/>
<path d="M445.709 124.938C446.868 125.461 447.734 125.837 448.583 126.229C454.806 129.037 461.142 131.634 467.234 134.72C476.902 139.619 486.751 144.061 496.648 148.453C500.045 149.956 497.448 151.654 497.121 153.27C496.68 155.41 495.357 155.083 493.953 154.283C483.452 148.388 472.052 144.403 461.355 138.966C455.704 136.092 449.955 133.446 444.19 130.817C443.325 130.425 442.083 130.082 442.884 128.907C443.798 127.568 443.978 125.543 445.709 124.922V124.938Z" fill="#003B28"/>
<path opacity="0.14" d="M293.873 113.998C310.352 113.867 326.83 112.838 343.325 113.23C344.273 113.246 345.22 113.214 346.151 113.263C347.588 113.344 348.209 114.21 348.241 115.598C348.274 117.133 347.67 118.096 346.036 118.178C345.563 118.194 345.089 118.194 344.616 118.194C323.172 118.096 301.745 119.419 280.301 118.897C277.1 118.815 274.046 119.909 270.829 119.664C269.13 119.533 268.248 119.174 268.232 117.247C268.199 115.206 269.065 114.798 270.96 114.585C278.586 113.753 286.246 114.03 293.889 113.998H293.873Z" fill="#003B28"/>
<path d="M241.546 87.7394C252.113 88.8008 260.867 92.9812 266.909 102.159C268.526 104.608 266.109 104.722 265.276 105.441C264.313 106.274 262.924 107.711 261.569 105.441C255.493 95.251 244.502 92.8832 235.977 94.8591C234.017 95.3164 232.139 95.9696 230.392 97.0147C227.713 98.615 225.917 97.8638 224.79 94.9245C224.332 93.7324 224.871 93.1119 225.786 92.6546C230.751 90.1888 235.683 87.6087 241.53 87.7394H241.546Z" fill="#003B28"/>
<path d="M212.459 119.37C212.165 117.721 213.064 117.296 214.68 117.247C216.575 117.198 217.587 117.525 217.914 119.795C219.27 129.38 224.626 136.092 233.511 139.847C235.52 140.697 237.839 140.876 240.044 141.235C242.51 141.644 241.481 143.505 241.628 144.844C241.824 146.412 240.975 146.771 239.505 146.771C226.227 146.837 212.247 132.777 212.476 119.37H212.459Z" fill="#3EB55B"/>
<path opacity="0.14" d="M520.28 299.046C520.28 304.843 517.65 307.913 512.702 307.897C506.986 307.88 504.177 304.843 503.915 299.242C503.638 293.543 507.9 291.469 512.097 291.012C516.736 290.522 520.28 294.343 520.28 299.03V299.046Z" fill="#003B28"/>
<path opacity="0.14" d="M417.194 154.348C419.137 155.034 420.166 157.369 420.819 159.133C421.914 162.121 423.318 164.93 424.755 167.722C425.866 169.894 424.821 170.613 423.122 171.397C421.391 172.197 420.476 172.001 419.709 169.992C418.223 166.122 416.328 162.415 414.63 158.643C413.519 156.177 414.434 154.348 417.194 154.348Z" fill="#003B28"/>
<path d="M196.095 185.914C196.111 188.379 194.674 189.767 192.273 189.931C190.183 190.061 188.942 188.673 188.876 186.681C188.795 184.346 189.791 182.484 192.469 182.419C194.641 182.37 195.997 183.464 196.095 185.897V185.914Z" fill="#3EB55B"/>
<path d="M333.102 171.592C333.102 168.424 334.31 167.069 336.531 167.2C338.85 167.33 340.565 168.588 340.5 171.201C340.435 173.503 338.867 174.613 336.793 174.548C334.539 174.466 333.134 173.16 333.102 171.592Z" fill="#003B28"/>
<path d="M207.674 170.009C207.25 172.246 206.237 173.879 203.738 173.715C201.239 173.552 200.26 171.919 200.488 169.6C200.717 167.265 202.04 166.024 204.538 166.253C206.923 166.465 207.739 167.886 207.674 170.025V170.009Z" fill="#3EB55B"/>
<path d="M285.511 138.443C286.899 138.606 288.337 139.701 288.206 141.987C288.075 144.289 286.507 145.318 284.319 145.106C282.179 144.91 280.791 143.685 280.873 141.399C280.955 138.949 282.555 138.247 285.511 138.443Z" fill="#003B28"/>
<path d="M354.039 184.036C351.736 183.66 350.381 182.452 350.56 180.214C350.74 177.994 352.128 176.818 354.415 177.161C356.717 177.504 358.089 178.843 357.746 181.276C357.452 183.399 355.884 184.101 354.039 184.036Z" fill="#003B28"/>
<path d="M371.547 193.964C369.358 193.719 367.758 192.756 367.79 190.241C367.823 188.004 369.44 187.057 371.318 187.122C373.457 187.22 375.221 188.265 375.091 190.862C374.993 193.017 373.702 193.981 371.53 193.964H371.547Z" fill="#003B28"/>
<path d="M267.007 135.194C265.047 134.802 263.365 133.985 263.496 131.601C263.627 129.364 265.031 128.123 267.236 128.27C269.571 128.417 270.943 129.805 270.764 132.238C270.6 134.426 269.016 135.112 266.991 135.21L267.007 135.194Z" fill="#003B28"/>
<path d="M319.334 164.522C317.113 164.309 315.806 163.248 315.855 160.945C315.904 158.79 317.129 157.712 319.187 157.761C321.539 157.81 322.927 159.149 322.862 161.517C322.796 163.689 321.229 164.407 319.334 164.538V164.522Z" fill="#003B28"/>
<path d="M212.28 153.499C212.443 151.621 213.341 150.086 215.677 150.021C218.045 149.956 219.155 151.491 219.074 153.63C218.992 155.867 217.718 157.516 215.285 157.402C213.162 157.304 212.28 155.802 212.28 153.516V153.499Z" fill="#3EB55B"/>
<path d="M434.522 299.454C434.799 299.666 435.061 299.895 435.338 300.107C436.073 304.843 437.853 309.333 438.523 314.118C441.675 336.424 438.327 357.424 427.058 377.151C419.79 389.855 410.22 400.208 398.314 408.683C383.24 419.412 366.5 424.638 348.192 425.536C328.202 426.515 309.47 422.302 292.534 411.59C283.698 406.005 275.696 399.294 269.016 390.998C258.041 377.379 250.921 362.127 248.193 344.916C245.727 329.321 246.952 314.069 252.047 298.964C256.539 285.623 263.496 273.784 273.001 263.725C286.703 249.224 303.394 239.361 323.319 235.638C323.874 235.54 324.381 235.213 324.903 235.001C327.271 234.739 329.639 234.282 332.04 234.576C333.526 235.36 335.111 235.556 336.76 235.703C343.505 236.323 350.234 237.303 356.995 237.581C361.846 237.793 366.68 239.54 371.579 238.005C373.474 238.414 375.385 238.822 377.279 239.23C379.876 240.406 382.473 241.598 385.053 242.774C385.282 243.019 385.51 243.263 385.755 243.492C386.621 252.653 389.675 261.259 394.313 268.966C400.078 278.568 407.607 286.847 417.814 292.155C423.22 294.947 428.691 297.592 434.505 299.438L434.522 299.454ZM300.896 317.531C300.602 319.621 300.291 321.695 299.997 323.785C296.878 345.7 310.94 366.928 332.073 372.105C358.432 378.555 384.073 361.817 386.817 334.089C388.45 317.564 382.309 304.059 369.13 294.065C359.543 286.782 348.356 285.019 336.58 286.276C335.111 284.022 334.033 281.328 332.089 279.597C326.896 274.959 320.935 272.02 313.585 272.445C304.178 272.984 297.335 277.327 292.991 285.525C288.369 294.261 289.561 302.671 294.837 310.787C296.519 313.383 299.017 315.163 300.912 317.531H300.896Z" fill="#DDEACE"/>
<path opacity="0.67" d="M434.522 299.454C428.708 297.609 423.22 294.963 417.831 292.171C407.623 286.88 400.078 278.601 394.329 268.983C389.707 261.259 386.637 252.67 385.772 243.509C390.083 244.684 393.692 247.215 397.269 249.73C398.118 250.318 398.755 251.2 399.866 251.379C404.782 266.582 414.956 277.197 428.838 284.561C430.716 289.542 433.607 294.131 434.522 299.47V299.454Z" fill="#003B28"/>
<path d="M176.236 328.848C175.778 326.398 176.317 324.585 180.139 324.879C185.692 325.304 185.087 324.096 185.267 329.566C185.365 332.554 185.332 334.694 181.168 334.334C176.252 333.91 176.219 334.236 176.219 328.864L176.236 328.848Z" fill="#F6F9FA"/>
<path d="M505.205 334.253C503.409 334.367 500.616 334.743 501.4 330.725C501.841 328.439 499.506 324.667 504.797 324.879C510.366 325.108 510.383 324.879 510.415 328.831C510.437 332.413 508.706 334.22 505.222 334.253H505.205Z" fill="#F6F9FA"/>
<path d="M371.579 238.022C366.68 239.557 361.846 237.793 356.995 237.597C350.234 237.32 343.505 236.34 336.76 235.719C335.111 235.572 333.51 235.36 332.04 234.593C337.005 232.29 342.329 232.633 347.441 233.188C354.611 233.956 361.829 234.789 368.819 236.715C369.766 236.977 370.959 236.993 371.579 238.022Z" fill="#9EADBC"/>
<path d="M336.58 286.276C348.356 285.019 359.526 286.799 369.13 294.065C382.309 304.059 388.45 317.564 386.817 334.089C384.089 361.817 358.432 378.555 332.073 372.105C310.94 366.928 296.878 345.7 299.997 323.785C300.291 321.695 300.602 319.605 300.896 317.531C302.202 317.205 303.133 318.07 304.178 318.544C318.485 325.141 334.947 316.682 338.034 301.218C339.063 296.025 337.887 291.159 336.58 286.26V286.276ZM317.521 330.97C314.827 330.97 312.818 332.979 312.818 335.624C312.818 338.319 314.745 340.229 317.538 340.262C320.085 340.295 322.372 338.09 322.339 335.624C322.306 333.126 320.069 330.954 317.521 330.954V330.97Z" fill="#3EB55B"/>
<path d="M451.948 291.11C483.138 291.11 508.423 265.828 508.423 234.641C508.423 203.455 483.138 178.173 451.948 178.173C420.757 178.173 395.473 203.455 395.473 234.641C395.473 265.828 420.757 291.11 451.948 291.11Z" fill="#3EB55B"/>
<path d="M479.548 229.808C479.548 235.115 475.237 239.426 469.929 239.426H433.95C428.642 239.426 424.331 235.115 424.331 229.808C424.331 228.306 425.556 227.081 427.058 227.081H476.821C478.323 227.081 479.548 228.306 479.548 229.808Z" fill="white"/>
<path d="M460.701 214.964C460.701 210.139 456.79 206.228 451.964 206.228C447.138 206.228 443.227 210.139 443.227 214.964C443.227 219.789 447.138 223.701 451.964 223.701C456.79 223.701 460.701 219.789 460.701 214.964Z" fill="white"/>
<path d="M473.897 251.722L467.103 244.929L460.701 238.528L456.749 234.576C455.475 233.303 453.76 232.6 451.98 232.6C450.184 232.6 448.469 233.319 447.211 234.576L443.259 238.528L436.857 244.929L429.867 251.918C425.621 256.164 429.867 260.638 429.867 260.638C432.284 263.055 436.188 263.055 438.588 260.638L449.465 249.763L449.498 249.73C450.347 248.505 450.788 247.052 450.788 245.55V242.904H453.14V245.566C453.14 247.019 453.581 248.44 454.381 249.665L465.356 260.638C467.904 263.186 472.134 263.039 474.485 260.198C476.543 257.715 476.168 254.009 473.897 251.739V251.722Z" fill="white"/>
<path d="M148.259 562.346C145.418 562.346 143.099 561.317 141.286 559.243C139.473 557.169 138.575 554.622 138.575 551.568C138.575 548.515 139.489 545.804 141.318 543.616C143.148 541.427 145.467 540.333 148.276 540.333C151.085 540.333 153.355 541.427 155.168 543.632C156.98 545.836 157.879 548.482 157.879 551.552C157.879 554.622 156.98 557.169 155.168 559.227C153.355 561.284 151.052 562.329 148.276 562.329L148.259 562.346ZM144.895 536.218L141.825 532.985L144.895 529.752L147.965 532.985L144.895 536.218ZM148.259 558.263C150.023 558.263 151.477 557.627 152.62 556.336C153.763 555.046 154.318 553.446 154.318 551.536C154.318 549.625 153.747 547.878 152.587 546.49C151.428 545.102 149.991 544.399 148.243 544.399C146.496 544.399 145.009 545.102 143.833 546.49C142.674 547.878 142.086 549.56 142.086 551.536C142.086 553.511 142.658 555.046 143.817 556.336C144.977 557.627 146.447 558.263 148.243 558.263H148.259ZM151.591 536.218L148.472 532.985L151.591 529.752L154.661 532.985L151.591 536.218Z" fill="#003B28"/>
<path d="M158.32 571.605L157.977 568.323C163.04 568.323 165.555 565.743 165.555 560.599L165.506 540.252L169.082 539.631V560.729C169.082 564.469 168.184 567.212 166.388 568.976C164.591 570.723 161.896 571.605 158.303 571.605H158.32Z" fill="#003B28"/>
<path d="M194.641 557.904C194.919 557.904 195.066 558.035 195.066 558.313V561.497C195.066 561.791 194.919 561.954 194.641 561.954H192.159C191.653 568.388 186.427 571.605 176.481 571.605L176.056 568.323C179.959 568.323 182.948 567.816 185.038 566.804C187.112 565.792 188.305 564.175 188.582 561.954H183.52C180.547 561.954 178.146 560.991 176.35 559.064C174.553 557.137 173.655 554.54 173.655 551.274C173.655 548.009 174.57 545.445 176.415 543.42C178.261 541.379 180.58 540.366 183.389 540.366C186.002 540.366 188.125 541.281 189.758 543.126C191.391 544.971 192.208 547.404 192.208 550.425V557.921H194.658L194.641 557.904ZM176.987 551.078C176.987 553.332 177.624 555.047 178.881 556.239C180.139 557.431 181.854 558.035 183.977 558.035C184.875 558.035 186.427 558.002 188.615 557.953V550.719C188.615 548.776 188.109 547.208 187.08 546.033C186.051 544.857 184.712 544.253 183.062 544.253C181.315 544.253 179.878 544.873 178.718 546.147C177.558 547.404 176.987 549.054 176.987 551.078Z" fill="#003B28"/>
<path d="M233.201 557.904C233.478 557.904 233.625 558.035 233.625 558.312V561.497C233.625 561.791 233.478 561.954 233.201 561.954C230.735 561.954 228.448 560.941 226.374 558.9C224.855 560.941 222.405 561.954 219.008 561.954H194.658C194.38 561.954 194.233 561.807 194.233 561.497V558.312C194.282 558.035 194.429 557.904 194.658 557.904H198.822V529.752L202.399 529.164V545.02C206.776 543.011 210.091 541.64 212.329 540.905C214.566 540.17 216.738 539.811 218.845 539.811C221.507 539.811 223.712 540.709 225.443 542.522C227.174 544.334 228.023 546.653 227.991 549.511V553.332C227.991 554.116 227.893 554.965 227.697 555.896C229.493 557.251 231.339 557.92 233.217 557.92L233.201 557.904ZM224.398 552.646V550.033C224.398 548.155 223.81 546.637 222.634 545.477C221.458 544.318 219.939 543.746 218.077 543.746C216.216 543.746 214.337 544.024 212.508 544.579C210.679 545.134 207.315 546.375 202.399 548.335V557.904H219.041C220.756 557.904 222.079 557.447 223.01 556.549C223.941 555.651 224.398 554.344 224.398 552.646Z" fill="#003B28"/>
<path d="M249.042 557.904C249.32 557.904 249.467 558.035 249.467 558.313V561.497C249.467 561.791 249.32 561.954 249.042 561.954C246.429 561.954 244.012 560.86 241.791 558.672C240.272 560.86 237.414 561.954 233.201 561.954C232.923 561.954 232.776 561.807 232.776 561.497L232.825 558.313C232.825 558.035 232.972 557.904 233.25 557.904C235.503 557.904 237.137 557.463 238.165 556.582C239.194 555.7 239.701 554.263 239.701 552.287V545.02L243.245 544.432V553.316C243.245 554.067 243.179 554.834 243.032 555.651C244.91 557.153 246.919 557.904 249.059 557.904H249.042ZM240.958 537.966L237.888 541.199L234.817 537.966L237.888 534.732L240.958 537.966ZM247.654 537.966L244.584 541.199L241.464 537.966L244.584 534.732L247.654 537.966Z" fill="#003B28"/>
<path d="M272.821 557.904C273.099 557.904 273.246 558.035 273.246 558.312V561.497C273.246 561.791 273.099 561.954 272.821 561.954H262.63C259.854 561.954 257.519 561.219 255.64 559.749C253.452 561.219 251.263 561.954 249.059 561.954C248.781 561.954 248.634 561.807 248.634 561.497V558.312C248.634 558.035 248.781 557.904 249.059 557.904C250.512 557.904 251.917 557.578 253.223 556.908C252.211 555.145 251.704 553.038 251.704 550.572C251.704 547.584 252.603 545.102 254.399 543.126C256.196 541.15 258.482 540.17 261.275 540.17C263.888 540.17 266.125 541.166 267.971 543.158C269.833 545.151 270.747 547.486 270.747 550.18C270.747 552.515 270.257 555.095 269.277 557.904H272.821ZM262.336 557.904H265.831C266.811 554.965 267.301 552.597 267.301 550.817C267.301 549.037 266.746 547.388 265.635 546.016C264.525 544.644 263.137 543.959 261.487 543.959C259.609 543.959 258.106 544.579 256.98 545.82C255.853 547.061 255.297 548.694 255.297 550.735C255.297 552.891 255.934 554.622 257.192 555.945C258.449 557.267 260.164 557.921 262.336 557.921V557.904Z" fill="#003B28"/>
<path d="M272.821 561.954C272.544 561.954 272.397 561.807 272.397 561.497V558.313C272.397 558.035 272.544 557.904 272.854 557.904C276.365 557.904 278.129 555.961 278.129 552.058L278.178 529.736L281.722 529.148V552.94C281.722 558.933 278.75 561.921 272.838 561.921L272.821 561.954Z" fill="#003B28"/>
<path d="M289.006 561.954V529.752L292.583 529.164V561.938H289.006V561.954Z" fill="#003B28"/>
<path d="M331.55 529.033V556.108H331.501V557.594C331.501 561.938 330.521 565.35 328.545 567.849C326.585 570.347 323.548 571.605 319.448 571.605C315.904 571.605 313.112 570.625 311.038 568.665C308.98 566.706 307.935 563.815 307.935 559.978C307.935 556.777 308.555 553.169 309.796 549.151L312.703 550.001C311.724 553.087 311.234 556.075 311.234 558.982C311.266 561.791 312.001 563.93 313.471 565.383C314.925 566.836 316.999 567.555 319.661 567.555C322.47 567.555 324.56 566.706 325.916 565.024C327.271 563.326 327.957 560.729 327.957 557.186V529.621L331.534 529.033H331.55Z" fill="#003B28"/>
<path d="M357.387 557.904C357.665 557.904 357.812 558.035 357.812 558.313V561.497C357.812 561.791 357.665 561.954 357.387 561.954H354.905C354.398 568.388 349.172 571.605 339.226 571.605L338.802 568.323C342.705 568.323 345.694 567.816 347.784 566.804C349.858 565.792 351.05 564.175 351.328 561.954H346.265C343.293 561.954 340.892 560.991 339.096 559.064C337.299 557.137 336.401 554.54 336.401 551.274C336.401 548.009 337.315 545.445 339.161 543.42C341.006 541.379 343.325 540.366 346.134 540.366C348.748 540.366 350.871 541.281 352.504 543.126C354.137 544.971 354.954 547.404 354.954 550.425V557.921H357.403L357.387 557.904ZM339.732 551.078C339.732 553.332 340.369 555.047 341.627 556.239C342.884 557.431 344.599 558.035 346.722 558.035C347.621 558.035 349.172 558.002 351.361 557.953V550.719C351.361 548.776 350.854 547.208 349.825 546.033C348.797 544.857 347.457 544.253 345.808 544.253C344.06 544.253 342.623 544.873 341.464 546.147C340.304 547.404 339.732 549.054 339.732 551.078Z" fill="#003B28"/>
<path d="M381.574 539.811C384.236 539.811 386.441 540.709 388.172 542.505C389.903 544.302 390.769 546.588 390.769 549.38C390.769 550.752 390.671 552.009 390.459 553.136C390.246 554.263 389.838 556.043 389.25 558.508L386.425 561.97H357.387C357.109 561.97 356.962 561.823 356.962 561.513L357.011 558.329C357.011 558.051 357.158 557.921 357.436 557.921H361.601L361.552 540.268L365.128 539.648V545.036C369.456 543.061 372.755 541.705 375.009 540.954C377.263 540.203 379.451 539.827 381.558 539.827L381.574 539.811ZM385.788 557.904C386.719 554.557 387.176 551.895 387.176 549.919C387.143 548.123 386.539 546.653 385.347 545.494C384.155 544.334 382.636 543.763 380.823 543.763C379.01 543.763 377.116 544.04 375.319 544.579C373.523 545.118 370.142 546.376 365.145 548.351V557.921H385.788V557.904Z" fill="#003B28"/>
<path d="M415.414 557.904C415.691 557.904 415.838 558.035 415.838 558.313V561.497C415.838 561.791 415.691 561.954 415.414 561.954H412.931C412.425 568.388 407.199 571.605 397.253 571.605L396.828 568.323C400.731 568.323 403.72 567.816 405.811 566.804C407.885 565.792 409.077 564.175 409.355 561.954H404.292C401.319 561.954 398.919 560.991 397.122 559.064C395.326 557.137 394.427 554.54 394.427 551.274C394.427 548.009 395.342 545.445 397.187 543.42C399.033 541.379 401.352 540.366 404.161 540.366C406.774 540.366 408.897 541.281 410.53 543.126C412.164 544.971 412.98 547.404 412.98 550.425V557.921H415.43L415.414 557.904ZM397.759 551.078C397.759 553.332 398.396 555.047 399.654 556.239C400.911 557.431 402.626 558.035 404.749 558.035C405.647 558.035 407.199 558.002 409.387 557.953V550.719C409.387 548.776 408.881 547.208 407.852 546.033C406.823 544.857 405.484 544.253 403.834 544.253C402.087 544.253 400.65 544.873 399.49 546.147C398.331 547.404 397.759 549.054 397.759 551.078Z" fill="#003B28"/>
<path d="M415.414 561.954C415.136 561.954 414.989 561.807 414.989 561.497V558.313C414.989 558.035 415.136 557.904 415.446 557.904C418.958 557.904 420.721 555.961 420.721 552.058L420.77 529.736L424.314 529.148V552.94C424.314 558.933 421.342 561.921 415.43 561.921L415.414 561.954Z" fill="#003B28"/>
<path d="M431.598 561.954V529.752L435.175 529.164V561.938H431.598V561.954Z" fill="#003B28"/>
<path d="M473.31 557.904C473.587 557.904 473.734 558.035 473.734 558.312V561.497C473.734 561.791 473.587 561.954 473.31 561.954C470.729 561.954 468.818 561.317 467.577 560.027C464.735 561.578 462.204 562.362 459.95 562.362C457.108 562.362 454.789 561.333 452.977 559.26C451.164 557.186 450.266 554.638 450.266 551.585C450.266 548.531 451.18 545.82 453.009 543.632C454.838 541.444 457.157 540.35 459.967 540.35C461.681 540.35 463.56 540.774 465.617 541.607V538.815L469.161 538.194L469.21 552.875C469.21 554.671 469.537 555.961 470.174 556.745C470.811 557.529 471.872 557.904 473.342 557.904H473.31ZM459.656 532.854L456.586 536.088L453.515 532.854L456.586 529.621L459.656 532.854ZM459.95 558.492C461.828 558.525 463.853 558.018 466.026 556.973C465.748 555.961 465.601 554.72 465.601 553.25V545.428C463.331 544.612 461.485 544.22 460.081 544.22C458.203 544.22 456.668 544.922 455.459 546.326C454.267 547.731 453.662 549.462 453.662 551.536C453.662 553.609 454.25 555.161 455.41 556.467C456.57 557.79 458.088 558.459 459.934 558.492H459.95ZM466.352 532.854L463.282 536.088L460.163 532.854L463.282 529.621L466.352 532.854Z" fill="#003B28"/>
<path d="M486.032 542.963C489.119 542.963 491.585 543.812 493.43 545.494C495.276 547.192 496.19 549.462 496.19 552.336C496.19 555.21 495.325 557.643 493.594 559.358C491.862 561.072 489.56 561.938 486.669 561.938H473.31C473.032 561.938 472.885 561.791 472.885 561.481V558.296C472.885 558.019 473.032 557.888 473.31 557.888H486.375C488.318 557.888 489.837 557.398 490.948 556.402C492.058 555.406 492.614 554.034 492.614 552.271C492.614 550.507 492.058 549.103 490.948 548.074C489.837 547.045 488.335 546.523 486.424 546.523H476.266L474.322 542.881L486.914 526.992L490.376 528.919L478.536 542.93H486.032V542.963Z" fill="#003B28"/>
<path d="M512.457 557.904C512.734 557.904 512.881 558.035 512.881 558.313V561.497C512.881 561.791 512.734 561.954 512.457 561.954C510.301 561.954 508.7 561.154 507.688 559.57V560.729C507.688 564.469 506.79 567.212 504.993 568.976C503.197 570.723 500.502 571.605 496.909 571.605L496.566 568.323C501.629 568.323 504.144 565.743 504.144 560.599L504.095 540.252L507.672 539.631V553.642C507.867 556.484 509.452 557.904 512.44 557.904H512.457Z" fill="#003B28"/>
<path d="M543.732 540.219L547.276 539.599V553.299C547.276 556.059 546.574 558.182 545.169 559.668C543.765 561.17 541.69 561.921 538.93 561.921C536.677 561.921 534.341 561.121 531.891 559.537C530.405 561.121 528.266 561.921 525.489 561.921C523.464 561.921 521.374 561.137 519.218 559.586C517.666 561.17 515.445 561.97 512.522 561.97C512.244 561.97 512.097 561.823 512.097 561.513V558.329C512.097 558.051 512.244 557.921 512.522 557.921C516.066 557.921 517.83 556.043 517.83 552.303L517.781 545.036L521.357 544.449V553.332C521.357 554.589 521.194 555.749 520.851 556.794C522.484 557.512 523.938 557.872 525.228 557.872C528.772 557.872 530.536 555.994 530.536 552.254L530.487 544.987L534.064 544.4V553.283C534.064 554.606 533.884 555.749 533.508 556.745C535.256 557.496 536.873 557.872 538.391 557.872C540.106 557.872 541.413 557.398 542.327 556.451C543.242 555.504 543.699 554.116 543.699 552.254V540.219H543.732ZM531.679 534.651L528.641 537.933L525.522 534.651L528.592 531.417L531.663 534.651H531.679ZM534.325 529.164L532.136 531.499L529.899 529.164L532.087 526.78L534.325 529.164ZM535.582 537.917L532.463 534.634L535.582 531.401L538.653 534.634L535.582 537.917Z" fill="#003B28"/>
<path d="M264.982 606.077V612.544C264.982 612.821 264.819 613.033 264.558 613.033C261.912 613.033 259.887 612.495 258.4 611.368C255.869 612.756 253.632 613.425 251.329 613.425C245.351 613.425 241.089 608.494 241.089 602.109C241.089 595.724 245.351 590.302 251.329 590.302C252.717 590.302 254.073 590.613 255.591 591.152V588.718L262.173 587.869L262.222 602.827C262.222 604.803 263.071 605.603 264.59 605.603C264.851 605.603 265.015 605.783 265.015 606.061L264.982 606.077ZM248.34 587.216L243.963 582.546L248.307 577.925L251.639 581.386L254.922 577.925L259.299 582.546L255.003 587.216L251.639 583.722L248.356 587.216H248.34ZM255.722 605.767C255.64 605.179 255.64 604.509 255.64 603.84L255.591 598.043C254.236 597.553 252.978 597.226 251.672 597.226C248.977 597.226 247.197 599.202 247.197 601.995C247.197 604.509 248.928 606.436 251.329 606.534C252.88 606.583 254.399 606.306 255.706 605.767H255.722Z" fill="#003B28"/>
<path d="M274.422 624.578L271.351 621.394L268.363 624.578L263.937 619.957L268.281 615.336L271.351 618.52L274.34 615.336L278.766 619.957L274.422 624.578ZM264.133 612.543L264.215 606.077C264.215 605.799 264.378 605.62 264.639 605.62H268.183C270.551 605.62 271.678 604.232 271.678 601.047L271.629 591.119L278.211 590.27V603.611C278.211 609.8 274.879 613.033 268.101 613.033H264.558C264.296 613.033 264.133 612.805 264.133 612.543Z" fill="#003B28"/>
<path d="M280.612 605.636H291.146C293.497 605.636 294.641 604.248 294.641 602.174V600.737C294.592 598.353 292.746 596.736 290.051 596.736H287.193V589.551H291.57C297.303 589.551 301.255 593.225 301.255 600.1V603.595C301.173 609.784 297.842 613.017 291.064 613.017H281.624L280.612 605.603V605.636Z" fill="#003B28"/>
<path d="M326.716 606.077V612.543C326.716 612.821 326.553 613.033 326.291 613.033H324.234C323.646 620.039 316.77 622.684 306.955 622.684L306.285 616.985C313.324 616.985 316.819 615.907 317.587 613.033H314.043C308.065 613.033 304.048 608.592 304.048 601.848C304.048 595.103 308.604 590.27 314.418 590.27C320.232 590.27 324.283 594.532 324.283 601.488V605.62H326.308C326.553 605.62 326.732 605.799 326.732 606.077H326.716ZM314.614 606.028C315.578 606.028 316.639 605.93 317.734 605.848V601.994C317.734 599.071 316.166 597.373 313.896 597.373C311.789 597.373 309.927 599.039 309.927 601.635C309.927 604.607 311.985 606.044 314.598 606.044L314.614 606.028Z" fill="#003B28"/>
<path d="M351.753 606.077V612.543C351.753 612.821 351.589 613.033 351.328 613.033C346.608 613.033 343.244 612.135 339.994 610.11C335.829 612.315 332.579 613.033 326.291 613.033C326.03 612.984 325.867 612.805 325.867 612.543V606.077C325.867 605.799 326.03 605.62 326.291 605.62C328.529 605.62 330.342 605.538 332.024 605.342C330.423 603.089 328.954 600.672 327.386 597.308L329.541 591.788C333.624 589.682 336.793 588.784 339.912 588.784C345.775 588.784 349.809 592.246 349.809 597.406C349.809 599.79 348.797 602.746 346.265 605.309C347.702 605.538 349.303 605.62 351.328 605.62C351.573 605.62 351.753 605.799 351.753 606.077ZM333.33 596.965C335.062 600.737 336.499 603.023 338.557 605.277C342.019 603.921 343.832 601.684 343.832 599.708C343.832 597.422 341.937 595.675 339.03 595.675C337.381 595.626 335.535 596.034 333.347 596.981L333.33 596.965Z" fill="#003B28"/>
<path d="M391.912 606.077V612.543C391.912 612.821 391.749 613.033 391.488 613.033C389.218 613.033 387.225 612.217 385.592 610.747C384.122 612.233 381.934 613.033 379.108 613.033C376.756 613.033 374.47 612.217 372.118 610.519C370.469 612.086 368.166 613.033 365.341 613.033C363.234 613.033 361.176 612.184 359.102 610.388C357.42 612.086 354.888 613.033 351.524 613.033C351.263 613.033 351.099 612.805 351.099 612.543V606.077C351.099 605.799 351.263 605.62 351.524 605.62C353.892 605.62 355.019 604.232 355.019 601.047L354.97 595.659L361.584 594.842V603.595C361.584 604.052 361.535 604.493 361.503 604.95C362.564 605.391 363.56 605.62 364.671 605.62C367.072 605.62 368.215 604.232 368.215 601.047L368.166 595.659L374.731 594.842V603.595C374.731 604.085 374.682 604.591 374.65 605.081C375.695 605.44 376.707 605.62 377.9 605.62C380.17 605.62 381.395 604.052 381.395 601.047V591.086L387.976 590.27V603.611C387.976 604.019 387.927 604.428 387.927 604.82C388.94 605.358 390.116 605.636 391.504 605.636C391.765 605.636 391.929 605.816 391.929 606.093L391.912 606.077Z" fill="#003B28"/>
<path d="M391.063 612.543L391.112 606.077C391.112 605.799 391.275 605.62 391.537 605.62C393.937 605.62 395.032 604.183 395.032 600.998L395.081 581.06L401.662 580.243L401.613 603.497C401.613 609.833 398.282 613.017 391.504 613.017C391.243 613.017 391.079 612.788 391.079 612.527L391.063 612.543Z" fill="#003B28"/>
<path d="M407.574 581.076L414.156 580.26V613.033H407.574V581.06V581.076Z" fill="#003B28"/>
<path d="M450.821 606.077V612.544C450.821 612.821 450.657 613.033 450.396 613.033C447.75 613.033 445.725 612.495 444.239 611.368C441.708 612.756 439.47 613.425 437.167 613.425C431.19 613.425 426.927 608.494 426.927 602.109C426.927 595.724 431.19 590.302 437.167 590.302C438.556 590.302 439.911 590.613 441.43 591.152V588.718L448.012 587.869L448.061 602.827C448.061 604.803 448.91 605.603 450.429 605.603C450.69 605.603 450.853 605.783 450.853 606.061L450.821 606.077ZM434.179 587.216L429.802 582.546L434.146 577.925L437.478 581.386L440.76 577.925L445.137 582.546L440.842 587.216L437.478 583.722L434.195 587.216H434.179ZM441.561 605.767C441.479 605.179 441.479 604.509 441.479 603.84L441.43 598.043C440.075 597.553 438.817 597.226 437.51 597.226C434.816 597.226 433.036 599.202 433.036 601.995C433.036 604.509 434.767 606.436 437.167 606.534C438.719 606.583 440.238 606.306 441.544 605.767H441.561Z" fill="#003B28"/>
<path d="M460.26 624.578L457.19 621.394L454.201 624.578L449.776 619.957L454.12 615.336L457.19 618.52L460.179 615.336L464.605 619.957L460.26 624.578ZM449.971 612.543L450.053 606.077C450.053 605.799 450.216 605.62 450.478 605.62H454.022C456.39 605.62 457.517 604.232 457.517 601.047L457.468 591.119L464.049 590.27V603.611C464.049 609.8 460.718 613.033 453.94 613.033H450.396C450.135 613.033 449.971 612.805 449.971 612.543Z" fill="#003B28"/>
<path d="M487.649 601.505V612.054C487.649 619.826 480.61 622.7 470.337 622.7L469.667 617.001C477.425 617.001 480.871 615.646 481.083 612.103C479.777 612.69 478.47 613.05 477.213 613.05C471.431 613.05 467.43 608.657 467.43 601.864C467.43 595.071 471.987 590.286 477.801 590.286C483.615 590.286 487.665 594.548 487.665 601.505H487.649ZM482.129 587.232H472.264V582.693H474.371C473.946 581.925 473.734 581.174 473.734 580.309C473.734 577.435 475.841 575.557 478.585 575.557C479.548 575.557 480.642 575.867 481.867 576.504V580.505C480.61 580.047 479.712 579.884 479.009 579.884C477.866 579.884 477.147 580.423 477.147 581.321C477.147 581.811 477.311 582.268 477.654 582.709H483.468L482.112 587.249L482.129 587.232ZM477.784 606.044C478.797 606.044 479.94 605.865 481.116 605.587V601.994C481.116 599.071 479.548 597.373 477.278 597.373C475.171 597.373 473.309 599.039 473.309 601.635C473.309 604.607 475.204 606.077 477.784 606.044Z" fill="#003B28"/>
<path d="M488.955 616.985C492.369 616.985 494.851 615.548 494.851 611.678L494.802 591.119L501.384 590.27V612.005C501.384 619.778 497.464 622.684 489.413 622.684L488.955 616.985Z" fill="#003B28"/>
<path d="M525.146 591.446C527.759 591.446 529.883 592.36 531.516 594.205C533.149 596.051 533.966 598.484 533.966 601.505V612.005C533.966 619.124 528.723 622.684 518.254 622.684L517.83 619.402C522.076 619.402 525.228 618.798 527.319 617.589C529.393 616.381 530.438 614.454 530.438 611.825V611.727C528.641 612.592 526.894 613.033 525.212 613.033C522.288 613.033 519.937 612.07 518.14 610.143C516.344 608.216 515.445 605.62 515.445 602.354C515.445 599.088 516.36 596.524 518.205 594.499C520.051 592.458 522.37 591.446 525.179 591.446H525.146ZM525.653 609.131C527.318 609.131 528.903 608.853 530.422 608.281V601.815C530.422 599.904 529.899 598.337 528.87 597.145C527.825 595.953 526.486 595.348 524.82 595.348C523.072 595.348 521.635 595.969 520.476 597.243C519.316 598.5 518.744 600.149 518.744 602.174C518.744 604.477 519.365 606.224 520.606 607.432C521.847 608.624 523.53 609.196 525.669 609.131H525.653Z" fill="#003B28"/>
</g>
<defs>
<clipPath id="clip0_78_50">
<rect width="681" height="693" rx="70" fill="white"/>
</clipPath>
</defs>
</svg>
