<?xml version="1.0" encoding="UTF-8"?>
<svg id="Layer_2" data-name="Layer 2" xmlns="http://www.w3.org/2000/svg" viewBox="0 0 416.98 424.38">
  <defs>
    <style>
      .cls-1 {
        opacity: .14;
      }

      .cls-1, .cls-2, .cls-3, .cls-4, .cls-5, .cls-6, .cls-7, .cls-8 {
        stroke-width: 0px;
      }

      .cls-1, .cls-6, .cls-7 {
        fill: #003b28;
      }

      .cls-2 {
        fill: #ddeace;
      }

      .cls-3 {
        fill: #9eadbc;
      }

      .cls-4 {
        fill: #fff;
      }

      .cls-5 {
        fill: #3eb55b;
      }

      .cls-6 {
        opacity: .67;
      }

      .cls-8 {
        fill: #f6f9fa;
      }
    </style>
  </defs>
  <g id="Layer_1-2" data-name="Layer 1">
    <g>
      <rect class="cls-4" width="416.98" height="424.38"/>
      <g>
        <path class="cls-7" d="m291.37,182.01c1.62,5.06,2.04,10.31,2.33,15.55.43,7.82-.06,15.62-2.01,23.21-1.65,6.41-3.7,12.68-6.77,18.64-3.43,6.65-7.52,12.77-12.48,18.34-4.09,4.59-8.76,8.49-13.68,12.19-5.72,4.3-12.03,7.31-18.61,9.92-18.52,7.35-37.3,7.49-56.11,1.49-12.09-3.85-22.76-10.41-31.91-19.21-5.88-5.65-10.88-12.11-14.83-19.27-3.03-5.5-5.42-11.28-7.24-17.32-4.31-14.32-4.58-28.76-1.16-43.18,2.38-10.07,6.49-19.51,12.58-28.02,4.12-5.76,8.64-11.12,14.14-15.6.09.48.34.76.86.8,1.72.14,3.43.31,5.14.45,4.15.32,8.31.56,12.45.94,5.49.5,10.98,1.06,16.47,1.69,2.82.32,5.61.85,8.42,1.28-.32.13-.64.33-.97.39-12.2,2.28-22.41,8.32-30.81,17.2-5.82,6.15-10.07,13.4-12.83,21.58-3.11,9.25-3.87,18.6-2.36,28.14,1.66,10.54,6.03,19.88,12.75,28.22,4.09,5.08,8.99,9.19,14.4,12.61,10.37,6.56,21.84,9.14,34.08,8.54,11.21-.55,21.46-3.75,30.69-10.32,7.3-5.2,13.16-11.53,17.6-19.31,6.9-12.08,8.95-24.94,7.02-38.6-.41-2.93-1.5-5.67-1.95-8.58.29,0,.59-.04.86.02,4.51,1.05,9.11,1.01,13.67.79,3.55-.17,7.03-.99,10.27-2.58Z"/>
        <path class="cls-5" d="m247.72,127.04c7.04-11.64,17.38-17.27,30.96-16.92,7.09.18,13.38,2.77,18.87,7.11,12.06,9.53,16.16,25.88,10.02,39.98-2.58,5.92-6.56,10.73-12.08,14.35-2.01,1.32-4.29,2.22-6.07,3.89-.66-.38-1.48-.59-2.07-.27-4.53,2.45-9.43,1.51-14.21,1.65-.85.03-1.74,0-2.55-.23-2.68-.73-5.33-1.56-8-2.35-8.51-4.51-14.73-11.01-17.74-20.32.21-2.08-.44-4.24-1.09-5.93-1.67-4.33.25-8.26.54-12.31.21-3.03,1.73-5.98,3.43-8.66Zm18.76,30.85c.13,1.48.78,1.96,2.15,1.26,2.25-1.15,4.52-2.24,6.75-3.44,1.19-.64,2.25-.68,3.46,0,2.14,1.19,4.34,2.29,6.53,3.37,1.8.89,2.62.36,2.39-1.66-.24-2.22-.54-4.45-1.05-6.62-.43-1.82-.13-3.15,1.31-4.41,1.68-1.46,3.17-3.13,4.72-4.74.48-.49,1.24-.91.92-1.79-.3-.82-1.11-.88-1.8-.98-2.42-.37-4.84-.78-7.28-1.01-1.33-.13-1.96-.81-2.63-1.88-1.35-2.15-2.12-4.57-3.32-6.78-.35-.65-.66-1.37-1.53-1.32-.8.04-1.22.62-1.55,1.33-1.05,2.29-2.19,4.55-3.22,6.85-.5,1.1-1.23,1.62-2.45,1.76-2.65.3-5.28.76-7.92,1.17-1.44.22-2.1,1.03-.94,2.16,1.75,1.7,3.1,3.82,5.15,5.2,1.63,1.09,1.92,2.5,1.54,4.31-.5,2.4-.84,4.83-1.25,7.23Z"/>
        <path class="cls-7" d="m185.45,299.77c-2.21-.7-4.41-1.45-6.65-2.09-9.32-2.67-17.71-7.23-25.7-12.59-9.49-6.36-17.47-14.35-24.29-23.43-3.36-4.47-6.16-9.38-8.72-14.4-5.24-10.28-8.34-21.16-9.87-32.55-.2-1.5-.44-3-.54-4.51-.12-1.94-.33-3.64-3.01-3.12-.93.18-1.24-.44-1.23-1.32.02-2.6.02-5.2-.02-7.8-.01-1.07.53-1.35,1.49-1.34,2.53.03,5.06.02,7.58,0,.95,0,1.5.25,1.49,1.34-.03,2.6-.05,5.2.02,7.8.03,1.29-.73,1.46-1.67,1.33-1.91-.27-2.3.6-2.15,2.34.92,10.5,3.39,20.57,7.44,30.34,3.31,8,7.85,15.21,12.86,22.16,2.01,2.78,4.68,5.08,6.86,7.75,3.6,4.39,8.2,7.64,12.49,11.23,3.38,2.83,7.3,4.88,11.12,7.07,12.71,7.27,26.45,10.95,40.99,11.94,1.16.08,2.24.35,2.12-1.4-.07-1.05.65-1.11,1.44-1.1,1.52.01,3.03.04,4.55-.01,1.3-.04,2.46-.11,2.35,1.79-.05.9.79.84,1.46.8,12.44-.81,24.46-3.47,35.71-8.9,5.5-2.65,11.06-5.43,15.81-9.31,4.55-3.71,9.15-7.35,13.28-11.64,7.59-7.88,13.75-16.64,18.41-26.45,5.12-10.78,8.2-22.15,9.14-34.09.14-1.76-.1-2.83-2.2-2.49-1.24.2-1.63-.45-1.6-1.64.06-2.38.09-4.77,0-7.15-.05-1.36.49-1.75,1.78-1.71,2.38.08,4.77.06,7.15,0,1.2-.03,1.69.39,1.65,1.63-.06,2.38-.07,4.77.01,7.15.05,1.33-.42,1.92-1.75,1.71-1.85-.3-2.22.61-2.39,2.29-1.24,12.28-3.97,24.2-9.28,35.41-2.78,5.87-5.96,11.58-9.87,16.74-5.04,6.65-10.64,12.81-17.17,18.12-11.59,9.41-24.44,16.22-38.97,19.78-.47.11-1.01.13-1.27.71.38.47.91.25,1.35.25,22.25.02,44.49,0,66.74.05,1.7,0,2.95-.34,4.09-1.73,1.76-2.14,4.69-2.18,6.5-.34,1.55,1.58,1.47,4.8-.15,6.31-1.86,1.73-4.57,1.63-6.31-.44-.89-1.05-1.81-1.4-3.14-1.4-28.82.03-57.64.03-86.46.03-1.35,0-2.86-.33-2.68,1.94.07.86-.82.79-1.49.78-1.3-.02-2.6.04-3.9,0-1.35-.04-3.02.46-2.89-1.97.05-1.03-1.06-.74-1.72-.75-3.11-.03-6.21-.01-9.32-.01-25.71,0-51.43.01-77.14-.02-1.66,0-2.98.19-4.15,1.66-1.48,1.86-4.38,1.81-6,.23-1.62-1.59-1.76-4.76-.28-6.32,1.64-1.72,4.72-1.97,6.19-.07,1.52,1.96,3.31,2.09,5.46,2.09,21.38-.05,42.76-.04,64.14-.04.71,0,1.43,0,2.14,0,.05-.21.09-.43.14-.64Zm-77.54-98.4c0,3.29.02,3.09,3.03,3.35,2.55.22,2.57-1.09,2.51-2.92-.11-3.35.25-2.62-3.14-2.87-2.34-.18-2.67.93-2.39,2.43Zm201.43,3.31q3.2-.03,3.18-3.32c-.02-2.42-.02-2.28-3.44-2.42-3.24-.13-1.81,2.18-2.08,3.58-.48,2.46,1.23,2.24,2.33,2.16Z"/>
        <path class="cls-7" d="m166.29,130.86c3.42-2.43,7.26-4.07,11.05-5.8,11.87-5.4,24.38-7.19,37.3-6.68,6.52.26,12.88,1.49,19.17,3.13.77.2,1.51.52,2.31.14-.32,2.68-.06,3.1,2.51,3.16,1.57.04,1.38.6.9,1.69-1.21,2.75-2.22,5.57-2.88,8.51-1.03,4.51-.9,9.1-.87,13.68-1.59-.72-3.18-1.45-4.76-2.17,0-.79,0-1.59,0-2.38,0-.7-.35-1.01-1.05-1.08-1.07-.1-2.12-.33-3.19-.43-6.93-.6-13.87-1.13-20.79-1.78-8.49-.8-16.96-1.74-25.45-2.54-7.36-.69-14.72-1.26-22.08-1.88.62-.55,1.24-1.1,1.85-1.65,3.82.95,7.81.89,11.64,1.1,5.2.29,10.34,1.55,15.57,1.12.14-.01.31-.02.43.04,3.72,1.86,7.85.86,11.75,1.42,5.85.83,11.81.94,17.73,1.84,4.76.72,9.71-.07,14.52.98,1.47.32,2.59-.38,2.52-2.11-.06-1.63-1.09-2.1-2.6-2.19-3.25-.2-6.46.18-9.78-.67-3.22-.83-6.74-.17-10.15-.93-3.5-.77-7.18-.34-10.82-.77-5.71-.66-11.49-1.69-17.33-1.11-.57.06-1.19.06-1.71-.12-2.75-.92-5.53-1.59-8.44-1.6-2.48-.01-5.01.31-7.34-.91Z"/>
        <path class="cls-7" d="m254.48,89.63c-.45-.24-.81-.35-1.06-.58-1.67-1.49-3.46-1.3-5.45-.69-1.43.44-2.48,1.06-2.94,2.51-.41,1.31-1.23,1.83-2.62,1.51-.69-.16-1.44-.17-2.16-.17-2.13.02-3.17-1.04-3.6-3.1-.41-1.95-3.9-3.65-5.9-3.19-1.04.24-2.06,1.3-3.22.24-1.46-1.33-2.37-3.06-3.35-4.72-.12-.2.11-.74.33-.97,2.09-2.14.88-4.44.34-6.69-.32-1.34-1.62-1.57-2.66-1.98-1.06-.42-1.48-.97-1.2-2.12.18-.76.23-1.58.22-2.37-.02-2.1.86-3.22,3.04-3.64,2.61-.49,4.44-4.46,3.18-6.85-.67-1.26-.4-1.98.53-2.74.61-.5,1.32-.92,1.84-1.51,1.46-1.68,2.86-1.64,4.66-.37,1.91,1.35,6.06-.06,6.88-2.3.6-1.66,1.59-2.06,3.14-1.76.57.11,1.15.24,1.72.21,2.1-.1,3.21.64,3.53,2.95.32,2.35,4.73,4.3,6.87,3.18,1.43-.74,2.34-.66,3.05.87.27.57.71,1.12,1.2,1.52,1.8,1.45,2,2.79.34,4.64-1.25,1.39.04,5.86,1.93,6.6,2.35.91,2.81,2.35,2.16,4.53-.14.47-.15,1-.14,1.51.04,1.54-.56,2.3-2.2,2.57-3.01.5-4.93,3.87-3.87,6.79.6,1.66.3,2.7-1.15,3.62-1.2.76-2.31,1.68-3.45,2.52Zm-2.13-19.21c.04-4.89-4.06-9.12-8.94-9.25-4.91-.13-9.2,4.17-9.19,9.21,0,4.81,4.11,8.93,8.93,8.97,5.03.04,9.17-3.97,9.21-8.93Z"/>
        <path class="cls-5" d="m166.29,130.86c2.33,1.22,4.86.9,7.34.91,2.92.01,5.7.68,8.44,1.6.53.18,1.15.17,1.71.12,5.83-.58,11.61.45,17.33,1.11,3.64.42,7.32,0,10.82.77,3.42.75,6.93.1,10.15.93,3.32.85,6.53.47,9.78.67,1.5.09,2.54.56,2.6,2.19.06,1.73-1.05,2.44-2.52,2.11-4.81-1.05-9.76-.26-14.52-.98-5.91-.9-11.88-1.01-17.73-1.84-3.9-.55-8.03.45-11.75-1.42-.12-.06-.29-.05-.43-.04-5.24.43-10.38-.82-15.57-1.12-3.84-.22-7.83-.15-11.64-1.1-4.16-.43-8.35-.7-12.48-1.32-7.2-1.08-14.44-1.66-21.68-2.28-1.31-.11-1.49-.61-1.37-1.78.12-1.19.5-1.62,1.74-1.5,10.56,1,21.12,2.02,31.69,2.87,2.68.22,5.4,1.14,8.11.11Z"/>
        <path class="cls-1" d="m125.34,121.72c-1.28.18-1.31-.59-1.59-1.16-.45-.92.07-1.32.79-1.66,2.35-1.1,4.63-2.38,7.06-3.26,4.12-1.48,7.86-3.74,11.89-5.42,8.61-3.6,17.06-7.57,25.59-11.35,9.33-4.13,18.67-8.23,27.98-12.42,5.43-2.44,10.87-4.86,16.34-7.21.96-.41,1.95-.8,2.59.48.67,1.33-.03,2.05-1.19,2.49-4.76,1.79-9.28,4.16-14.02,6.03-4.78,1.89-9.33,4.36-14.01,6.5-2.6,1.19-5.3,2.17-7.92,3.33-7.68,3.38-15.35,6.78-23.02,10.19-6.8,3.02-13.59,6.05-20.39,9.08-2.61,1.16-5.22,2.34-7.83,3.49-.85.38-1.74.68-2.29.89Z"/>
        <path class="cls-7" d="m117.78,128.04c-.1,5.51-4.49,9.78-10.02,9.72-5.47-.06-9.78-4.51-9.72-10.03.07-5.47,4.6-9.87,10.03-9.74,5.49.13,9.8,4.59,9.71,10.05Z"/>
        <path class="cls-7" d="m235.78,148.68c-.03-4.58-.16-9.17.87-13.68.67-2.93,1.67-5.76,2.88-8.51.48-1.09.67-1.65-.9-1.69-2.57-.06-2.83-.48-2.51-3.16.47-1.37,1.58-1.32,2.66-1.08,1.06.24,1.51,1.05,1.45,2.1-.05.89.19,1.44,1.13,1.78,2.15.79,4.24,1.72,6.35,2.59-1.7,2.67-3.22,5.62-3.44,8.66-.28,4.05-2.21,7.98-.54,12.31.65,1.69,1.3,3.86,1.09,5.93-.68-.11-1.07-.65-1.59-1.01-2.2-1.54-4.4-3.09-7.04-3.81-.14-.15-.28-.3-.43-.44Z"/>
        <path class="cls-6" d="m158.44,136.42c7.36.62,14.73,1.19,22.08,1.88,8.49.8,16.96,1.74,25.45,2.54,6.92.65,13.86,1.18,20.79,1.78,1.07.09,2.12.33,3.19.43.71.07,1.05.38,1.05,1.08,0,.79,0,1.59,0,2.38-1.16-.25-2.33-.5-3.49-.75-.38-.64-1.11-.64-1.69-.8-4.28-1.19-8.7-1.69-13.09-2.16-3.13-.34-6.39-.55-9.43.86-1.47-.18-2.92.1-4.37.26-2.8-.43-5.6-.96-8.42-1.28-5.48-.63-10.97-1.19-16.47-1.69-4.14-.38-8.3-.62-12.45-.94-1.72-.13-3.43-.31-5.14-.45-.52-.04-.77-.33-.86-.8.81-.93,1.71-1.77,2.83-2.33Z"/>
        <path class="cls-6" d="m262.58,174.25c2.66.79,5.32,1.62,8,2.35.81.22,1.7.25,2.55.23,4.78-.14,9.68.8,14.21-1.65.59-.32,1.42-.11,2.07.27.65,2.19,1.3,4.37,1.96,6.56-3.24,1.59-6.72,2.41-10.27,2.58-4.57.22-9.16.26-13.67-.79-.27-.06-.57-.02-.86-.02-.17-.13-.33-.27-.5-.4-.56-3.27-2.33-6.08-3.49-9.13Z"/>
        <path class="cls-5" d="m147.67,79.38c-4.21-.1-7.21-3.28-7.17-7.59.04-4.14,3.38-7.29,7.61-7.18,4.1.11,7.47,3.57,7.35,7.52-.13,4.2-3.52,7.34-7.78,7.24Z"/>
        <path class="cls-1" d="m322.04,98.4c0,3.98-3.07,6.98-7.06,6.93-3.56-.05-6.41-3.18-6.39-7.03.02-3.78,2.95-6.89,6.54-6.83,3.42.06,7.61,2.18,6.91,6.92Z"/>
        <path class="cls-7" d="m272.91,76.51c.71.32,1.24.55,1.76.79,3.81,1.72,7.69,3.31,11.42,5.2,5.92,3,11.95,5.72,18.01,8.41,2.08.92.49,1.96.29,2.95-.27,1.31-1.08,1.11-1.94.62-6.43-3.61-13.41-6.05-19.96-9.38-3.46-1.76-6.98-3.38-10.51-4.99-.53-.24-1.29-.45-.8-1.17.56-.82.67-2.06,1.73-2.44Z"/>
        <path class="cls-1" d="m179.94,69.81c10.09-.08,20.18-.71,30.28-.47.58.01,1.16-.01,1.73.02.88.05,1.26.58,1.28,1.43.02.94-.35,1.53-1.35,1.58-.29.01-.58.01-.87.01-13.13-.06-26.25.75-39.38.43-1.96-.05-3.83.62-5.8.47-1.04-.08-1.58-.3-1.59-1.48-.02-1.25.51-1.5,1.67-1.63,4.67-.51,9.36-.34,14.04-.36Z"/>
        <path class="cls-7" d="m147.9,53.73c6.47.65,11.83,3.21,15.53,8.83.99,1.5-.49,1.57-1,2.01-.59.51-1.44,1.39-2.27,0-3.72-6.24-10.45-7.69-15.67-6.48-1.2.28-2.35.68-3.42,1.32-1.64.98-2.74.52-3.43-1.28-.28-.73.05-1.11.61-1.39,3.04-1.51,6.06-3.09,9.64-3.01Z"/>
        <path class="cls-5" d="m130.09,73.1c-.18-1.01.37-1.27,1.36-1.3,1.16-.03,1.78.17,1.98,1.56.83,5.87,4.11,9.98,9.55,12.28,1.23.52,2.65.63,4,.85,1.51.25.88,1.39.97,2.21.12.96-.4,1.18-1.3,1.18-8.13.04-16.69-8.57-16.55-16.78Z"/>
        <path class="cls-1" d="m318.57,183.13c0,3.55-1.61,5.43-4.64,5.42-3.5-.01-5.22-1.87-5.38-5.3-.17-3.49,2.44-4.76,5.01-5.04,2.84-.3,5.01,2.04,5.01,4.91Z"/>
        <path class="cls-1" d="m255.45,94.52c1.19.42,1.82,1.85,2.22,2.93.67,1.83,1.53,3.55,2.41,5.26.68,1.33.04,1.77-1,2.25-1.06.49-1.62.37-2.09-.86-.91-2.37-2.07-4.64-3.11-6.95-.68-1.51-.12-2.63,1.57-2.63Z"/>
        <path class="cls-5" d="m120.07,113.85c.01,1.51-.87,2.36-2.34,2.46-1.28.08-2.04-.77-2.08-1.99-.05-1.43.56-2.57,2.2-2.61,1.33-.03,2.16.64,2.22,2.13Z"/>
        <path class="cls-7" d="m203.96,105.08c0-1.94.74-2.77,2.1-2.69,1.42.08,2.47.85,2.43,2.45-.04,1.41-1,2.09-2.27,2.05-1.38-.05-2.24-.85-2.26-1.81Z"/>
        <path class="cls-5" d="m127.16,104.11c-.26,1.37-.88,2.37-2.41,2.27-1.53-.1-2.13-1.1-1.99-2.52.14-1.43.95-2.19,2.48-2.05,1.46.13,1.96,1,1.92,2.31Z"/>
        <path class="cls-7" d="m174.82,84.78c.85.1,1.73.77,1.65,2.17-.08,1.41-1.04,2.04-2.38,1.91-1.31-.12-2.16-.87-2.11-2.27.05-1.5,1.03-1.93,2.84-1.81Z"/>
        <path class="cls-7" d="m216.78,112.7c-1.41-.23-2.24-.97-2.13-2.34.11-1.36.96-2.08,2.36-1.87,1.41.21,2.25,1.03,2.04,2.52-.18,1.3-1.14,1.73-2.27,1.69Z"/>
        <path class="cls-7" d="m227.5,118.78c-1.34-.15-2.32-.74-2.3-2.28.02-1.37,1.01-1.95,2.16-1.91,1.31.06,2.39.7,2.31,2.29-.06,1.32-.85,1.91-2.18,1.9Z"/>
        <path class="cls-7" d="m163.49,82.79c-1.2-.24-2.23-.74-2.15-2.2.08-1.37.94-2.13,2.29-2.04,1.43.09,2.27.94,2.16,2.43-.1,1.34-1.07,1.76-2.31,1.82Z"/>
        <path class="cls-7" d="m195.53,100.75c-1.36-.13-2.16-.78-2.13-2.19.03-1.32.78-1.98,2.04-1.95,1.44.03,2.29.85,2.25,2.3-.04,1.33-1,1.77-2.16,1.85Z"/>
        <path class="cls-5" d="m129.98,94c.1-1.15.65-2.09,2.08-2.13,1.45-.04,2.13.9,2.08,2.21-.05,1.37-.83,2.38-2.32,2.31-1.3-.06-1.84-.98-1.84-2.38Z"/>
        <path class="cls-2" d="m266.06,183.38c.17.13.33.27.5.4.45,2.9,1.54,5.65,1.95,8.58,1.93,13.66-.12,26.52-7.02,38.6-4.45,7.78-10.31,14.12-17.6,19.31-9.23,6.57-19.48,9.77-30.69,10.32-12.24.6-23.71-1.98-34.08-8.54-5.41-3.42-10.31-7.53-14.4-12.61-6.72-8.34-11.08-17.68-12.75-28.22-1.51-9.55-.76-18.89,2.36-28.14,2.75-8.17,7.01-15.42,12.83-21.58,8.39-8.88,18.61-14.92,30.81-17.2.34-.06.65-.26.97-.39,1.45-.16,2.9-.44,4.37-.26.91.48,1.88.6,2.89.69,4.13.38,8.25.98,12.39,1.15,2.97.13,5.93,1.2,8.93.26,1.16.25,2.33.5,3.49.75,1.59.72,3.18,1.45,4.76,2.17.14.15.28.3.43.44.53,5.61,2.4,10.88,5.24,15.6,3.53,5.88,8.14,10.95,14.39,14.2,3.31,1.71,6.66,3.33,10.22,4.46Zm-81.82,11.07c-.18,1.28-.37,2.55-.55,3.83-1.91,13.42,6.7,26.42,19.64,29.59,16.14,3.95,31.84-6.3,33.52-23.28,1-10.12-2.76-18.39-10.83-24.51-5.87-4.46-12.72-5.54-19.93-4.77-.9-1.38-1.56-3.03-2.75-4.09-3.18-2.84-6.83-4.64-11.33-4.38-5.76.33-9.95,2.99-12.61,8.01-2.83,5.35-2.1,10.5,1.13,15.47,1.03,1.59,2.56,2.68,3.72,4.13Z"/>
        <path class="cls-6" d="m266.06,183.38c-3.56-1.13-6.92-2.75-10.22-4.46-6.25-3.24-10.87-8.31-14.39-14.2-2.83-4.73-4.71-9.99-5.24-15.6,2.64.72,4.85,2.27,7.04,3.81.52.36.91.9,1.59,1.01,3.01,9.31,9.24,15.81,17.74,20.32,1.15,3.05,2.92,5.86,3.48,9.13Z"/>
        <path class="cls-8" d="m107.91,201.38c-.28-1.5.05-2.61,2.39-2.43,3.4.26,3.03-.48,3.14,2.87.06,1.83.04,3.14-2.51,2.92-3.01-.26-3.03-.06-3.03-3.35Z"/>
        <path class="cls-8" d="m309.34,204.69c-1.1.07-2.81.3-2.33-2.16.27-1.4-1.16-3.71,2.08-3.58,3.41.14,3.42,0,3.44,2.42q.02,3.29-3.18,3.32Z"/>
        <path class="cls-3" d="m227.52,145.76c-3,.94-5.96-.14-8.93-.26-4.14-.17-8.26-.77-12.39-1.15-1.01-.09-1.99-.22-2.89-.69,3.04-1.41,6.3-1.2,9.43-.86,4.39.47,8.81.98,13.09,2.16.58.16,1.31.17,1.69.8Z"/>
        <path class="cls-5" d="m206.09,175.31c7.21-.77,14.05.32,19.93,4.77,8.07,6.12,11.83,14.39,10.83,24.51-1.67,16.98-17.38,27.23-33.52,23.28-12.94-3.17-21.55-16.17-19.64-29.59.18-1.28.37-2.56.55-3.83.8-.2,1.37.33,2.01.62,8.76,4.04,18.84-1.14,20.73-10.61.63-3.18-.09-6.16-.89-9.16Zm-11.67,27.37c-1.65,0-2.88,1.23-2.88,2.85,0,1.65,1.18,2.82,2.89,2.84,1.56.02,2.96-1.33,2.94-2.84-.02-1.53-1.39-2.86-2.95-2.86Z"/>
        <circle class="cls-5" cx="276.73" cy="143.69" r="34.58"/>
        <g>
          <path class="cls-4" d="m293.63,140.73h0c0,3.25-2.64,5.89-5.89,5.89h-22.03c-3.25,0-5.89-2.64-5.89-5.89h0c0-.92.75-1.67,1.67-1.67h30.47c.92,0,1.67.75,1.67,1.67Z"/>
          <rect class="cls-4" x="271.39" y="126.29" width="10.7" height="10.7" rx="5.35" ry="5.35"/>
          <path class="cls-4" d="m290.17,154.15l-4.16-4.16-3.92-3.92-2.42-2.42c-.78-.78-1.83-1.21-2.92-1.21h0c-1.1,0-2.15.44-2.92,1.21l-2.42,2.42-3.92,3.92-4.28,4.28c-2.6,2.6,0,5.34,0,5.34,1.48,1.48,3.87,1.48,5.34,0l6.66-6.66.02-.02c.52-.75.79-1.64.79-2.56v-1.62h1.44v1.63c0,.89.27,1.76.76,2.51l6.72,6.72c1.56,1.56,4.15,1.47,5.59-.27,1.26-1.52,1.03-3.79-.36-5.18Z"/>
        </g>
      </g>
    </g>
  </g>
</svg>