<svg width="681" height="693" viewBox="0 0 681 693" fill="none" xmlns="http://www.w3.org/2000/svg">
<g clip-path="url(#clip0_78_127)">
<path d="M681 0H0V693H681V0Z" fill="#DDEACE"/>
<path d="M475.857 297.217C478.503 305.48 479.189 314.053 479.663 322.609C480.365 335.379 479.565 348.116 476.38 360.511C473.685 370.978 470.337 381.217 465.323 390.949C459.722 401.809 453.042 411.802 444.941 420.898C438.262 428.393 430.635 434.762 422.6 440.804C413.258 447.826 402.952 452.741 392.206 457.003C361.96 469.005 331.289 469.234 300.569 459.436C280.824 453.149 263.398 442.437 248.454 428.067C238.851 418.84 230.686 408.291 224.234 396.599C219.286 387.618 215.383 378.179 212.41 368.316C205.371 344.932 204.93 321.352 210.516 297.805C214.403 281.361 221.115 265.945 231.061 252.049C237.79 242.643 245.172 233.89 254.154 226.574C254.301 227.358 254.709 227.816 255.559 227.881C258.368 228.109 261.16 228.387 263.953 228.616C270.731 229.138 277.525 229.53 284.286 230.151C293.252 230.967 302.218 231.882 311.185 232.91C315.79 233.433 320.347 234.298 324.936 235.001C324.413 235.213 323.891 235.539 323.352 235.637C303.427 239.361 286.752 249.224 273.034 263.725C263.529 273.767 256.588 285.606 252.08 298.964C247.001 314.069 245.76 329.337 248.226 344.916C250.937 362.127 258.074 377.379 269.049 390.998C275.728 399.294 283.731 406.005 292.566 411.59C309.502 422.302 328.235 426.515 348.225 425.536C366.533 424.637 383.273 419.412 398.347 408.683C410.269 400.192 419.839 389.855 427.091 377.151C438.36 357.424 441.708 336.424 438.556 314.118C437.886 309.333 436.106 304.859 435.371 300.107C435.845 300.107 436.335 300.042 436.775 300.14C444.141 301.854 451.654 301.789 459.101 301.43C464.899 301.152 470.582 299.813 475.874 297.217H475.857Z" fill="#003B28"/>
<path d="M404.569 207.453C416.067 188.445 432.954 179.251 455.132 179.823C466.711 180.117 476.984 184.346 485.95 191.433C505.646 206.995 512.342 233.694 502.315 256.719C498.101 266.386 491.601 274.241 482.586 280.152C479.303 282.308 475.58 283.778 472.673 286.505C471.595 285.884 470.255 285.541 469.292 286.064C461.894 290.065 453.891 288.53 446.085 288.758C444.696 288.807 443.243 288.758 441.92 288.383C437.543 287.191 433.215 285.835 428.855 284.545C414.956 277.18 404.798 266.566 399.882 251.363C400.225 247.967 399.163 244.439 398.102 241.68C395.375 234.609 398.51 228.191 398.984 221.578C399.327 216.63 401.809 211.813 404.586 207.436L404.569 207.453ZM435.208 257.83C435.42 260.246 436.481 261.03 438.719 259.887C442.394 258.009 446.101 256.229 449.743 254.27C451.686 253.225 453.417 253.159 455.394 254.27C458.889 256.213 462.482 258.009 466.058 259.773C468.998 261.226 470.337 260.361 469.962 257.062C469.57 253.437 469.08 249.795 468.247 246.252C467.544 243.28 468.034 241.108 470.386 239.051C473.13 236.666 475.563 233.939 478.095 231.31C478.879 230.51 480.12 229.824 479.597 228.387C479.107 227.048 477.784 226.95 476.657 226.787C472.705 226.183 468.753 225.513 464.768 225.138C462.596 224.925 461.567 223.815 460.473 222.068C458.268 218.557 457.01 214.605 455.051 210.996C454.479 209.935 453.973 208.759 452.552 208.841C451.245 208.906 450.559 209.853 450.02 211.012C448.306 214.752 446.444 218.442 444.762 222.198C443.945 223.995 442.753 224.844 440.76 225.072C436.432 225.562 432.137 226.313 427.826 226.983C425.474 227.342 424.396 228.665 426.29 230.51C429.149 233.286 431.353 236.748 434.701 239.002C437.363 240.781 437.837 243.084 437.216 246.04C436.4 249.959 435.845 253.927 435.175 257.846L435.208 257.83Z" fill="#3EB55B"/>
<path d="M302.872 489.515C299.262 488.372 295.669 487.148 292.011 486.103C276.79 481.742 263.088 474.296 250.039 465.543C234.54 455.158 221.507 442.11 210.369 427.283C204.881 419.984 200.308 411.966 196.128 403.768C187.57 386.981 182.507 369.215 180.008 350.615C179.682 348.166 179.29 345.716 179.126 343.25C178.93 340.082 178.587 337.306 174.21 338.155C172.692 338.449 172.185 337.437 172.202 336C172.234 331.754 172.234 327.508 172.169 323.263C172.153 321.515 173.035 321.058 174.602 321.075C178.734 321.124 182.866 321.107 186.982 321.075C188.533 321.075 189.432 321.483 189.415 323.263C189.366 327.508 189.334 331.754 189.448 336C189.497 338.106 188.256 338.384 186.72 338.172C183.601 337.731 182.964 339.152 183.209 341.993C184.712 359.139 188.746 375.583 195.36 391.537C200.766 404.601 208.18 416.375 216.363 427.724C219.645 432.263 224.006 436.019 227.566 440.379C233.446 447.548 240.958 452.855 247.964 458.718C253.485 463.339 259.887 466.687 266.125 470.263C286.883 482.134 309.323 488.144 333.069 489.76C334.963 489.891 336.727 490.332 336.531 487.474C336.417 485.76 337.593 485.662 338.883 485.678C341.366 485.694 343.832 485.743 346.314 485.662C348.437 485.596 350.332 485.482 350.152 488.585C350.07 490.054 351.442 489.956 352.536 489.891C372.853 488.568 392.484 484.225 410.857 475.358C419.839 471.03 428.92 466.491 436.677 460.155C444.108 454.096 451.621 448.152 458.366 441.147C470.762 428.279 480.822 413.974 488.433 397.955C496.794 380.351 501.825 361.785 503.36 342.287C503.588 339.413 503.197 337.666 499.767 338.221C497.742 338.547 497.105 337.486 497.154 335.543C497.252 331.656 497.301 327.753 497.154 323.867C497.072 321.646 497.954 321.009 500.061 321.075C503.948 321.205 507.851 321.173 511.738 321.075C513.698 321.026 514.498 321.711 514.433 323.736C514.335 327.623 514.318 331.526 514.449 335.412C514.531 337.584 513.763 338.547 511.591 338.204C508.57 337.715 507.965 339.201 507.688 341.944C505.663 361.997 501.204 381.462 492.532 399.767C487.992 409.353 482.798 418.677 476.412 427.103C468.181 437.963 459.036 448.022 448.371 456.693C429.442 472.059 408.456 483.18 384.726 488.993C383.959 489.173 383.077 489.205 382.652 490.152C383.273 490.92 384.138 490.561 384.857 490.561C421.195 490.593 457.517 490.561 493.855 490.642C496.631 490.642 498.673 490.087 500.534 487.817C503.409 484.323 508.194 484.257 511.15 487.262C513.682 489.842 513.551 495.1 510.905 497.566C507.867 500.391 503.441 500.228 500.6 496.848C499.146 495.133 497.644 494.561 495.472 494.561C448.404 494.61 401.336 494.61 354.268 494.61C352.063 494.61 349.597 494.071 349.891 497.778C350.005 499.183 348.551 499.068 347.457 499.052C345.334 499.019 343.211 499.117 341.088 499.052C338.883 498.987 336.156 499.803 336.368 495.835C336.45 494.153 334.637 494.627 333.559 494.61C328.48 494.561 323.417 494.594 318.338 494.594C276.349 494.594 234.344 494.61 192.355 494.561C189.644 494.561 187.488 494.872 185.577 497.272C183.16 500.309 178.424 500.228 175.778 497.648C173.132 495.051 172.904 489.875 175.321 487.327C177.999 484.519 183.03 484.11 185.43 487.213C187.913 490.414 190.836 490.626 194.347 490.626C229.265 490.544 264.182 490.561 299.099 490.561C300.259 490.561 301.434 490.561 302.594 490.561C302.676 490.218 302.741 489.858 302.823 489.515H302.872ZM176.236 328.831C176.236 334.204 176.268 333.877 181.184 334.302C185.349 334.661 185.381 332.522 185.283 329.533C185.104 324.063 185.692 325.255 180.155 324.847C176.334 324.553 175.795 326.365 176.252 328.815L176.236 328.831ZM505.205 334.236C508.689 334.204 510.421 332.396 510.399 328.815C510.366 324.863 510.366 325.092 504.781 324.863C499.489 324.651 501.825 328.423 501.384 330.709C500.6 334.726 503.392 334.367 505.189 334.236H505.205Z" fill="#003B28"/>
<path d="M271.58 213.69C277.166 209.722 283.437 207.044 289.627 204.219C309.012 195.401 329.443 192.478 350.544 193.311C361.192 193.736 371.579 195.744 381.852 198.422C383.109 198.749 384.318 199.271 385.624 198.651C385.102 203.027 385.526 203.713 389.724 203.811C392.288 203.876 391.978 204.791 391.194 206.571C389.217 211.061 387.568 215.666 386.49 220.467C384.808 227.832 385.02 235.327 385.069 242.806C382.472 241.631 379.876 240.439 377.295 239.263C377.295 237.973 377.295 236.666 377.295 235.376C377.295 234.233 376.724 233.727 375.58 233.613C373.833 233.449 372.118 233.074 370.371 232.911C359.053 231.931 347.719 231.065 336.417 230.004C322.551 228.697 308.718 227.162 294.853 225.856C282.833 224.729 270.813 223.799 258.792 222.786C259.805 221.888 260.817 220.99 261.814 220.092C268.052 221.643 274.569 221.545 280.824 221.888C289.316 222.362 297.711 224.419 306.252 223.717C306.481 223.701 306.759 223.684 306.955 223.782C313.03 226.82 319.775 225.187 326.144 226.101C335.698 227.456 345.432 227.636 355.1 229.106C362.874 230.281 370.959 228.991 378.814 230.706C381.215 231.229 383.044 230.086 382.93 227.26C382.832 224.599 381.15 223.831 378.683 223.684C373.376 223.358 368.133 223.978 362.711 222.59C357.452 221.235 351.703 222.313 346.134 221.072C340.418 219.814 334.408 220.516 328.463 219.814C319.138 218.736 309.698 217.054 300.161 218.002C299.23 218.1 298.217 218.1 297.368 217.806C292.877 216.303 288.336 215.209 283.584 215.193C279.534 215.176 275.402 215.699 271.596 213.707L271.58 213.69Z" fill="#003B28"/>
<path d="M415.61 146.363C414.875 145.971 414.287 145.792 413.878 145.416C411.151 142.983 408.228 143.293 404.978 144.289C402.642 145.008 400.927 146.02 400.176 148.388C399.506 150.527 398.167 151.376 395.897 150.854C394.77 150.592 393.545 150.576 392.369 150.576C388.891 150.609 387.192 148.878 386.49 145.514C385.82 142.33 380.121 139.554 376.854 140.305C375.156 140.697 373.49 142.428 371.596 140.697C369.211 138.525 367.725 135.7 366.124 132.989C365.928 132.662 366.304 131.781 366.663 131.405C370.077 127.911 368.101 124.155 367.219 120.48C366.696 118.292 364.573 117.917 362.874 117.247C361.143 116.561 360.457 115.663 360.915 113.785C361.209 112.544 361.29 111.205 361.274 109.915C361.241 106.486 362.678 104.657 366.239 103.971C370.501 103.171 373.49 96.6881 371.432 92.7853C370.338 90.7278 370.779 89.552 372.298 88.311C373.294 87.4945 374.454 86.8086 375.303 85.8452C377.687 83.1018 379.974 83.1671 382.913 85.241C386.033 87.4455 392.81 85.143 394.15 81.4852C395.13 78.7744 396.746 78.1212 399.278 78.6111C400.209 78.7908 401.156 79.003 402.087 78.9541C405.516 78.7908 407.329 79.9992 407.852 83.7713C408.375 87.6088 415.577 90.7931 419.072 88.9642C421.407 87.7558 422.893 87.8864 424.053 90.3848C424.494 91.3156 425.213 92.2138 426.013 92.867C428.953 95.2348 429.279 97.4229 426.568 100.444C424.527 102.714 426.633 110.013 429.72 111.222C433.558 112.708 434.309 115.059 433.248 118.619C433.019 119.386 433.003 120.252 433.019 121.085C433.084 123.599 432.105 124.841 429.426 125.281C424.51 126.098 421.375 131.601 423.106 136.369C424.086 139.08 423.596 140.778 421.228 142.281C419.268 143.522 417.455 145.024 415.593 146.396L415.61 146.363ZM412.131 114.994C412.196 107.008 405.5 100.101 397.53 99.8887C389.511 99.6764 382.505 106.698 382.521 114.928C382.521 122.783 389.234 129.511 397.106 129.576C405.321 129.641 412.082 123.093 412.147 114.994H412.131Z" fill="#003B28"/>
<path d="M271.58 213.69C275.385 215.683 279.517 215.16 283.568 215.176C288.336 215.193 292.877 216.287 297.352 217.789C298.217 218.083 299.23 218.067 300.144 217.985C309.666 217.038 319.105 218.72 328.447 219.798C334.392 220.484 340.402 219.798 346.118 221.055C351.703 222.28 357.436 221.218 362.695 222.574C368.117 223.962 373.359 223.341 378.667 223.668C381.117 223.815 382.815 224.582 382.913 227.244C383.011 230.069 381.199 231.229 378.798 230.69C370.942 228.975 362.858 230.265 355.084 229.089C345.432 227.62 335.682 227.44 326.128 226.085C319.759 225.187 313.014 226.819 306.938 223.766C306.742 223.668 306.465 223.684 306.236 223.701C297.678 224.403 289.284 222.361 280.807 221.872C274.536 221.512 268.02 221.627 261.797 220.075C255.003 219.373 248.16 218.932 241.415 217.92C229.657 216.156 217.832 215.209 206.008 214.197C203.869 214.017 203.575 213.201 203.771 211.29C203.967 209.347 204.587 208.645 206.612 208.84C223.859 210.473 241.105 212.139 258.368 213.527C262.745 213.886 267.187 215.389 271.613 213.707L271.58 213.69Z" fill="#3EB55B"/>
<path opacity="0.14" d="M204.702 198.765C202.611 199.059 202.562 197.802 202.105 196.871C201.37 195.368 202.219 194.715 203.395 194.16C207.233 192.364 210.957 190.274 214.925 188.837C221.654 186.42 227.762 182.729 234.344 179.986C248.405 174.107 262.206 167.624 276.137 161.452C291.374 154.707 306.628 148.012 321.833 141.17C330.701 137.186 339.585 133.234 348.519 129.396C350.087 128.727 351.704 128.09 352.749 130.18C353.843 132.352 352.7 133.528 350.805 134.246C343.031 137.169 335.649 141.039 327.908 144.093C320.102 147.179 312.671 151.213 305.028 154.707C300.781 156.651 296.372 158.251 292.093 160.145C279.55 165.665 267.024 171.217 254.497 176.785C243.392 181.717 232.302 186.665 221.197 191.613C216.934 193.507 212.672 195.434 208.409 197.312C207.021 197.932 205.567 198.422 204.669 198.765H204.702Z" fill="#003B28"/>
<path d="M192.355 209.085C192.192 218.083 185.022 225.056 175.991 224.958C167.057 224.86 160.018 217.593 160.116 208.579C160.23 199.647 167.629 192.462 176.497 192.674C185.463 192.886 192.502 200.169 192.355 209.085Z" fill="#003B28"/>
<path d="M385.069 242.79C385.02 235.311 384.808 227.816 386.49 220.451C387.584 215.666 389.217 211.045 391.194 206.554C391.977 204.774 392.288 203.86 389.724 203.795C385.526 203.697 385.102 203.011 385.624 198.634C386.392 196.397 388.205 196.479 389.969 196.871C391.7 197.263 392.435 198.585 392.337 200.3C392.255 201.753 392.647 202.651 394.182 203.207C397.694 204.497 401.107 206.015 404.553 207.436C401.777 211.796 399.294 216.613 398.935 221.578C398.478 228.191 395.325 234.609 398.053 241.679C399.114 244.439 400.176 247.983 399.833 251.363C398.722 251.183 398.086 250.302 397.236 249.714C393.643 247.199 390.05 244.668 385.739 243.492C385.51 243.247 385.281 243.002 385.036 242.774L385.069 242.79Z" fill="#003B28"/>
<path opacity="0.67" d="M258.76 222.77C270.78 223.782 282.816 224.713 294.82 225.84C308.686 227.146 322.519 228.681 336.384 229.988C347.686 231.049 359.02 231.914 370.338 232.894C372.085 233.041 373.8 233.433 375.548 233.596C376.707 233.711 377.263 234.217 377.263 235.36C377.263 236.65 377.263 237.956 377.263 239.246C375.368 238.838 373.457 238.43 371.563 238.022C370.942 236.977 369.75 236.977 368.803 236.715C361.813 234.772 354.594 233.956 347.425 233.188C342.313 232.633 336.989 232.29 332.024 234.592C329.623 234.299 327.255 234.756 324.887 235.017C320.314 234.315 315.741 233.449 311.135 232.927C302.186 231.898 293.22 230.984 284.237 230.167C277.476 229.547 270.682 229.155 263.904 228.632C261.095 228.42 258.302 228.126 255.51 227.897C254.66 227.832 254.252 227.358 254.105 226.591C255.428 225.072 256.898 223.701 258.727 222.786L258.76 222.77Z" fill="#003B28"/>
<path opacity="0.67" d="M428.838 284.545C433.182 285.835 437.527 287.19 441.904 288.382C443.226 288.742 444.68 288.791 446.068 288.758C453.875 288.529 461.877 290.064 469.275 286.064C470.239 285.541 471.595 285.884 472.656 286.504C473.718 290.081 474.779 293.641 475.857 297.217C470.566 299.813 464.882 301.152 459.085 301.43C451.621 301.789 444.125 301.854 436.759 300.14C436.318 300.042 435.828 300.107 435.355 300.107C435.077 299.895 434.816 299.666 434.538 299.454C433.623 294.114 430.733 289.525 428.838 284.545Z" fill="#003B28"/>
<path d="M241.17 129.625C234.295 129.462 229.395 124.269 229.461 117.231C229.526 110.471 234.981 105.327 241.889 105.506C248.585 105.686 254.089 111.336 253.893 117.786C253.681 124.645 248.144 129.772 241.187 129.609L241.17 129.625Z" fill="#3EB55B"/>
<path opacity="0.14" d="M525.947 160.684C525.947 167.184 520.933 172.082 514.416 172.001C508.602 171.919 503.948 166.808 503.98 160.521C504.013 154.348 508.798 149.27 514.661 149.368C520.247 149.466 527.09 152.928 525.947 160.668V160.684Z" fill="#003B28"/>
<path d="M445.709 124.938C446.868 125.461 447.734 125.837 448.583 126.229C454.806 129.037 461.142 131.634 467.234 134.72C476.902 139.619 486.75 144.061 496.647 148.453C500.044 149.956 497.448 151.654 497.121 153.27C496.68 155.41 495.357 155.083 493.953 154.283C483.451 148.388 472.052 144.403 461.355 138.966C455.704 136.092 449.955 133.446 444.19 130.817C443.324 130.425 442.083 130.082 442.883 128.907C443.798 127.568 443.978 125.543 445.709 124.922V124.938Z" fill="#003B28"/>
<path opacity="0.14" d="M293.873 113.998C310.352 113.867 326.83 112.838 343.325 113.23C344.273 113.246 345.22 113.214 346.151 113.263C347.588 113.344 348.208 114.21 348.241 115.598C348.274 117.133 347.67 118.096 346.036 118.178C345.563 118.194 345.089 118.194 344.616 118.194C323.172 118.096 301.745 119.419 280.301 118.897C277.1 118.815 274.046 119.909 270.829 119.664C269.13 119.533 268.248 119.174 268.232 117.247C268.199 115.206 269.065 114.798 270.959 114.585C278.586 113.753 286.246 114.03 293.889 113.998H293.873Z" fill="#003B28"/>
<path d="M241.546 87.7394C252.113 88.8008 260.867 92.9812 266.909 102.159C268.526 104.608 266.109 104.722 265.276 105.441C264.313 106.274 262.924 107.711 261.569 105.441C255.493 95.251 244.502 92.8832 235.977 94.8591C234.017 95.3164 232.139 95.9696 230.392 97.0147C227.713 98.615 225.917 97.8638 224.79 94.9245C224.332 93.7324 224.871 93.1119 225.786 92.6546C230.751 90.1888 235.683 87.6087 241.53 87.7394H241.546Z" fill="#003B28"/>
<path d="M212.459 119.37C212.165 117.721 213.063 117.296 214.68 117.247C216.575 117.198 217.587 117.525 217.914 119.795C219.27 129.38 224.626 136.092 233.511 139.847C235.52 140.697 237.839 140.876 240.043 141.235C242.51 141.644 241.481 143.505 241.628 144.844C241.824 146.412 240.974 146.771 239.505 146.771C226.227 146.837 212.247 132.777 212.476 119.37H212.459Z" fill="#3EB55B"/>
<path opacity="0.14" d="M520.28 299.046C520.28 304.843 517.65 307.913 512.702 307.897C506.985 307.88 504.176 304.843 503.915 299.242C503.637 293.543 507.9 291.469 512.097 291.012C516.736 290.522 520.28 294.343 520.28 299.03V299.046Z" fill="#003B28"/>
<path opacity="0.14" d="M417.194 154.348C419.137 155.034 420.166 157.369 420.819 159.133C421.914 162.121 423.318 164.93 424.755 167.722C425.866 169.894 424.821 170.613 423.122 171.397C421.391 172.197 420.476 172.001 419.709 169.992C418.223 166.122 416.328 162.415 414.63 158.643C413.519 156.177 414.434 154.348 417.194 154.348Z" fill="#003B28"/>
<path d="M196.095 185.914C196.111 188.379 194.674 189.767 192.273 189.931C190.183 190.061 188.942 188.673 188.876 186.681C188.795 184.346 189.791 182.484 192.469 182.419C194.641 182.37 195.997 183.464 196.095 185.897V185.914Z" fill="#3EB55B"/>
<path d="M333.102 171.592C333.102 168.424 334.31 167.069 336.531 167.2C338.85 167.33 340.565 168.588 340.5 171.201C340.435 173.503 338.867 174.613 336.793 174.548C334.539 174.466 333.134 173.16 333.102 171.592Z" fill="#003B28"/>
<path d="M207.674 170.009C207.249 172.246 206.237 173.879 203.738 173.715C201.239 173.552 200.259 171.919 200.488 169.6C200.717 167.265 202.04 166.024 204.538 166.253C206.923 166.465 207.739 167.886 207.674 170.025V170.009Z" fill="#3EB55B"/>
<path d="M285.511 138.443C286.899 138.606 288.336 139.701 288.206 141.987C288.075 144.289 286.507 145.318 284.319 145.106C282.179 144.91 280.791 143.685 280.873 141.399C280.954 138.949 282.555 138.247 285.511 138.443Z" fill="#003B28"/>
<path d="M354.039 184.036C351.736 183.66 350.381 182.452 350.56 180.214C350.74 177.994 352.128 176.818 354.415 177.161C356.717 177.504 358.089 178.843 357.746 181.276C357.452 183.399 355.884 184.101 354.039 184.036Z" fill="#003B28"/>
<path d="M371.547 193.964C369.358 193.719 367.758 192.756 367.79 190.241C367.823 188.004 369.44 187.057 371.318 187.122C373.457 187.22 375.221 188.265 375.091 190.862C374.993 193.017 373.702 193.981 371.53 193.964H371.547Z" fill="#003B28"/>
<path d="M267.007 135.194C265.047 134.802 263.365 133.985 263.496 131.601C263.627 129.364 265.031 128.123 267.236 128.27C269.571 128.417 270.943 129.805 270.764 132.238C270.6 134.426 269.016 135.112 266.991 135.21L267.007 135.194Z" fill="#003B28"/>
<path d="M319.334 164.522C317.113 164.309 315.806 163.248 315.855 160.945C315.904 158.79 317.129 157.712 319.187 157.761C321.539 157.81 322.927 159.149 322.862 161.517C322.796 163.689 321.228 164.407 319.334 164.538V164.522Z" fill="#003B28"/>
<path d="M212.28 153.499C212.443 151.621 213.341 150.086 215.677 150.021C218.045 149.956 219.155 151.491 219.074 153.63C218.992 155.867 217.718 157.516 215.285 157.402C213.162 157.304 212.28 155.802 212.28 153.516V153.499Z" fill="#3EB55B"/>
<path d="M434.522 299.454C434.799 299.666 435.061 299.895 435.338 300.107C436.073 304.843 437.853 309.333 438.523 314.118C441.675 336.424 438.327 357.424 427.058 377.151C419.79 389.855 410.22 400.208 398.314 408.683C383.24 419.412 366.5 424.638 348.192 425.536C328.202 426.515 309.47 422.302 292.534 411.59C283.698 406.005 275.696 399.294 269.016 390.998C258.041 377.379 250.92 362.127 248.193 344.916C245.727 329.321 246.952 314.069 252.047 298.964C256.539 285.623 263.496 273.784 273.001 263.725C286.703 249.224 303.394 239.361 323.319 235.638C323.874 235.54 324.38 235.213 324.903 235.001C327.271 234.739 329.639 234.282 332.04 234.576C333.526 235.36 335.11 235.556 336.76 235.703C343.505 236.323 350.234 237.303 356.995 237.581C361.845 237.793 366.68 239.54 371.579 238.005C373.474 238.414 375.384 238.822 377.279 239.23C379.876 240.406 382.472 241.598 385.053 242.774C385.281 243.019 385.51 243.263 385.755 243.492C386.621 252.653 389.675 261.259 394.313 268.966C400.078 278.568 407.607 286.847 417.814 292.155C423.22 294.947 428.691 297.592 434.505 299.438L434.522 299.454ZM300.895 317.531C300.602 319.621 300.291 321.695 299.997 323.785C296.878 345.7 310.939 366.928 332.073 372.105C358.432 378.555 384.073 361.817 386.817 334.089C388.45 317.564 382.309 304.059 369.129 294.065C359.543 286.782 348.355 285.019 336.58 286.276C335.11 284.022 334.033 281.328 332.089 279.597C326.896 274.959 320.934 272.02 313.585 272.445C304.178 272.984 297.335 277.327 292.991 285.525C288.369 294.261 289.561 302.671 294.836 310.787C296.519 313.383 299.017 315.163 300.912 317.531H300.895Z" fill="#DDEACE"/>
<path opacity="0.67" d="M434.522 299.454C428.708 297.609 423.22 294.963 417.831 292.171C407.623 286.88 400.078 278.601 394.329 268.983C389.707 261.259 386.637 252.67 385.771 243.509C390.083 244.684 393.692 247.215 397.269 249.73C398.118 250.318 398.755 251.2 399.866 251.379C404.782 266.582 414.956 277.197 428.838 284.561C430.716 289.542 433.607 294.131 434.522 299.47V299.454Z" fill="#003B28"/>
<path d="M176.235 328.848C175.778 326.398 176.317 324.585 180.139 324.879C185.692 325.304 185.087 324.096 185.267 329.566C185.365 332.554 185.332 334.694 181.168 334.334C176.252 333.91 176.219 334.236 176.219 328.864L176.235 328.848Z" fill="#F6F9FA"/>
<path d="M505.205 334.253C503.409 334.367 500.616 334.743 501.4 330.725C501.841 328.439 499.506 324.667 504.797 324.879C510.366 325.108 510.383 324.879 510.415 328.831C510.437 332.413 508.706 334.22 505.222 334.253H505.205Z" fill="#F6F9FA"/>
<path d="M371.579 238.022C366.68 239.557 361.846 237.793 356.995 237.597C350.234 237.32 343.505 236.34 336.76 235.719C335.111 235.572 333.51 235.36 332.04 234.593C337.005 232.29 342.329 232.633 347.441 233.188C354.611 233.956 361.829 234.789 368.819 236.715C369.766 236.977 370.959 236.993 371.579 238.022Z" fill="#9EADBC"/>
<path d="M336.58 286.276C348.356 285.019 359.526 286.799 369.13 294.065C382.309 304.059 388.45 317.564 386.817 334.089C384.089 361.817 358.432 378.555 332.073 372.105C310.94 366.928 296.878 345.7 299.997 323.785C300.291 321.695 300.602 319.605 300.896 317.531C302.202 317.205 303.133 318.07 304.178 318.544C318.485 325.141 334.947 316.682 338.034 301.218C339.063 296.025 337.887 291.159 336.58 286.26V286.276ZM317.521 330.97C314.827 330.97 312.818 332.979 312.818 335.624C312.818 338.319 314.745 340.229 317.538 340.262C320.085 340.295 322.372 338.09 322.339 335.624C322.306 333.126 320.069 330.954 317.521 330.954V330.97Z" fill="#3EB55B"/>
<path d="M451.948 291.11C483.138 291.11 508.423 265.828 508.423 234.641C508.423 203.455 483.138 178.173 451.948 178.173C420.757 178.173 395.473 203.455 395.473 234.641C395.473 265.828 420.757 291.11 451.948 291.11Z" fill="#3EB55B"/>
<path d="M479.548 229.808C479.548 235.115 475.237 239.426 469.929 239.426H433.95C428.642 239.426 424.331 235.115 424.331 229.808C424.331 228.306 425.556 227.081 427.058 227.081H476.821C478.323 227.081 479.548 228.306 479.548 229.808Z" fill="white"/>
<path d="M460.701 214.964C460.701 210.139 456.79 206.228 451.964 206.228C447.138 206.228 443.227 210.139 443.227 214.964C443.227 219.789 447.138 223.701 451.964 223.701C456.79 223.701 460.701 219.789 460.701 214.964Z" fill="white"/>
<path d="M473.897 251.722L467.103 244.929L460.701 238.528L456.749 234.576C455.475 233.303 453.76 232.6 451.98 232.6C450.184 232.6 448.469 233.319 447.211 234.576L443.259 238.528L436.857 244.929L429.867 251.918C425.621 256.164 429.867 260.638 429.867 260.638C432.284 263.055 436.187 263.055 438.588 260.638L449.465 249.763L449.498 249.73C450.347 248.505 450.788 247.052 450.788 245.55V242.904H453.14V245.566C453.14 247.019 453.581 248.44 454.381 249.665L465.356 260.638C467.904 263.186 472.134 263.039 474.485 260.198C476.543 257.715 476.168 254.009 473.897 251.739V251.722Z" fill="white"/>
<path d="M153.685 553.566C150.843 553.566 148.524 552.537 146.711 550.463C144.898 548.389 144 545.842 144 542.788C144 539.735 144.915 537.024 146.744 534.836C148.573 532.648 150.892 531.554 153.701 531.554C156.51 531.554 158.78 532.648 160.593 534.852C162.406 537.057 163.304 539.702 163.304 542.772C163.304 545.842 162.406 548.389 160.593 550.447C158.78 552.505 156.477 553.55 153.701 553.55L153.685 553.566ZM150.32 527.438L147.25 524.205L150.32 520.972L153.391 524.205L150.32 527.438ZM153.685 549.484C155.449 549.484 156.902 548.847 158.045 547.557C159.188 546.267 159.744 544.666 159.744 542.756C159.744 540.845 159.172 539.098 158.013 537.71C156.853 536.322 155.416 535.62 153.668 535.62C151.921 535.62 150.435 536.322 149.259 537.71C148.099 539.098 147.511 540.78 147.511 542.756C147.511 544.732 148.083 546.267 149.242 547.557C150.402 548.847 151.872 549.484 153.668 549.484H153.685ZM157.016 527.438L153.897 524.205L157.016 520.972L160.087 524.205L157.016 527.438Z" fill="#003B28"/>
<path d="M163.745 562.825L163.402 559.543C168.465 559.543 170.98 556.963 170.98 551.819L170.931 531.472L174.508 530.852V551.95C174.508 555.689 173.609 558.432 171.813 560.196C170.016 561.943 167.322 562.825 163.729 562.825H163.745Z" fill="#003B28"/>
<path d="M200.067 549.125C200.344 549.125 200.491 549.255 200.491 549.533V552.717C200.491 553.011 200.344 553.174 200.067 553.174H197.584C197.078 559.608 191.852 562.825 181.906 562.825L181.481 559.543C185.385 559.543 188.373 559.037 190.464 558.024C192.538 557.012 193.73 555.395 194.008 553.174H188.945C185.973 553.174 183.572 552.211 181.775 550.284C179.979 548.357 179.081 545.761 179.081 542.495C179.081 539.229 179.995 536.665 181.841 534.64C183.686 532.599 186.005 531.586 188.814 531.586C191.427 531.586 193.55 532.501 195.184 534.346C196.817 536.191 197.633 538.625 197.633 541.646V549.141H200.083L200.067 549.125ZM182.412 542.299C182.412 544.552 183.049 546.267 184.307 547.459C185.564 548.651 187.279 549.255 189.402 549.255C190.3 549.255 191.852 549.222 194.04 549.173V541.939C194.04 539.996 193.534 538.429 192.505 537.253C191.476 536.077 190.137 535.473 188.488 535.473C186.74 535.473 185.303 536.093 184.143 537.367C182.984 538.625 182.412 540.274 182.412 542.299Z" fill="#003B28"/>
<path d="M238.626 549.124C238.904 549.124 239.051 549.255 239.051 549.533V552.717C239.051 553.011 238.904 553.174 238.626 553.174C236.16 553.174 233.873 552.162 231.799 550.12C230.28 552.162 227.831 553.174 224.434 553.174H200.083C199.805 553.174 199.658 553.027 199.658 552.717V549.533C199.707 549.255 199.854 549.124 200.083 549.124H204.248V520.972L207.824 520.384V536.24C212.201 534.232 215.517 532.86 217.754 532.125C219.991 531.39 222.164 531.031 224.27 531.031C226.932 531.031 229.137 531.929 230.868 533.742C232.6 535.554 233.449 537.873 233.416 540.731V544.552C233.416 545.336 233.318 546.185 233.122 547.116C234.919 548.471 236.764 549.141 238.642 549.141L238.626 549.124ZM229.823 543.866V541.253C229.823 539.375 229.235 537.857 228.059 536.697C226.883 535.538 225.365 534.966 223.503 534.966C221.641 534.966 219.763 535.244 217.934 535.799C216.104 536.354 212.74 537.596 207.824 539.555V549.124H224.466C226.181 549.124 227.504 548.667 228.435 547.769C229.366 546.871 229.823 545.564 229.823 543.866Z" fill="#003B28"/>
<path d="M254.468 549.124C254.745 549.124 254.892 549.255 254.892 549.533V552.717C254.892 553.011 254.745 553.174 254.468 553.174C251.855 553.174 249.438 552.08 247.216 549.892C245.698 552.08 242.839 553.174 238.626 553.174C238.348 553.174 238.201 553.027 238.201 552.717L238.25 549.533C238.25 549.255 238.397 549.124 238.675 549.124C240.929 549.124 242.562 548.684 243.591 547.802C244.62 546.92 245.126 545.483 245.126 543.507V536.24L248.67 535.652V544.536C248.67 545.287 248.605 546.054 248.458 546.871C250.336 548.373 252.345 549.124 254.484 549.124H254.468ZM246.383 529.186L243.313 532.419L240.243 529.186L243.313 525.953L246.383 529.186ZM253.079 529.186L250.009 532.419L246.89 529.186L250.009 525.953L253.079 529.186Z" fill="#003B28"/>
<path d="M278.247 549.124C278.524 549.124 278.671 549.255 278.671 549.533V552.717C278.671 553.011 278.524 553.174 278.247 553.174H268.056C265.279 553.174 262.944 552.439 261.066 550.97C258.877 552.439 256.689 553.174 254.484 553.174C254.206 553.174 254.059 553.027 254.059 552.717V549.533C254.059 549.255 254.206 549.124 254.484 549.124C255.938 549.124 257.342 548.798 258.649 548.128C257.636 546.365 257.13 544.258 257.13 541.792C257.13 538.804 258.028 536.322 259.825 534.346C261.621 532.37 263.907 531.39 266.7 531.39C269.313 531.39 271.551 532.386 273.396 534.379C275.258 536.371 276.173 538.706 276.173 541.4C276.173 543.736 275.683 546.316 274.703 549.124H278.247ZM267.762 549.124H271.257C272.237 546.185 272.727 543.817 272.727 542.037C272.727 540.257 272.171 538.608 271.061 537.236C269.95 535.865 268.562 535.179 266.913 535.179C265.034 535.179 263.532 535.799 262.405 537.04C261.278 538.282 260.723 539.914 260.723 541.956C260.723 544.111 261.36 545.842 262.617 547.165C263.875 548.488 265.59 549.141 267.762 549.141V549.124Z" fill="#003B28"/>
<path d="M278.247 553.174C277.969 553.174 277.822 553.027 277.822 552.717V549.533C277.822 549.255 277.969 549.125 278.279 549.125C281.791 549.125 283.554 547.181 283.554 543.278L283.603 520.956L287.147 520.368V544.16C287.147 550.153 284.175 553.142 278.263 553.142L278.247 553.174Z" fill="#003B28"/>
<path d="M294.431 553.174V520.972L298.008 520.384V553.158H294.431V553.174Z" fill="#003B28"/>
<path d="M336.976 520.253V547.328H336.927V548.814C336.927 553.158 335.947 556.571 333.97 559.069C332.011 561.568 328.973 562.825 324.874 562.825C321.33 562.825 318.537 561.845 316.463 559.886C314.405 557.926 313.36 555.036 313.36 551.198C313.36 547.998 313.98 544.389 315.222 540.372L318.129 541.221C317.149 544.307 316.659 547.295 316.659 550.202C316.692 553.011 317.426 555.15 318.896 556.603C320.35 558.057 322.424 558.775 325.086 558.775C327.895 558.775 329.986 557.926 331.341 556.244C332.697 554.546 333.383 551.949 333.383 548.406V520.841L336.959 520.253H336.976Z" fill="#003B28"/>
<path d="M362.812 549.125C363.09 549.125 363.237 549.255 363.237 549.533V552.717C363.237 553.011 363.09 553.174 362.812 553.174H360.33C359.824 559.608 354.597 562.825 344.651 562.825L344.227 559.543C348.13 559.543 351.119 559.037 353.209 558.024C355.283 557.012 356.476 555.395 356.753 553.174H351.69C348.718 553.174 346.317 552.211 344.521 550.284C342.724 548.357 341.826 545.761 341.826 542.495C341.826 539.229 342.741 536.665 344.586 534.64C346.432 532.599 348.751 531.586 351.56 531.586C354.173 531.586 356.296 532.501 357.929 534.346C359.562 536.191 360.379 538.625 360.379 541.646V549.141H362.829L362.812 549.125ZM345.158 542.299C345.158 544.552 345.795 546.267 347.052 547.459C348.31 548.651 350.025 549.255 352.148 549.255C353.046 549.255 354.597 549.222 356.786 549.173V541.939C356.786 539.996 356.28 538.429 355.251 537.253C354.222 536.077 352.883 535.473 351.233 535.473C349.486 535.473 348.048 536.093 346.889 537.367C345.729 538.625 345.158 540.274 345.158 542.299Z" fill="#003B28"/>
<path d="M387 531.031C389.662 531.031 391.866 531.929 393.598 533.726C395.329 535.522 396.194 537.808 396.194 540.6C396.194 541.972 396.096 543.23 395.884 544.356C395.672 545.483 395.263 547.263 394.675 549.729L391.85 553.191H362.812C362.535 553.191 362.388 553.044 362.388 552.733L362.437 549.549C362.437 549.272 362.584 549.141 362.861 549.141H367.026L366.977 531.488L370.554 530.868V536.257C374.881 534.281 378.18 532.925 380.434 532.174C382.688 531.423 384.876 531.048 386.983 531.048L387 531.031ZM391.213 549.125C392.144 545.777 392.601 543.115 392.601 541.139C392.569 539.343 391.964 537.873 390.772 536.714C389.58 535.555 388.061 534.983 386.248 534.983C384.435 534.983 382.541 535.261 380.745 535.799C378.948 536.338 375.567 537.596 370.57 539.572V549.141H391.213V549.125Z" fill="#003B28"/>
<path d="M420.839 549.125C421.117 549.125 421.264 549.255 421.264 549.533V552.717C421.264 553.011 421.117 553.174 420.839 553.174H418.357C417.85 559.608 412.624 562.825 402.678 562.825L402.253 559.543C406.157 559.543 409.145 559.037 411.236 558.024C413.31 557.012 414.502 555.395 414.78 553.174H409.717C406.745 553.174 404.344 552.211 402.547 550.284C400.751 548.357 399.853 545.761 399.853 542.495C399.853 539.229 400.767 536.665 402.613 534.64C404.458 532.599 406.777 531.586 409.586 531.586C412.199 531.586 414.323 532.501 415.956 534.346C417.589 536.191 418.405 538.625 418.405 541.646V549.141H420.855L420.839 549.125ZM403.184 542.299C403.184 544.552 403.821 546.267 405.079 547.459C406.336 548.651 408.051 549.255 410.174 549.255C411.073 549.255 412.624 549.222 414.813 549.174V541.939C414.813 539.996 414.306 538.429 413.277 537.253C412.248 536.077 410.909 535.473 409.26 535.473C407.512 535.473 406.075 536.093 404.916 537.367C403.756 538.625 403.184 540.274 403.184 542.299Z" fill="#003B28"/>
<path d="M420.839 553.174C420.561 553.174 420.414 553.027 420.414 552.717V549.533C420.414 549.255 420.561 549.125 420.872 549.125C424.383 549.125 426.147 547.181 426.147 543.278L426.196 520.956L429.74 520.368V544.16C429.74 550.153 426.767 553.142 420.855 553.142L420.839 553.174Z" fill="#003B28"/>
<path d="M437.024 553.174V520.972L440.6 520.384V553.158H437.024V553.174Z" fill="#003B28"/>
<path d="M478.735 549.124C479.013 549.124 479.16 549.255 479.16 549.533V552.717C479.16 553.011 479.013 553.174 478.735 553.174C476.155 553.174 474.244 552.537 473.003 551.247C470.161 552.799 467.629 553.582 465.376 553.582C462.534 553.582 460.215 552.554 458.402 550.48C456.589 548.406 455.691 545.858 455.691 542.805C455.691 539.751 456.605 537.04 458.435 534.852C460.264 532.664 462.583 531.57 465.392 531.57C467.107 531.57 468.985 531.995 471.043 532.827V530.035L474.587 529.414L474.636 544.095C474.636 545.891 474.962 547.181 475.599 547.965C476.236 548.749 477.298 549.124 478.768 549.124H478.735ZM465.082 524.075L462.011 527.308L458.941 524.075L462.011 520.841L465.082 524.075ZM465.376 549.712C467.254 549.745 469.279 549.239 471.451 548.194C471.173 547.181 471.026 545.94 471.026 544.47V536.649C468.756 535.832 466.911 535.44 465.506 535.44C463.628 535.44 462.093 536.142 460.884 537.547C459.692 538.951 459.088 540.682 459.088 542.756C459.088 544.83 459.676 546.381 460.835 547.687C461.995 549.01 463.514 549.68 465.359 549.712H465.376ZM471.778 524.075L468.707 527.308L465.588 524.075L468.707 520.841L471.778 524.075Z" fill="#003B28"/>
<path d="M491.457 534.183C494.544 534.183 497.01 535.032 498.856 536.714C500.701 538.412 501.616 540.682 501.616 543.556C501.616 546.43 500.75 548.863 499.019 550.578C497.288 552.293 494.985 553.158 492.094 553.158H478.735C478.457 553.158 478.31 553.011 478.31 552.701V549.516C478.31 549.239 478.457 549.108 478.735 549.108H491.8C493.744 549.108 495.263 548.618 496.373 547.622C497.484 546.626 498.039 545.254 498.039 543.491C498.039 541.727 497.484 540.323 496.373 539.294C495.263 538.265 493.76 537.743 491.849 537.743H481.691L479.748 534.101L492.339 518.212L495.802 520.139L483.961 534.15H491.457V534.183Z" fill="#003B28"/>
<path d="M517.882 549.125C518.16 549.125 518.307 549.255 518.307 549.533V552.717C518.307 553.011 518.16 553.174 517.882 553.174C515.726 553.174 514.126 552.374 513.113 550.79V551.95C513.113 555.689 512.215 558.432 510.418 560.196C508.622 561.943 505.927 562.825 502.334 562.825L501.991 559.543C507.054 559.543 509.569 556.963 509.569 551.819L509.52 531.472L513.097 530.852V544.862C513.293 547.704 514.877 549.125 517.866 549.125H517.882Z" fill="#003B28"/>
<path d="M549.157 531.439L552.701 530.819V544.519C552.701 547.279 551.999 549.402 550.594 550.888C549.19 552.39 547.116 553.142 544.356 553.142C542.102 553.142 539.766 552.341 537.317 550.757C535.831 552.341 533.691 553.142 530.915 553.142C528.89 553.142 526.799 552.358 524.643 550.806C523.092 552.39 520.871 553.191 517.947 553.191C517.67 553.191 517.523 553.044 517.523 552.733V549.549C517.523 549.271 517.67 549.141 517.947 549.141C521.491 549.141 523.255 547.263 523.255 543.523L523.206 536.257L526.783 535.669V544.552C526.783 545.81 526.619 546.969 526.277 548.014C527.91 548.733 529.363 549.092 530.653 549.092C534.197 549.092 535.961 547.214 535.961 543.474L535.912 536.208L539.489 535.62V544.503C539.489 545.826 539.309 546.969 538.934 547.965C540.681 548.716 542.298 549.092 543.817 549.092C545.532 549.092 546.838 548.618 547.753 547.671C548.667 546.724 549.125 545.336 549.125 543.474V531.439H549.157ZM537.104 525.871L534.067 529.153L530.947 525.871L534.018 522.638L537.088 525.871H537.104ZM539.75 520.384L537.562 522.719L535.324 520.384L537.513 518L539.75 520.384ZM541.008 529.137L537.888 525.855L541.008 522.621L544.078 525.855L541.008 529.137Z" fill="#003B28"/>
<path d="M270.407 597.297V603.764C270.407 604.041 270.244 604.254 269.983 604.254C267.337 604.254 265.312 603.715 263.826 602.588C261.294 603.976 259.057 604.646 256.754 604.646C250.777 604.646 246.514 599.714 246.514 593.329C246.514 586.944 250.777 581.523 256.754 581.523C258.142 581.523 259.498 581.833 261.017 582.372V579.939L267.598 579.09L267.647 594.048C267.647 596.023 268.497 596.824 270.016 596.824C270.277 596.824 270.44 597.003 270.44 597.281L270.407 597.297ZM253.765 578.436L249.389 573.766L253.733 569.145L257.064 572.607L260.347 569.145L264.724 573.766L260.429 578.436L257.064 574.942L253.782 578.436H253.765ZM261.147 596.987C261.066 596.399 261.066 595.73 261.066 595.06L261.017 589.263C259.661 588.773 258.404 588.446 257.097 588.446C254.402 588.446 252.622 590.422 252.622 593.215C252.622 595.73 254.353 597.656 256.754 597.754C258.306 597.803 259.825 597.526 261.131 596.987H261.147Z" fill="#003B28"/>
<path d="M279.847 615.799L276.777 612.614L273.788 615.799L269.362 611.177L273.707 606.556L276.777 609.74L279.766 606.556L284.192 611.177L279.847 615.799ZM269.558 603.764L269.64 597.297C269.64 597.02 269.803 596.84 270.065 596.84H273.609C275.977 596.84 277.104 595.452 277.104 592.268L277.055 582.339L283.636 581.49V594.831C283.636 601.02 280.305 604.254 273.527 604.254H269.983C269.722 604.254 269.558 604.025 269.558 603.764Z" fill="#003B28"/>
<path d="M286.037 596.856H296.571C298.923 596.856 300.066 595.468 300.066 593.394V591.957C300.017 589.573 298.171 587.957 295.477 587.957H292.619V580.771H296.996C302.728 580.771 306.68 584.446 306.68 591.32V594.815C306.599 601.004 303.267 604.237 296.489 604.237H287.05L286.037 596.824V596.856Z" fill="#003B28"/>
<path d="M332.141 597.297V603.764C332.141 604.041 331.978 604.254 331.717 604.254H329.659C329.071 611.259 322.195 613.904 312.38 613.904L311.71 608.205C318.749 608.205 322.244 607.128 323.012 604.254H319.468C313.49 604.254 309.473 599.812 309.473 593.068C309.473 586.324 314.029 581.49 319.844 581.49C325.658 581.49 329.708 585.752 329.708 592.708V596.84H331.733C331.978 596.84 332.158 597.02 332.158 597.297H332.141ZM320.04 597.248C321.003 597.248 322.065 597.15 323.159 597.069V593.215C323.159 590.292 321.591 588.593 319.321 588.593C317.214 588.593 315.352 590.259 315.352 592.855C315.352 595.827 317.41 597.264 320.023 597.264L320.04 597.248Z" fill="#003B28"/>
<path d="M357.178 597.297V603.764C357.178 604.041 357.015 604.254 356.753 604.254C352.033 604.254 348.669 603.355 345.419 601.33C341.254 603.535 338.004 604.254 331.717 604.254C331.455 604.205 331.292 604.025 331.292 603.764V597.297C331.292 597.019 331.455 596.84 331.717 596.84C333.954 596.84 335.767 596.758 337.449 596.562C335.849 594.309 334.379 591.892 332.811 588.528L334.967 583.009C339.05 580.902 342.218 580.004 345.337 580.004C351.2 580.004 355.234 583.466 355.234 588.626C355.234 591.01 354.222 593.966 351.69 596.53C353.128 596.758 354.728 596.84 356.753 596.84C356.998 596.84 357.178 597.019 357.178 597.297ZM338.756 588.185C340.487 591.957 341.924 594.243 343.982 596.497C347.444 595.142 349.257 592.904 349.257 590.928C349.257 588.642 347.363 586.895 344.455 586.895C342.806 586.846 340.96 587.254 338.772 588.201L338.756 588.185Z" fill="#003B28"/>
<path d="M397.338 597.297V603.764C397.338 604.041 397.174 604.254 396.913 604.254C394.643 604.254 392.65 603.437 391.017 601.967C389.547 603.453 387.359 604.254 384.534 604.254C382.182 604.254 379.895 603.437 377.544 601.739C375.894 603.306 373.591 604.254 370.766 604.254C368.659 604.254 366.601 603.404 364.527 601.608C362.845 603.306 360.314 604.254 356.949 604.254C356.688 604.254 356.525 604.025 356.525 603.764V597.297C356.525 597.02 356.688 596.84 356.949 596.84C359.317 596.84 360.444 595.452 360.444 592.268L360.395 586.879L367.01 586.062V594.815C367.01 595.272 366.961 595.713 366.928 596.17C367.99 596.611 368.986 596.84 370.096 596.84C372.497 596.84 373.64 595.452 373.64 592.268L373.591 586.879L380.157 586.062V594.815C380.157 595.305 380.108 595.811 380.075 596.301C381.12 596.66 382.133 596.84 383.325 596.84C385.595 596.84 386.82 595.272 386.82 592.268V582.306L393.402 581.49V594.831C393.402 595.24 393.353 595.648 393.353 596.04C394.365 596.579 395.541 596.856 396.929 596.856C397.191 596.856 397.354 597.036 397.354 597.313L397.338 597.297Z" fill="#003B28"/>
<path d="M396.488 603.764L396.537 597.297C396.537 597.019 396.701 596.84 396.962 596.84C399.363 596.84 400.457 595.403 400.457 592.218L400.506 572.28L407.088 571.463L407.039 594.717C407.039 601.053 403.707 604.237 396.929 604.237C396.668 604.237 396.505 604.009 396.505 603.747L396.488 603.764Z" fill="#003B28"/>
<path d="M413 572.296L419.581 571.48V604.253H413V572.28V572.296Z" fill="#003B28"/>
<path d="M456.246 597.297V603.764C456.246 604.041 456.083 604.254 455.821 604.254C453.176 604.254 451.151 603.715 449.664 602.588C447.133 603.976 444.896 604.646 442.593 604.646C436.615 604.646 432.353 599.714 432.353 593.329C432.353 586.944 436.615 581.523 442.593 581.523C443.981 581.523 445.337 581.833 446.855 582.372V579.939L453.437 579.09L453.486 594.048C453.486 596.023 454.335 596.824 455.854 596.824C456.115 596.824 456.279 597.003 456.279 597.281L456.246 597.297ZM439.604 578.436L435.227 573.766L439.571 569.145L442.903 572.607L446.186 569.145L450.563 573.766L446.267 578.436L442.903 574.942L439.62 578.436H439.604ZM446.986 596.987C446.904 596.399 446.904 595.73 446.904 595.06L446.855 589.263C445.5 588.773 444.242 588.446 442.936 588.446C440.241 588.446 438.461 590.422 438.461 593.215C438.461 595.73 440.192 597.656 442.593 597.754C444.144 597.803 445.663 597.526 446.97 596.987H446.986Z" fill="#003B28"/>
<path d="M465.686 615.799L462.616 612.614L459.627 615.799L455.201 611.177L459.545 606.556L462.616 609.74L465.604 606.556L470.03 611.177L465.686 615.799ZM455.397 603.764L455.479 597.297C455.479 597.02 455.642 596.84 455.903 596.84H459.447C461.815 596.84 462.942 595.452 462.942 592.268L462.893 582.339L469.475 581.49V594.831C469.475 601.02 466.143 604.254 459.366 604.254H455.822C455.56 604.254 455.397 604.025 455.397 603.764Z" fill="#003B28"/>
<path d="M493.074 592.725V603.274C493.074 611.047 486.035 613.921 475.763 613.921L475.093 608.222C482.85 608.222 486.296 606.866 486.509 603.323C485.202 603.911 483.896 604.27 482.638 604.27C476.857 604.27 472.855 599.877 472.855 593.084C472.855 586.291 477.412 581.506 483.226 581.506C489.04 581.506 493.09 585.768 493.09 592.725H493.074ZM487.554 578.453H477.69V573.913H479.796C479.372 573.145 479.16 572.394 479.16 571.529C479.16 568.655 481.266 566.777 484.01 566.777C484.974 566.777 486.068 567.087 487.293 567.724V571.725C486.035 571.268 485.137 571.104 484.435 571.104C483.291 571.104 482.573 571.643 482.573 572.541C482.573 573.031 482.736 573.488 483.079 573.929H488.893L487.538 578.469L487.554 578.453ZM483.21 597.264C484.222 597.264 485.366 597.085 486.541 596.807V593.215C486.541 590.292 484.974 588.593 482.703 588.593C480.597 588.593 478.735 590.259 478.735 592.855C478.735 595.827 480.629 597.297 483.21 597.264Z" fill="#003B28"/>
<path d="M494.381 608.205C497.794 608.205 500.276 606.768 500.276 602.898L500.227 582.339L506.809 581.49V603.225C506.809 610.998 502.889 613.904 494.838 613.904L494.381 608.205Z" fill="#003B28"/>
<path d="M530.572 582.666C533.185 582.666 535.308 583.58 536.941 585.425C538.574 587.271 539.391 589.704 539.391 592.725V603.225C539.391 610.345 534.148 613.905 523.68 613.905L523.255 610.622C527.501 610.622 530.653 610.018 532.744 608.81C534.818 607.601 535.863 605.674 535.863 603.045V602.947C534.067 603.813 532.319 604.254 530.637 604.254C527.714 604.254 525.362 603.29 523.566 601.363C521.769 599.436 520.871 596.84 520.871 593.574C520.871 590.308 521.785 587.744 523.631 585.719C525.476 583.678 527.795 582.666 530.604 582.666H530.572ZM531.078 600.351C532.744 600.351 534.328 600.073 535.847 599.502V593.035C535.847 591.125 535.324 589.557 534.295 588.365C533.25 587.173 531.911 586.569 530.245 586.569C528.498 586.569 527.06 587.189 525.901 588.463C524.741 589.72 524.17 591.37 524.17 593.394C524.17 595.697 524.79 597.444 526.032 598.653C527.273 599.845 528.955 600.416 531.094 600.351H531.078Z" fill="#003B28"/>
<path d="M133.44 608V605.04C133.44 603.627 133.667 602.4 134.12 601.36C134.6 600.293 135.213 599.347 135.96 598.52C136.733 597.667 137.6 596.92 138.56 596.28C139.547 595.64 140.547 595.04 141.56 594.48C142.573 593.893 143.56 593.333 144.52 592.8C145.507 592.24 146.373 591.653 147.12 591.04C147.893 590.4 148.507 589.72 148.96 589C149.44 588.253 149.68 587.387 149.68 586.4C149.68 585.013 149.16 583.92 148.12 583.12C147.08 582.293 145.787 581.88 144.24 581.88C142.693 581.88 141.387 582.347 140.32 583.28C139.28 584.187 138.76 585.56 138.76 587.4V587.88H133.84V587.4C133.84 585.827 134.08 584.44 134.56 583.24C135.067 582.013 135.773 580.987 136.68 580.16C137.587 579.333 138.68 578.707 139.96 578.28C141.24 577.827 142.667 577.6 144.24 577.6C145.813 577.6 147.227 577.813 148.48 578.24C149.76 578.667 150.853 579.267 151.76 580.04C152.667 580.813 153.36 581.747 153.84 582.84C154.347 583.907 154.6 585.107 154.6 586.44C154.6 588.147 154.253 589.613 153.56 590.84C152.893 592.04 152.027 593.107 150.96 594.04C149.893 594.947 148.707 595.76 147.4 596.48C146.093 597.173 144.8 597.88 143.52 598.6C142.24 599.293 141.053 600.04 139.96 600.84C138.867 601.64 138 602.587 137.36 603.68L137.92 604.64C139.12 604.267 140.253 604.053 141.32 604C142.387 603.92 143.56 603.88 144.84 603.88H154.6V608H133.44ZM157.943 593C157.943 588.093 158.957 584.307 160.983 581.64C163.01 578.947 166.037 577.6 170.063 577.6C174.117 577.6 177.143 578.947 179.143 581.64C181.143 584.307 182.143 588.093 182.143 593C182.143 597.907 181.143 601.707 179.143 604.4C177.143 607.067 174.117 608.4 170.063 608.4C166.037 608.4 163.01 607.067 160.983 604.4C158.957 601.707 157.943 597.907 157.943 593ZM162.863 593C162.863 596.733 163.437 599.52 164.583 601.36C165.757 603.2 167.583 604.12 170.063 604.12C172.517 604.12 174.317 603.2 175.463 601.36C176.637 599.52 177.223 596.733 177.223 593C177.223 589.267 176.637 586.48 175.463 584.64C174.317 582.8 172.517 581.88 170.063 581.88C167.583 581.88 165.757 582.8 164.583 584.64C163.437 586.48 162.863 589.267 162.863 593ZM196.67 608.4C193.017 608.4 190.204 607.56 188.23 605.88C186.257 604.173 185.27 601.747 185.27 598.6H190.19C190.19 600.44 190.75 601.827 191.87 602.76C193.017 603.667 194.617 604.12 196.67 604.12C198.697 604.12 200.27 603.707 201.39 602.88C202.537 602.027 203.11 600.733 203.11 599C203.11 597.72 202.724 596.693 201.95 595.92C201.204 595.12 200.044 594.72 198.47 594.72H195.27V590.56H198.47C199.884 590.56 200.937 590.2 201.63 589.48C202.35 588.76 202.71 587.733 202.71 586.4C202.71 585.76 202.564 585.16 202.27 584.6C202.004 584.04 201.617 583.56 201.11 583.16C200.604 582.76 200.004 582.453 199.31 582.24C198.617 582 197.87 581.88 197.07 581.88C195.23 581.88 193.75 582.293 192.63 583.12C191.537 583.92 190.99 585.213 190.99 587H186.07C186.07 583.933 187.03 581.6 188.95 580C190.897 578.4 193.604 577.6 197.07 577.6C198.67 577.6 200.124 577.813 201.43 578.24C202.737 578.667 203.844 579.267 204.75 580.04C205.684 580.787 206.39 581.693 206.87 582.76C207.377 583.827 207.63 585 207.63 586.28C207.63 587.107 207.497 587.88 207.23 588.6C206.99 589.293 206.617 589.907 206.11 590.44C205.604 590.947 204.977 591.347 204.23 591.64C203.484 591.933 202.617 592.08 201.63 592.08V593.24C202.67 593.24 203.59 593.4 204.39 593.72C205.19 594.013 205.857 594.427 206.39 594.96C206.924 595.493 207.324 596.133 207.59 596.88C207.884 597.6 208.03 598.4 208.03 599.28C208.03 602.213 207.044 604.467 205.07 606.04C203.124 607.613 200.324 608.4 196.67 608.4ZM211.693 593C211.693 588.093 212.707 584.307 214.733 581.64C216.76 578.947 219.787 577.6 223.813 577.6C227.867 577.6 230.893 578.947 232.893 581.64C234.893 584.307 235.893 588.093 235.893 593C235.893 597.907 234.893 601.707 232.893 604.4C230.893 607.067 227.867 608.4 223.813 608.4C219.787 608.4 216.76 607.067 214.733 604.4C212.707 601.707 211.693 597.907 211.693 593ZM216.613 593C216.613 596.733 217.187 599.52 218.333 601.36C219.507 603.2 221.333 604.12 223.813 604.12C226.267 604.12 228.067 603.2 229.213 601.36C230.387 599.52 230.973 596.733 230.973 593C230.973 589.267 230.387 586.48 229.213 584.64C228.067 582.8 226.267 581.88 223.813 581.88C221.333 581.88 219.507 582.8 218.333 584.64C217.187 586.48 216.613 589.267 216.613 593Z" fill="#3EB55B"/>
</g>
<defs>
<clipPath id="clip0_78_127">
<rect width="681" height="693" rx="70" fill="white"/>
</clipPath>
</defs>
</svg>
